<?xml version="1.0" encoding="utf-8"?>
<!-- Generator: Adobe Illustrator 27.5.0, SVG Export Plug-In . SVG Version: 6.00 Build 0)  -->
<svg version="1.1" id="Layer_1" xmlns="http://www.w3.org/2000/svg" xmlns:xlink="http://www.w3.org/1999/xlink" x="0px" y="0px"
	 viewBox="0 0 4000 4000" style="enable-background:new 0 0 4000 4000;" xml:space="preserve">
<g>
	<g>
		<g>
			<g>
				<g>
					<rect style="fill:#9D91FF;" width="4000" height="4000"/>
				</g>
			</g>
		</g>
	</g>
	<g>
		<g>
			<g>
				<g>
					<g>
						<path style="fill:#E81818;" d="M1594.85,2170.409c261.843-36.295,498.541,325.371,552.2,413.759
							c7.449,12.288,20.021,20.543,34.255,22.441c94.651,12.383,161.594,10.675,211.6,0.237c0.048,0.048,0.048,0,0.095,0
							c117.044-24.339,141.288-96.359,211.173-146.886c47.349-34.302,103.95-36.816,161.215-35.868c0.047,0.047,0.047,0.047,0.095,0
							c66.184,1.139,133.317,6.927,188.115-26.332c8.065-4.886,15.087-10.105,21.35-15.609
							c51.477-45.356,50.338-110.544,117.898-160.598c34.729-25.762,79.469-33.543,124.256-31.882
							c68.129,2.372,136.354,26.521,169.375,41.941c6.974,3.226,14.755-2.894,13.237-10.438l-33.78-173.55l-452.568-210.129
							l-1186.052-100.059L1594.85,2170.409z"/>
					</g>
				</g>
			</g>
		</g>
		<g style="opacity:0.2;">
			<g>
				<g>
					<g>
						<path style="fill:#371A45;" d="M1594.85,2170.409c261.843-36.295,498.541,325.371,552.2,413.759
							c7.449,12.288,20.021,20.543,34.255,22.441c94.651,12.383,161.594,10.675,211.6,0.237c0.048,0.048,0.048,0,0.095,0
							c117.044-24.339,141.288-96.359,211.173-146.886c47.349-34.302,103.95-36.816,161.215-35.868c0.047,0.047,0.047,0.047,0.095,0
							c66.184,1.139,133.317,6.927,188.115-26.332c8.065-4.886,15.087-10.105,21.35-15.609
							c51.477-45.356,50.338-110.544,117.898-160.598c34.729-25.762,79.469-33.543,124.256-31.882
							c68.129,2.372,136.354,26.521,169.375,41.941c6.974,3.226,14.755-2.894,13.237-10.438l-33.78-173.55l-452.568-210.129
							l-1186.052-100.059L1594.85,2170.409z"/>
					</g>
				</g>
			</g>
		</g>
		<g style="opacity:0.35;">
			<g>
				<g>
					<g>
						<path style="fill:#371A45;" d="M2461.509,2510.093c-0.712,49.01-34.966,74.819-68.509,88.293
							c117.044-24.339,141.288-96.359,211.173-146.886c47.349-34.302,103.95-36.816,161.215-35.868
							c-94.983-19.167-221.516-58.072-317.637-136.211c-171.557-139.485-377.512-139.628-378.365-139.628
							C2350.253,2211.148,2462.979,2413.639,2461.509,2510.093z"/>
					</g>
				</g>
			</g>
		</g>
		<g style="opacity:0.35;">
			<g>
				<g>
					<g>
						<path style="fill:#371A45;" d="M2261.722,1927.828c-5.124,47.302,328.881-50.623,708.196,354.976
							c24.054,25.715,19.927,62.721,5.029,99.348c51.477-45.356,50.338-110.544,117.898-160.598
							c34.729-25.762,79.469-33.543,124.256-31.882c-68.414-34.871-143.281-73.633-212.359-110.734
							C2672.919,1900.595,2264.996,1897.701,2261.722,1927.828z"/>
					</g>
				</g>
			</g>
		</g>
		<g>
			<g>
				<g>
					<g>
						<path style="fill:#371A45;" d="M2300.076,2632.128c-34.775,0.001-74.696-2.71-120.961-8.757
							c-19.394-2.535-36.362-13.624-46.555-30.423c-26.345-43.421-98.123-154.736-195.403-250.357
							c-119.836-117.793-234.225-170.08-339.993-155.413l-26.271,3.643l144.234-471.405l1202.641,101.486l463.114,214.995
							l35.471,182.017c1.912,9.813-1.798,19.735-9.683,25.895c-7.856,6.136-18.338,7.333-27.356,3.12
							c-29.286-13.677-78.705-30.715-129.575-37.515c-43.333-5.792-103.977-6.031-146.794,25.724
							c-33.927,25.161-48.671,53.989-64.28,84.509c-16.894,33.033-34.363,67.19-76.277,92.606
							c-53.201,32.26-115.672,30.724-176.084,29.241c-63.554-1.56-123.586-3.036-172.217,32.155
							c-21.338,15.44-38.087,32.912-55.82,51.409C2507.65,2577.855,2455.598,2632.121,2300.076,2632.128z M1631.825,2150.947
							c51.844,0,105.434,13.808,159.849,41.247c55.55,28.011,112.482,70.489,169.214,126.254
							c100.003,98.298,173.609,212.432,200.614,256.94c4.833,7.965,12.851,13.219,22,14.415
							c236.199,30.871,291.635-26.952,350.325-88.172c17.992-18.768,36.597-38.175,60.412-55.408
							c57.887-41.889,126.522-40.202,192.895-38.572c58.099,1.429,112.974,2.775,157.699-24.345
							c33.7-20.435,47.597-47.609,63.689-79.073c15.918-31.126,33.961-66.405,74.254-96.287
							c41.698-30.923,99.381-41.717,171.446-32.087c47.615,6.364,94.118,21.111,126.176,34.549l-29.441-151.078l-442.008-205.197
							l-1169.443-98.685L1618.4,2151.257C1622.861,2151.05,1627.338,2150.947,1631.825,2150.947z"/>
					</g>
				</g>
			</g>
		</g>
		<g>
			<g>
				<g>
					<g>
						<path style="fill:#E81818;" d="M1570.69,1671.243c254.766,138.162,1115.284-120.755,1752.424,277.411
							c58.839,36.77,116.943,143.807,119.225,272.604c0.36,20.3-23.398,31.642-38.956,18.597
							c-88.496-74.194-326.789-256.22-613.747-330.077c-364.625-93.847-1150.103-89.492-1191.547-173.263
							C1581.043,1702.066,1570.69,1671.243,1570.69,1671.243z"/>
					</g>
				</g>
			</g>
		</g>
		<g style="opacity:0.5;">
			<g>
				<g>
					<g>
						<path style="fill:#FFFFFF;" d="M1570.701,1666.251c0,0,10.343,30.839,27.375,65.283c0.996,1.993,2.42,3.985,4.27,5.883
							c302.598,91.093,1102.361-117.993,1703.381,257.573c54.561,34.112,108.457,128.668,117.803,244.906
							c10.343-2.277,19.025-11.292,18.788-23.627c-2.277-128.81-60.349-235.844-119.227-272.613
							C2685.966,1545.506,1825.475,1804.408,1570.701,1666.251z"/>
					</g>
				</g>
			</g>
		</g>
		<g>
			<g>
				<g>
					<g>
						<path style="fill:#371A45;" d="M3418.471,2262.383c-9.294,0-18.44-3.247-25.965-9.556
							c-88.183-73.932-323.865-253.76-607.091-326.656c-169.841-43.714-434.835-66.212-668.635-86.062
							c-132.893-11.283-258.415-21.94-352.816-35.302c-50.963-7.214-89.429-14.715-117.595-22.931
							c-36.149-10.545-55.719-22.22-63.455-37.855c-17.353-35.075-27.834-66.086-28.271-67.389l-13.697-40.775l37.812,20.506
							c41.146,22.314,102.192,35.22,192.116,40.617c83.056,4.985,184.178,3.036,291.237,0.972
							c188.347-3.63,401.824-7.745,621.76,20.457c256.312,32.867,468.344,103.485,648.211,215.89
							c33.041,20.648,64.005,59.353,87.187,108.983c25.054,53.637,38.883,115.076,39.991,177.676
							c0.285,16.105-8.582,30.428-23.141,37.378C3430.438,2261.05,3424.423,2262.382,3418.471,2262.383z M1601.232,1702.927
							c3.483,8.089,7.519,16.971,12.027,26.083c0.47,0.95,5.659,9.595,42.591,20.368c26.598,7.759,63.515,14.926,112.86,21.91
							c93.463,13.229,218.527,23.847,350.935,35.089c235.124,19.962,501.62,42.588,674.209,87.009
							c289.934,74.623,530.452,258.085,620.403,333.499c2.894,2.426,5.803,1.605,7.28,0.901c1.477-0.705,3.944-2.452,3.877-6.228
							c-1.026-57.889-13.756-114.581-36.815-163.949c-20.152-43.144-47.29-77.625-74.455-94.601
							c-396.348-247.689-890.537-238.162-1251.378-231.208C1865.17,1735.609,1704.137,1738.713,1601.232,1702.927z"/>
					</g>
				</g>
			</g>
		</g>
		<g>
			<g>
				<g>
					<g>
						<path style="fill:#FFFFFF;" d="M1366.219,1716.191l-19.832,86.206l-36.295,157.609l-1.992,8.682l-47.824,207.615
							l-80.133,348.144c0,0-56.743,34.255-125.536,49.722c-86.917,19.547-193.05,9.156-228.3-138.062
							c-40.565-169.327,121.883-418.551,235.939-567.335c9.679-12.62,19.025-24.529,27.897-35.583
							c28.135-35.298,51.192-62.104,64.144-76.812c7.306-8.303,11.387-12.762,11.387-12.762L1366.219,1716.191z"/>
					</g>
				</g>
			</g>
		</g>
		<g style="opacity:0.25;">
			<g>
				<g>
					<g>
						<path style="fill:#371A45;" d="M826.316,2436.121c63.168,263.722,353.843,88.319,353.843,88.319l-15.847-111.719
							c0,0-264.354,159.556-343.644-54.403C818.803,2385.568,820.448,2411.683,826.316,2436.121z"/>
					</g>
				</g>
			</g>
		</g>
		<g>
			<g>
				<g>
					<g>
						<path style="fill:#371A45;" d="M992.484,2598.521c-27.615,0-52.787-4.69-75.041-14.002
							c-53.816-22.519-90.014-71.127-107.587-144.474c-14.759-61.599-5.393-137.585,27.838-225.846
							c26.05-69.189,66.834-146.367,121.218-229.387c92.184-140.724,193.313-251.543,194.324-252.646l4.129-4.506l230.875-31.606
							l-193.179,839.161l-6.14,3.706c-1.581,0.954-39.322,23.57-91.103,40.726c-30.701,10.171-60.021,16.301-87.145,18.219
							C1004.501,2598.303,998.433,2598.521,992.484,2598.521z M1174.146,1759.533c-19.599,21.934-106.846,121.532-187.157,244.197
							c-52.957,80.887-92.553,155.778-117.688,222.595c-30.743,81.726-39.667,150.978-26.524,205.832
							c14.909,62.224,44.402,102.969,87.661,121.101c19.453,8.154,40.571,11.43,61.943,11.43
							c74.004,0.001,151.094-39.273,172.965-51.303l178.901-777.138L1174.146,1759.533z"/>
					</g>
				</g>
			</g>
		</g>
		<g>
			<g>
				<g>
					<g>
						<path style="fill:#FFFFFF;" d="M1606.617,2475.484c-33.401,193.429-53.184,346.531-66.422,468.13
							c-34.397,315.597-24.86,418.456-95.647,461.203c-44.977,27.186-121.172,50.765-229.012,50.67
							c-150.73-0.047-273.752-7.022-272.471-115.479c0.997-86.111,149.449-124.873,149.449-124.873
							c-23.105-154.145-25.905-374.523-24.434-526.723c0.996-102.146,3.891-173.597,3.891-173.597L1606.617,2475.484z"/>
					</g>
				</g>
			</g>
		</g>
		<g style="opacity:0.25;">
			<g>
				<g>
					<g>
						<path style="fill:#371A45;" d="M1606.617,2475.484c-15.657,90.666-28.324,172.459-38.714,246.329
							c-0.712,4.934-1.376,9.821-2.04,14.66c-0.712,4.887-1.376,9.679-1.993,14.471c-0.427,3.179-0.901,6.357-1.281,9.489
							c-0.427,3.036-0.854,6.025-1.234,9.014c-0.949,6.927-1.85,13.806-2.752,20.591c-2.135,16.51-4.175,32.594-6.12,48.203
							c-0.902,7.116-1.756,14.091-2.562,20.97c-0.095,0.712-0.19,1.471-0.285,2.183c-1.85,15.135-3.558,29.795-5.171,44.075
							c-0.569,5.029-1.139,10.011-1.708,14.992c-0.664,5.74-1.281,11.434-1.898,17.032c-0.237,2.04-0.427,4.08-0.664,6.12
							c-34.397,315.597-24.86,418.456-95.647,461.203c-44.977,27.186-121.172,50.765-229.012,50.67
							c-138.964-0.047-254.348-5.93-270.526-91.852c49.864,23.532,128.383,25.857,216.344,25.905
							c107.792,0.095,184.035-23.485,229.011-50.67c41.832-25.267,55.599-71.563,66.969-170.402
							c13.381-116.327-53.208-228.016-162.824-269.195c-116.061-43.6-191.272-116.809-226.432-210.86
							c0.996-102.146,3.891-173.597,3.891-173.597l468.557-34.444L1606.617,2475.484z"/>
					</g>
				</g>
			</g>
		</g>
		<g>
			<g>
				<g>
					<g>
						<path style="fill:#371A45;" d="M1215.96,3472.428c-0.143,0-0.27,0-0.413,0c-113.829-0.062-211.944-4.054-259.775-52.483
							c-20.058-20.308-30.03-47.273-29.639-80.146c0.967-81.349,107.716-123.718,147.555-136.705
							c-18.328-132.594-22.573-308.397-22.846-434.657c-0.306-141.603,4.178-253.178,4.224-254.289
							c0.381-9.34,8.261-16.595,17.603-16.223c9.341,0.381,16.604,8.263,16.223,17.603c-0.18,4.412-17.561,444.103,20.368,697.074
							l2.255,15.043l-14.717,3.844c-0.345,0.091-36.019,9.579-71.005,28.902c-29.784,16.449-65.378,43.648-65.808,79.809
							c-0.283,23.825,6.218,42.127,19.874,55.955c38.594,39.077,133.517,42.363,235.707,42.418c0.127,0,0.274,0,0.4,0
							c121.773,0.003,189.994-30.221,219.848-48.25c22.913-13.837,36.175-35.786,45.776-75.757
							c10.257-42.702,16.039-105.605,24.043-192.666c12.599-137.046,31.638-344.151,84.312-649.3
							c1.59-9.212,10.348-15.393,19.559-13.801c9.212,1.59,15.391,10.347,13.801,19.56
							c-52.446,303.826-71.411,510.126-83.961,646.64c-8.133,88.473-14.01,152.396-24.837,197.473
							c-11.791,49.089-30.091,78.047-61.192,96.83C1420.448,3439.151,1345.919,3472.425,1215.96,3472.428z"/>
					</g>
				</g>
			</g>
		</g>
		<g style="opacity:0.35;">
			<g>
				<g>
					<g>
						<path style="fill:#371A45;" d="M1538.342,2874.313c0.806-15.704,1.803-31.93,3.036-48.725
							C1540.192,2842.383,1539.148,2858.609,1538.342,2874.313z"/>
					</g>
				</g>
			</g>
		</g>
		<g style="opacity:0.35;">
			<g>
				<g>
					<g>
						<path style="fill:#371A45;" d="M1542.422,2811.924c0.712-9.156,1.471-18.503,2.325-27.992
							C1543.94,2793.421,1543.133,2802.768,1542.422,2811.924z"/>
					</g>
				</g>
			</g>
		</g>
		<g style="opacity:0.35;">
			<g>
				<g>
					<g>
						<path style="fill:#371A45;" d="M1549.017,2740.047c0.901-8.729,1.897-17.649,2.942-26.664
							C1550.914,2722.398,1549.965,2731.317,1549.017,2740.047z"/>
					</g>
				</g>
			</g>
		</g>
		<g style="opacity:0.35;">
			<g>
				<g>
					<g>
						<path style="fill:#371A45;" d="M1552.432,2709.208c1.186-10.248,2.467-20.591,3.795-31.17
							C1554.9,2688.617,1553.619,2699.007,1552.432,2709.208z"/>
					</g>
				</g>
			</g>
		</g>
		<g style="opacity:0.25;">
			<g>
				<g>
					<g>
						<path style="fill:#371A45;" d="M1544.465,2905.469c1.613-14.281,3.321-28.941,5.171-44.075
							C1547.834,2876.528,1546.078,2891.188,1544.465,2905.469z"/>
					</g>
				</g>
			</g>
		</g>
		<g>
			<g>
				<g>
					<g>
						<path style="fill:#FFFFFF;" d="M2085.753,2480.371c0,0.19,0,0.332-0.048,0.522c-0.285,4.697-0.616,9.347-1.044,13.901
							c-8.967,100.818-43.648,173.503-98.399,232.665c-31.219,33.922-69.079,63.48-112.395,91.282
							c-95.553,61.44-214.4,61.488-335.524,55.557c-284.237-10.722-444.123-126.154-483.739-300.131
							c-6.927-30.507-10.201-62.863-9.773-96.738c0.284-24.956,2.609-50.765,6.927-77.286c2.941-18.219,5.836-36.295,8.682-54.229
							c15.324-96.881,29.321-190.25,44.17-287.131c8.683-56.838,17.697-114.862,27.518-175.495c0.664-4.27,1.376-8.493,2.04-12.763
							c4.934-30.412,9.916-60.776,15.419-90.096c1.518-8.113,3.084-16.131,4.698-24.054c7.686-38.145,16.415-73.87,27.138-104.756
							l1.234-1.661l55.415-75.958c180.666-105.041,686.941-42.415,692.445,37.955c3.558,52.283,12.905,103.712,24.623,154.667
							c2.182,9.299,4.412,18.598,6.737,27.85c0.569,2.515,1.234,5.029,1.85,7.544c5.077,18.646,10.485,38.382,16.225,58.973
							c0.047,0.237,0.142,0.474,0.19,0.712c20.686,74.772,44.645,160.598,64.856,246.898
							c18.835,80.323,34.491,161.025,41.323,233.472c0.143,1.139,0.238,2.278,0.332,3.369
							C2091.209,2395.352,2091.494,2441.277,2085.753,2480.371z"/>
					</g>
				</g>
			</g>
		</g>
		<g style="opacity:0.25;">
			<g>
				<g>
					<g>
						<path style="fill:#371A45;" d="M1051.317,2558.047c33.258,182.944,194.046,305.207,487.012,316.262
							c121.124,5.93,239.972,5.883,335.524-55.557c43.316-27.802,81.177-57.36,112.395-91.282
							c57.312-61.962,92.658-138.726,99.49-247.088c5.077-34.444,5.456-74.155,2.325-117.234
							c-0.617,6.974-1.471,13.758-2.467,20.354c-7.069,108.362,4.366,187.736-54.796,249.698
							c-32.215,33.923-119.228,60.87-163.968,88.672c-98.636,61.44-221.326,61.487-346.341,55.557
							C1275.205,2768.461,1119.684,2686.335,1051.317,2558.047z"/>
					</g>
				</g>
			</g>
		</g>
		<g>
			<g>
				<g>
					<g>
						<path style="fill:#371A45;" d="M1176.849,1648.327c7.848-14.107,16.153-27.881,24.556-41.582
							c4.222-6.836,8.472-13.652,12.773-20.43c4.298-6.78,8.627-13.538,13.002-20.263l1.161-1.785l2.956-1.925
							c14.977-9.754,30.936-17.508,47.2-23.976c16.282-6.466,32.918-11.63,49.684-15.888c33.54-8.542,67.534-13.862,101.557-17.239
							c34.034-3.365,68.131-4.678,102.156-4.575c34.029,0.109,67.994,1.615,101.867,4.228c33.872,2.641,67.658,6.377,101.332,11.422
							c33.671,5.099,67.22,11.532,100.515,20.604c16.644,4.595,33.223,9.812,49.683,16.562c8.23,3.387,16.43,7.17,24.581,11.758
							c4.074,2.302,8.137,4.815,12.17,7.709c4.029,2.903,8.044,6.174,11.923,10.204c0.971,0.975,1.923,2.117,2.868,3.188
							c0.932,1.192,1.869,2.287,2.755,3.609c1.794,2.495,3.461,5.411,4.836,8.648c1.386,3.218,2.421,6.914,2.826,10.802l0.149,1.443
							l0.059,0.766l0.117,1.532l0.234,3.064l0.468,6.128l0.565,6.124l0.572,6.124l0.666,6.12c1.783,16.32,4.089,32.618,6.812,48.882
							c5.448,32.529,12.561,64.924,20.493,97.228c1.001,3.988,1.951,7.968,2.991,11.963l3.275,12.008l6.638,24.18l13.419,48.496
							c17.903,64.711,35.627,129.635,51.523,195.157c7.95,32.76,15.461,65.666,22.271,98.773
							c6.803,33.108,12.916,66.418,17.907,100.001c5.009,33.575,8.81,67.456,10.563,101.696c0.982,17.102,1.135,34.34,0.783,51.628
							l-0.524,12.996l-0.133,3.249l-0.248,3.259l-0.514,6.52c-0.522,8.683-1.802,17.409-2.839,26.118l0.147-1.397
							c-1.372,21.664-3.948,43.35-8.051,64.854c-4.099,21.498-9.738,42.812-17.127,63.594c-7.43,20.768-16.77,40.917-27.73,60.13
							c-5.61,9.527-11.427,18.948-17.852,27.934c-3.109,4.57-6.478,8.938-9.79,13.352l-1.244,1.653l-1.293,1.612l-2.59,3.221
							c-1.744,2.131-3.416,4.329-5.222,6.403c-3.594,4.166-7.115,8.403-10.87,12.41c-1.86,2.019-3.684,4.078-5.577,6.063
							l-5.721,5.91c-0.958,0.979-1.898,1.981-2.873,2.941l-2.937,2.868l-5.878,5.732l-6.015,5.563l-3.009,2.781
							c-1.007,0.921-2.043,1.805-3.063,2.709c-16.338,14.449-33.417,27.907-51.044,40.374c-4.419,3.094-8.81,6.243-13.289,9.227
							l-6.69,4.529l-6.748,4.417l-3.375,2.206l-1.69,1.103l-1.776,1.1l-7.106,4.392c-2.392,1.424-4.825,2.775-7.237,4.164
							c-1.213,0.681-2.407,1.399-3.636,2.048l-3.69,1.945l-3.691,1.943l-1.846,0.969l-1.874,0.91l-7.499,3.634
							c-5.064,2.264-10.102,4.609-15.257,6.635c-5.109,2.158-10.315,4.023-15.498,5.959c-5.231,1.769-10.443,3.616-15.728,5.173
							c-5.256,1.681-10.574,3.078-15.875,4.557c-5.329,1.323-10.648,2.713-16.006,3.85c-5.343,1.249-10.717,2.24-16.082,3.311
							c-5.378,0.933-10.752,1.928-16.141,2.702c-5.384,0.871-10.777,1.523-16.168,2.247c-5.393,0.598-10.787,1.268-16.18,1.736
							c-10.787,1.057-21.569,1.782-32.334,2.313c-43.05,2.108-85.88,0.772-128.088-1.231c-10.551-0.508-21.236-0.897-31.938-1.635
							c-5.35-0.295-10.697-0.728-16.044-1.15l-8.02-0.643l-8.015-0.763c-21.371-2.051-42.708-4.812-63.946-8.417
							c-42.453-7.233-84.612-17.73-125.317-33.123c-2.54-0.97-5.094-1.899-7.622-2.906l-7.567-3.07l-3.783-1.537l-3.75-1.628
							l-7.497-3.264c-9.927-4.524-19.794-9.215-29.434-14.404c-9.696-5.068-19.143-10.654-28.47-16.436
							c-4.611-2.986-9.266-5.897-13.765-9.067c-2.255-1.575-4.561-3.07-6.771-4.714l-6.668-4.873
							c-8.781-6.651-17.436-13.504-25.637-20.917l-3.103-2.745l-3.025-2.836c-2.006-1.902-4.054-3.759-6.023-5.702l-5.87-5.868
							c-0.988-0.969-1.949-1.964-2.888-2.982l-2.843-3.028c-3.844-3.987-7.423-8.225-11.093-12.376
							c-3.514-4.289-7.11-8.511-10.436-12.954c-3.445-4.349-6.617-8.906-9.867-13.403c-3.083-4.614-6.26-9.168-9.136-13.918
							c-3.004-4.67-5.722-9.511-8.511-14.309c-2.62-4.891-5.333-9.736-7.731-14.74c-2.531-4.94-4.766-10.015-7.072-15.058
							c-2.133-5.115-4.366-10.193-6.27-15.394c-2.039-5.154-3.792-10.403-5.599-15.635c-0.862-2.628-1.655-5.277-2.484-7.915
							c-0.404-1.322-0.834-2.637-1.215-3.965l-1.11-3.993c-3.043-10.628-5.473-21.404-7.541-32.225l-1.48-8.129l-1.256-8.158
							c-0.449-2.716-0.765-5.446-1.108-8.173c-0.32-2.728-0.729-5.451-0.972-8.184l-0.795-8.197
							c-0.284-2.732-0.409-5.469-0.62-8.204c-0.443-5.47-0.598-10.943-0.848-16.415c-0.267-10.94-0.361-21.885,0.11-32.787
							c0.123-5.461,0.54-10.894,0.829-16.339c0.179-2.719,0.431-5.429,0.643-8.144c0.227-2.713,0.421-5.431,0.731-8.132l0.854-8.115
							c0.268-2.708,0.668-5.394,0.997-8.091c0.361-2.692,0.656-5.396,1.074-8.078l1.214-8.051c0.392-2.711,0.836-5.314,1.276-7.927
							l1.314-7.846l2.629-15.693c1.783-10.457,3.705-20.888,5.551-31.333l5.868-31.266l6.156-31.192l6.259-31.142l12.568-62.158
							c4.215-20.691,8.567-41.298,13.118-61.846l3.445-15.395l3.522-15.374c2.342-10.245,4.716-20.479,7.149-30.706
							c2.363-10.233,4.877-20.442,7.444-30.642c2.492-10.212,5.205-20.39,7.927-30.572c2.699-10.186,5.556-20.352,8.546-30.508
							c2.95-10.162,6.018-20.315,9.583-30.405l0.021-0.058c1.053-2.981,4.323-4.543,7.303-3.49c2.329,0.823,3.791,3.011,3.817,5.346
							c0.096,10.718-0.305,21.373-0.823,32.018c-0.6,10.632-1.492,21.225-2.455,31.814c-1.047,10.573-2.299,21.115-3.664,31.642
							c-1.416,10.515-3.024,20.995-4.707,31.465c-1.783,10.442-3.601,20.883-5.528,31.297c-1.97,10.396-3.981,20.797-6.114,31.149
							c-4.275,20.708-8.92,41.321-13.672,61.856c-4.738,20.552-9.49,41.051-13.991,61.594c-1.163,5.131-2.225,10.271-3.316,15.41
							l-3.225,15.425l-6.123,30.89l-5.806,30.933c-1.825,10.328-3.726,20.643-5.489,30.981l-2.599,15.515l-1.3,7.757
							c-0.436,2.588-0.878,5.184-1.238,7.693l-1.145,7.593c-0.396,2.53-0.669,5.07-1.01,7.605c-0.308,2.537-0.689,5.069-0.939,7.61
							l-0.802,7.62c-0.295,2.539-0.472,5.082-0.685,7.625c-0.198,2.543-0.438,5.084-0.604,7.627
							c-0.265,5.087-0.663,10.175-0.773,15.261c-0.445,10.176-0.346,20.339-0.105,30.484c0.237,5.064,0.372,10.138,0.786,15.183
							c0.196,2.523,0.306,5.057,0.571,7.572l0.732,7.551c0.221,2.52,0.603,5.016,0.896,7.525c0.315,2.506,0.601,5.017,1.016,7.504
							l1.149,7.479l1.356,7.436c1.892,9.893,4.102,19.719,6.872,29.372l1.006,3.63c0.346,1.206,0.739,2.397,1.105,3.597
							c0.754,2.392,1.47,4.798,2.251,7.18c1.643,4.736,3.223,9.496,5.071,14.151c1.716,4.709,3.743,9.286,5.661,13.909
							c2.088,4.545,4.095,9.13,6.381,13.578c2.154,4.515,4.61,8.87,6.961,13.281c2.52,4.315,4.956,8.681,7.666,12.881
							c2.582,4.28,5.454,8.374,8.222,12.534c2.936,4.046,5.781,8.157,8.893,12.073c2.991,4.008,6.248,7.811,9.41,11.687
							c3.323,3.743,6.542,7.578,10.028,11.181l2.57,2.74c0.847,0.923,1.717,1.824,2.614,2.7l5.318,5.318
							c1.784,1.762,3.649,3.445,5.467,5.173l2.743,2.577l2.824,2.494c7.447,6.742,15.354,12.989,23.38,19.076l6.106,4.462
							c2.02,1.508,4.146,2.877,6.213,4.324c4.122,2.912,8.417,5.587,12.656,8.339c8.602,5.325,17.321,10.493,26.325,15.193
							c8.936,4.815,18.133,9.181,27.397,13.408l7.01,3.05l3.506,1.524l3.547,1.438l7.093,2.88c2.371,0.945,4.776,1.816,7.162,2.729
							c38.251,14.472,78.353,24.494,119.044,31.424c20.357,3.456,40.887,6.115,61.511,8.094l7.735,0.738l7.751,0.62
							c5.168,0.408,10.334,0.829,15.516,1.113c10.345,0.715,20.743,1.092,31.263,1.599l15.777,0.712l15.688,0.611
							c10.449,0.364,20.88,0.636,31.294,0.806c20.82,0.292,41.573,0.142,62.179-0.888c41.173-2.032,81.965-7.411,120.502-19.261
							c4.836-1.419,9.566-3.107,14.328-4.709c4.695-1.762,9.425-3.446,14.032-5.399c4.666-1.827,9.191-3.948,13.758-5.979
							l6.738-3.267l1.685-0.815l1.654-0.872l3.308-1.743l3.31-1.741c1.103-0.581,2.168-1.227,3.254-1.836
							c2.157-1.245,4.338-2.451,6.478-3.724l6.351-3.928l1.589-0.98l1.622-1.059l3.246-2.123l6.491-4.247l6.411-4.341
							c4.301-2.863,8.48-5.865,12.702-8.819c33.546-23.843,64.721-50.587,90.666-81.513c1.661-1.901,3.177-3.91,4.775-5.858
							l2.369-2.943l1.184-1.472l1.133-1.509c3.015-4.026,6.097-8.006,8.917-12.164c5.854-8.174,11.118-16.729,16.218-25.369
							c9.934-17.435,18.416-35.699,25.199-54.657c13.512-37.961,20.697-78.307,23.262-119.169l0.018-0.29l0.129-1.107
							c0.924-7.951,2.113-15.833,2.587-23.907l0.478-6.024l0.232-3.013l0.121-3.037l0.49-12.148
							c0.323-16.251,0.194-32.59-0.752-48.989c-1.677-32.784-5.348-65.674-10.243-98.461c-4.874-32.795-10.874-65.515-17.577-98.136
							c-6.71-32.623-14.132-65.151-22.008-97.603c-15.748-64.913-33.372-129.485-51.254-194.121l-13.425-48.518l-6.686-24.353
							l-3.344-12.27c-1.074-4.122-2.075-8.301-3.115-12.449c-8.067-32.859-15.367-66.055-21.007-99.717
							c-2.818-16.827-5.216-33.765-7.077-50.799l-0.694-6.388l-0.599-6.404l-0.59-6.405l-0.491-6.418l-0.245-3.209l-0.122-1.604
							l-0.061-0.802c-0.016-0.057-0.026-0.078-0.033-0.119c-0.022-0.283-0.089-0.688-0.377-1.313
							c-0.273-0.614-0.648-1.394-1.319-2.293c-0.26-0.437-0.717-0.918-1.056-1.394c-0.459-0.485-0.827-0.979-1.345-1.482
							c-1.939-2.016-4.42-4.106-7.198-6.099c-2.781-1.999-5.857-3.916-9.085-5.738c-6.47-3.645-13.521-6.93-20.803-9.921
							c-14.59-5.992-30.069-10.897-45.76-15.223c-31.464-8.579-63.931-14.835-96.595-19.774
							c-32.69-4.911-65.678-8.338-98.741-10.452c-16.53-1.094-33.085-1.807-49.639-2.245c-16.554-0.437-33.109-0.58-49.648-0.389
							c-33.075,0.363-66.095,1.868-98.875,4.791c-32.765,2.946-65.344,7.281-97.143,14.121
							c-15.885,3.451-31.573,7.482-46.872,12.364c-7.651,2.433-15.197,5.098-22.603,8.015c-7.386,2.952-14.644,6.136-21.677,9.675
							l4.117-3.71c-5.071,6.217-10.187,12.4-15.334,18.561c-5.144,6.163-10.34,12.288-15.563,18.394
							c-10.487,12.181-21.073,24.289-32.116,36.065c-2.148,2.29-5.746,2.406-8.036,0.258
							C1175.987,1653.417,1175.612,1650.552,1176.849,1648.327z"/>
					</g>
				</g>
			</g>
		</g>
		<g>
			<g>
				<g>
					<g>
						<path style="fill:#371A45;" d="M1330.285,3065.174c-30.709,0-61.029-2.262-90.648-6.778
							c-60.935-9.291-119.032-28.194-172.677-56.185c-6.121-3.193-8.493-10.744-5.3-16.864c3.194-6.121,10.744-8.494,16.865-5.3
							c115.703,60.371,231.468,64.594,308.209,57.507c83.602-7.721,140.449-30.159,141.013-30.385
							c6.407-2.563,13.682,0.549,16.249,6.955c2.567,6.405-0.538,13.677-6.942,16.248c-2.415,0.969-60.141,23.838-147.133,31.993
							C1369.939,3064.238,1350.031,3065.174,1330.285,3065.174z"/>
					</g>
				</g>
			</g>
		</g>
		<g>
			<g>
				<g>
					<g>
						<path style="fill:#FFFFFF;" d="M1620.281,2696.414c-1.024-14.385,16.21,355.532,49.789,589.246
							c24.098,167.727,177.717,185.149,423.378,167.754c90.419-6.403,159.684-33.36,152.696-104.846
							c-9.386-96.02-149.916-132.381-149.916-132.381s-4.177-291.274-31.772-701.201"/>
					</g>
				</g>
			</g>
		</g>
		<g style="opacity:0.25;">
			<g>
				<g>
					<g>
						<path style="fill:#371A45;" d="M1620.224,2696.103c0,6.376,17.192,362.316,49.862,589.555
							c24.096,167.746,177.684,185.16,423.346,167.746c90.447-6.375,159.7-33.329,152.709-104.824
							c-0.176-1.671-0.352-3.298-0.615-4.925c-27.833,18.204-69.473,27.261-117.005,30.603
							c-245.662,17.413-399.295,0-423.39-167.746c-24.975-173.683-65.56-407.518-84.379-510.276l-0.484,0.176
							C1620.268,2696.279,1620.268,2696.191,1620.224,2696.103z"/>
					</g>
				</g>
			</g>
		</g>
		<g>
			<g>
				<g>
					<g>
						<path style="fill:#371A45;" d="M1614.653,2696.815c-0.022-0.005-0.092-0.398-0.065,0.042
							c22.745-1.309,6.352-0.553,11.45-0.648l0.176,0.667c0.125,0.471,0.227,0.957,0.343,1.441l0.687,2.924
							c0.474,1.953,0.88,3.913,1.316,5.872c0.836,3.92,1.636,7.843,2.392,11.768c1.528,7.85,2.865,15.709,4.129,23.572
							c2.492,15.727,4.587,31.471,6.308,47.235c0.869,7.881,1.65,15.768,2.352,23.658l1.083,11.834l1.026,11.837
							c1.344,15.783,2.613,31.57,3.723,47.366c2.251,31.59,4.008,63.214,6.093,94.812c1.079,15.796,2.167,31.591,3.44,47.369
							c1.276,15.778,2.671,31.543,4.107,47.302c5.775,63.023,12.295,125.97,20.701,188.482l1.609,11.711l0.825,5.85l0.418,2.924
							l0.435,2.783c1.086,7.383,2.569,14.642,4.343,21.777c3.518,14.283,8.574,27.949,15.28,40.54
							c6.704,12.591,15.143,24.048,25.229,33.957c10.077,9.919,21.755,18.302,34.489,25.224
							c12.733,6.931,26.481,12.45,40.781,16.796c14.283,4.397,29.111,7.639,44.158,10.16c15.064,2.483,30.362,4.24,45.782,5.421
							c15.415,1.218,30.956,1.851,46.542,2.16c31.184,0.578,62.569-0.277,93.994-1.811c15.715-0.776,31.445-1.73,47.183-2.807
							c7.963-0.528,15.488-1.108,23.138-1.875c7.601-0.813,15.163-1.761,22.636-2.957c7.461-1.224,14.842-2.656,22.086-4.365
							c7.229-1.739,14.301-3.787,21.124-6.187c13.611-4.792,26.326-11.157,36.002-19.601c9.712-8.429,16.011-18.718,18.438-30.729
							c1.234-6,1.523-12.423,1.02-19.043c-0.407-6.617-1.733-13.109-3.708-19.417c-4.013-12.61-11.096-24.412-20.274-34.991
							c-9.167-10.6-20.354-19.965-32.515-28.218c-12.182-8.252-25.375-15.413-39.068-21.627c-6.85-3.104-13.834-5.969-20.896-8.588
							c-3.53-1.311-7.083-2.55-10.635-3.721c-1.776-0.582-3.552-1.148-5.316-1.685l-2.627-0.781l-2.4-0.672l-12.473-3.491
							l-0.212-12.654c-0.487-29.066-1.223-58.322-2.026-87.496l-1.307-43.793l-1.453-43.795
							c-2.04-58.393-4.407-116.782-7.098-175.157l-2.097-43.778c-0.695-14.593-1.412-29.185-2.195-43.774
							c-1.576-29.177-2.817-58.373-5.144-87.508l-1.711-21.852c-0.551-7.285-1.182-14.565-1.656-21.854
							c-1.016-14.574-1.637-29.171-1.913-43.792c-0.263-14.621-0.272-29.259,0.613-43.959c0.444-7.35,1.055-14.712,1.918-22.093
							c0.882-7.382,1.921-14.775,3.594-22.214l0.006-0.025c0.712-3.167,3.857-5.157,7.025-4.445
							c2.008,0.452,3.556,1.918,4.229,3.712c2.622,7.155,4.61,14.355,6.441,21.567c1.812,7.213,3.371,14.445,4.764,21.689
							c2.748,14.49,4.756,29.032,6.198,43.611c1.492,14.575,2.638,29.174,3.39,43.796c0.791,14.62,1.181,29.262,1.705,43.896
							c0.306,7.314,0.543,14.632,0.905,21.943c0.333,7.313,0.761,14.62,1.155,21.929l2.292,43.859
							c0.785,14.618,1.503,29.24,2.199,43.864l2.101,43.869c2.697,58.497,5.069,117.011,7.114,175.544l1.457,43.905l1.311,43.915
							c0.806,29.302,1.543,58.528,2.035,87.952l-12.685-16.144l1.753,0.477l1.577,0.449l3.075,0.914
							c2.03,0.618,4.032,1.256,6.025,1.909c3.981,1.312,7.919,2.686,11.825,4.136c7.812,2.897,15.514,6.056,23.114,9.5
							c15.188,6.898,29.997,14.899,44.091,24.442c14.061,9.554,27.481,20.658,39.101,34.068c5.788,6.706,11.146,13.95,15.715,21.814
							c4.614,7.822,8.404,16.274,11.232,25.075c2.778,8.82,4.618,17.988,5.213,27.209c0.69,9.182,0.343,18.761-1.616,28.308
							c-1.933,9.534-5.549,18.971-10.667,27.417c-5.097,8.469-11.604,15.887-18.734,22.081c-7.141,6.213-14.879,11.261-22.78,15.477
							c-7.913,4.215-16.008,7.614-24.145,10.487c-8.14,2.865-16.329,5.221-24.523,7.192c-8.196,1.937-16.396,3.524-24.59,4.866
							c-8.193,1.312-16.375,2.336-24.548,3.209c-8.135,0.819-16.429,1.454-24.294,1.974c-15.915,1.089-31.856,2.056-47.83,2.845
							c-31.949,1.558-64.033,2.442-96.299,1.845c-16.133-0.32-32.308-0.976-48.524-2.256c-16.212-1.243-32.466-3.099-48.708-5.777
							c-16.236-2.721-32.477-6.253-48.526-11.188c-16.043-4.883-31.913-11.195-47.055-19.435
							c-15.128-8.219-29.504-18.474-42.048-30.831c-12.562-12.328-23.144-26.722-31.339-42.131
							c-8.215-15.416-14.186-31.761-18.26-48.271c-2.055-8.257-3.739-16.562-4.966-24.875l-0.481-3.095l-0.424-2.965l-0.836-5.931
							l-1.63-11.863c-8.507-63.271-15.059-126.59-20.866-189.942l-8.515-95.014c-2.892-31.661-5.774-63.323-7.869-95.039
							c-1.063-15.857-1.893-31.728-2.577-47.607l-0.481-11.911l-0.397-11.916c-0.275-7.943-0.455-15.892-0.527-23.846
							c-0.16-15.908,0.126-31.84,0.901-47.794c0.406-7.978,0.907-15.96,1.633-23.954c0.355-3.996,0.763-7.995,1.222-11.999
							c0.248-2.003,0.47-4.004,0.767-6.013l0.432-3.02c0.076-0.506,0.139-1.012,0.229-1.531l0.13-0.819
							c5.101-0.277-11.325,0.017,11.466-1.244c0.056,0.687,0,0.542-0.002,0.783c-0.017,1.567-1.301,2.824-2.868,2.808
							c-0.22-0.002-0.435-0.03-0.64-0.08L1614.653,2696.815z"/>
					</g>
				</g>
			</g>
		</g>
		<g>
			<g>
				<g>
					<g>
						<path style="fill:#371A45;" d="M1816.346,3041.42c-7.49,0-14.898-0.145-22.235-0.436
							c-58.597-2.323-112.314-13.996-159.658-34.695c-6.325-2.765-9.211-10.135-6.446-16.46c2.765-6.325,10.135-9.212,16.461-6.446
							c101.051,44.178,215.043,35.846,292.876,21.077c84.804-16.092,145.901-42.969,146.508-43.239
							c6.31-2.804,13.696,0.042,16.497,6.352s-0.042,13.695-6.352,16.497c-2.587,1.148-64.374,28.325-151.992,44.951
							C1898.566,3037.264,1856.399,3041.42,1816.346,3041.42z"/>
					</g>
				</g>
			</g>
		</g>
		<g>
			<g>
				<g>
					<g>
						<path style="fill:#371A45;" d="M1087.218,3199.037c0.563-0.16,0.894-0.236,1.285-0.334l1.109-0.263l2.133-0.474
							c1.408-0.309,2.783-0.573,4.162-0.844c2.749-0.526,5.474-0.987,8.193-1.421c5.433-0.847,10.842-1.514,16.242-2.092
							c10.801-1.088,21.574-1.686,32.316-1.826c21.48-0.257,42.84,1.198,63.828,4.452c5.253,0.751,10.466,1.749,15.67,2.699
							c2.598,0.508,5.183,1.085,7.77,1.625l3.875,0.825l3.852,0.933c10.29,2.362,20.401,5.381,30.404,8.551
							c19.948,6.597,39.258,14.723,57.697,24.287c-19.572-6.98-39.591-12.336-59.783-16.084
							c-10.126-1.745-20.245-3.321-30.427-4.234l-3.806-0.39l-3.818-0.281c-2.545-0.177-5.082-0.391-7.624-0.537
							c-5.093-0.225-10.165-0.498-15.249-0.527c-20.307-0.365-40.543,1.036-60.384,3.994c-9.918,1.49-19.739,3.399-29.381,5.723
							c-4.81,1.193-9.585,2.457-14.269,3.86c-2.335,0.71-4.654,1.437-6.923,2.203c-1.125,0.388-2.26,0.771-3.344,1.172
							c-0.557,0.197-1.084,0.397-1.602,0.596l-0.753,0.294c-0.228,0.093-0.517,0.205-0.57,0.245
							c-7.703,5.847-18.688,4.343-24.535-3.36c-5.847-7.703-4.343-18.688,3.36-24.535c1.77-1.344,3.714-2.299,5.728-2.881
							L1087.218,3199.037z"/>
					</g>
				</g>
			</g>
		</g>
		<g>
			<g>
				<g>
					<g>
						<path style="fill:#371A45;" d="M2091.131,3232.33c-0.08-0.048-0.385-0.161-0.633-0.256l-0.809-0.3l-1.709-0.606
							c-1.155-0.407-2.358-0.795-3.553-1.188c-2.406-0.777-4.861-1.512-7.332-2.23c-4.954-1.419-9.995-2.698-15.07-3.906
							c-10.172-2.351-20.515-4.285-30.952-5.799c-20.878-3.013-42.134-4.45-63.462-4.136c-21.339,0.216-42.737,2.278-63.988,5.861
							c-21.217,3.735-42.267,9.098-62.878,16.132c19.521-9.636,39.902-17.777,60.895-24.36c21.025-6.431,42.642-11.41,64.635-14.507
							c21.985-3.195,44.318-4.608,66.762-4.304c11.225,0.161,22.476,0.776,33.755,1.877c5.639,0.585,11.287,1.258,16.957,2.11
							c2.837,0.436,5.68,0.898,8.547,1.425c1.438,0.272,2.872,0.536,4.337,0.844l2.219,0.473l1.15,0.261
							c0.404,0.097,0.75,0.173,1.319,0.327l3.207,0.871c9.188,2.495,14.614,11.966,12.119,21.154
							c-2.495,9.188-11.966,14.614-21.155,12.119C2093.95,3233.771,2092.442,3233.108,2091.131,3232.33z"/>
					</g>
				</g>
			</g>
		</g>
		<g style="opacity:0.7;">
			<g>
				<g>
					<g>
						
							<ellipse transform="matrix(0.9315 -0.3636 0.3636 0.9315 -446.9995 540.6998)" style="fill:#FFFFFF;" cx="1212.602" cy="1457.583" rx="47.366" ry="55.195"/>
					</g>
				</g>
			</g>
		</g>
		<g>
			<g>
				<g>
					<g>
						
							<ellipse transform="matrix(0.7071 -0.7071 0.7071 0.7071 -1349.564 1492.354)" style="fill:#FFFFFF;" cx="1126.649" cy="2375.245" rx="71.05" ry="71.05"/>
					</g>
				</g>
			</g>
		</g>
		<g style="opacity:0.35;">
			<g>
				<g>
					<g>
						<path style="fill:#371A45;" d="M1055.613,2375.235c0,39.239,31.787,71.083,71.026,71.083c39.24,0,71.083-31.844,71.083-71.083
							c0-10.84-2.428-21.172-6.832-30.375c-11.405,23.995-35.908,40.651-64.251,40.651s-52.846-16.655-64.195-40.651
							C1058.041,2354.062,1055.613,2364.394,1055.613,2375.235z"/>
					</g>
				</g>
			</g>
		</g>
		<g>
			<g>
				<g>
					<g>
						<path style="fill:#371A45;" d="M1126.649,2463.222c-48.511,0-87.977-39.466-87.977-87.977s39.466-87.977,87.977-87.977
							s87.977,39.466,87.977,87.977S1175.16,2463.222,1126.649,2463.222z M1126.649,2321.121c-29.844,0-54.123,24.28-54.123,54.124
							s24.28,54.124,54.123,54.124s54.123-24.28,54.123-54.124S1156.492,2321.121,1126.649,2321.121z"/>
					</g>
				</g>
			</g>
		</g>
		<g style="opacity:0.25;">
			<g>
				<g>
					<g>
						<path style="fill:#371A45;" d="M2085.753,2480.371c0,0.19,0,0.332-0.048,0.522c-57.692,21.35-171.557,43.744-383.489,25.81
							l-2.23,37.196c-2.609,44.407-41.134,78.567-85.494,75.91l-374.95-22.299c-44.408-2.657-78.615-41.086-75.958-85.542
							l2.467-41.466l9.441-158.036c2.609-44.455,41.087-78.615,85.542-75.958l374.902,22.299c5.504,0.332,10.865,1.186,16.037,2.609
							c36.294,9.726,62.198,44.028,59.874,82.932l-2.42,40.612l0.047-0.047c0,0,247.516,12.762,376.848-42.842
							c0.143,1.139,0.238,2.278,0.332,3.369C2091.209,2395.352,2091.494,2441.277,2085.753,2480.371z"/>
					</g>
				</g>
			</g>
		</g>
		<g>
			<g>
				<g>
					<g>
						<path style="fill:#FFFFFF;" d="M1200.714,2551.502l374.949,22.301c44.377,2.654,82.883-31.504,85.536-75.938l11.857-199.529
							c2.315-38.9-23.6-73.228-59.904-82.939c-5.138-1.412-10.501-2.258-16.034-2.597l-374.893-22.301
							c-44.434-2.654-82.939,31.504-85.536,75.938l-9.429,158.031l-2.484,41.498
							C1122.122,2510.399,1156.337,2548.848,1200.714,2551.502z"/>
					</g>
				</g>
			</g>
		</g>
		<g style="opacity:0.25;">
			<g>
				<g>
					<g>
						<path style="fill:#371A45;" d="M1200.714,2551.502l374.949,22.301c44.377,2.654,82.883-31.504,85.536-75.938l11.857-199.529
							c2.315-38.9-23.6-73.228-59.904-82.939c-22.132,12.873-36.191,21.116-36.191,21.116
							c-27.782,159.076-78.14,236.228-277.217,227.646c-85.932-3.727-139.343-20.043-172.485-39.691l-2.484,41.498
							C1122.122,2510.399,1156.337,2548.848,1200.714,2551.502z"/>
					</g>
				</g>
			</g>
		</g>
		<g>
			<g>
				<g>
					<g>
						<path style="fill:#371A45;" d="M1580.508,2590.894c-1.947,0-3.904-0.058-5.872-0.175h0l-374.92-22.309
							c-53.836-3.204-95.028-49.608-91.825-103.443l11.874-199.558c1.547-25.99,13.184-49.877,32.769-67.263
							c19.585-17.386,44.686-26.107,70.674-24.562l374.92,22.309c25.99,1.546,49.877,13.184,67.263,32.769
							c17.385,19.585,26.108,44.684,24.562,70.674l-11.874,199.558C1674.993,2550.761,1631.806,2590.894,1580.508,2590.894z
							 M1576.646,2556.925c16.961,1.01,33.366-4.704,46.189-16.086c12.822-11.382,20.44-26.993,21.449-43.956l11.874-199.558
							c1.009-16.963-4.703-33.367-16.085-46.189c-11.382-12.822-26.993-20.44-43.956-21.449l-374.921-22.309
							c-16.965-1.008-33.367,4.703-46.189,16.085c-12.822,11.382-20.44,26.993-21.449,43.956l-11.874,199.558
							c-2.095,35.201,24.84,65.544,60.041,67.639L1576.646,2556.925L1576.646,2556.925z"/>
					</g>
				</g>
			</g>
		</g>
		<g>
			<g>
				<g>
					<g>
						<path style="fill:#FFFFFF;" d="M1185.752,2549.131c4.799,1.299,9.767,2.088,14.962,2.371l374.949,22.301
							c32.521,1.92,61.88-15.865,76.277-43.078c5.251-9.881,8.525-21.004,9.203-32.86l5.307-88.641l1.75-29.247l4.856-81.641
							c2.653-44.433-31.561-82.882-75.938-85.536l-81.02-4.8c36.925,9.26,63.404,43.869,61.089,83.166l-6.38,107.781l-5.476,91.804
							c-2.654,44.377-41.159,78.591-85.537,75.938L1185.752,2549.131z"/>
					</g>
				</g>
			</g>
		</g>
		<g style="opacity:0.25;">
			<g>
				<g>
					<g>
						<path style="fill:#371A45;" d="M1185.752,2549.131c4.799,1.299,9.767,2.088,14.962,2.371l374.949,22.301
							c44.377,2.654,82.883-31.504,85.48-75.938l7.057-117.888c-10.671,20.269-29.133,44.829-56.403,45.902
							c-14.962,0.621-28.964-10.953-40.99-26.931l-5.476,91.804c-2.654,44.377-41.159,78.591-85.537,75.938L1185.752,2549.131z"/>
					</g>
				</g>
			</g>
		</g>
		<g>
			<g>
				<g>
					<g>
						<path style="fill:#371A45;" d="M1580.578,2590.893c-1.969,0-3.945-0.059-5.927-0.178l-374.944-22.319
							c-6.098-0.328-12.279-1.297-18.278-2.875l5.311-33.268l294.075,17.524c16.946,1.015,33.336-4.691,46.158-16.075
							c12.827-11.388,20.441-26.999,21.439-43.957l11.873-199.563c1.823-30.626-18.485-58.296-48.29-65.793l5.132-33.313
							l80.984,4.803c53.87,3.235,95.057,49.65,91.825,103.467l-11.871,199.531c-1.53,25.993-13.163,49.889-32.758,67.285
							C1627.212,2582.228,1604.421,2590.893,1580.578,2590.893z M1553.191,2555.524l23.48,1.397
							c16.948,1.018,33.338-4.692,46.159-16.075c12.827-11.388,20.44-26.999,21.438-43.957l0.001-0.011l11.872-199.552
							c2.113-35.192-24.824-65.538-60.048-67.653l-20.922-1.241c13.192,17.899,20.306,40.259,18.907,63.761l-11.872,199.552
							C1580.778,2516.028,1570.522,2538.488,1553.191,2555.524z"/>
					</g>
				</g>
			</g>
		</g>
		<g>
			<g>
				<g>
					<g>
						<path style="fill:#22A7F0;" d="M1423.32,2383.784c-0.397,7.381,6.779,67.524,6.779,67.524s18.876,1.014,42.053,2.26
							c28.957,1.556,54.042-27.164,56.029-64.149c1.987-36.984-19.875-68.227-48.832-69.783c-19.542-1.05-42.053-2.26-42.053-2.26
							S1423.966,2371.76,1423.32,2383.784z"/>
					</g>
				</g>
			</g>
		</g>
		<g style="opacity:0.35;">
			<g>
				<g>
					<g>
						<path style="fill:#371A45;" d="M1423.32,2383.784c-0.397,7.381,6.779,67.524,6.779,67.524s18.876,1.014,42.053,2.26
							c28.957,1.556,54.042-27.164,56.029-64.149c1.987-36.984-19.875-68.227-48.832-69.783c-19.542-1.05-42.053-2.26-42.053-2.26
							S1423.966,2371.76,1423.32,2383.784z"/>
					</g>
				</g>
			</g>
		</g>
		<g>
			<g>
				<g>
					<g>
						<path style="fill:#371A45;" d="M1474.445,2463.629c-0.941,0-1.883-0.025-2.829-0.076l-50.45-2.71l-0.996-8.35
							c-1.707-14.31-7.246-61.595-6.835-69.245c0.677-12.596,12.862-62.593,14.249-68.252l1.973-8.049l50.329,2.704
							c17.141,0.921,32.652,10.104,43.677,25.858c10.498,15.002,15.685,34.339,14.604,54.447s-8.309,38.777-20.355,52.569
							C1505.861,2456.208,1490.555,2463.629,1474.445,2463.629z M1439.044,2441.774l33.645,1.808
							c10.866,0.58,21.544-4.464,30.06-14.214c9.119-10.441,14.605-24.819,15.447-40.485s-3.072-30.549-11.02-41.907
							c-7.422-10.607-17.495-16.77-28.363-17.354l-33.752-1.814c-4.98,20.837-11.368,49.386-11.755,56.504
							C1433.151,2388.373,1435.961,2415.33,1439.044,2441.774z M1423.32,2383.785h0.01H1423.32z"/>
					</g>
				</g>
			</g>
		</g>
		<g>
			<g>
				<g>
					<g>
						
							<ellipse transform="matrix(0.0537 -0.9986 0.9986 0.0537 -1024.1406 3688.032)" style="fill:#22A7F0;" cx="1433.698" cy="2384.342" rx="67.062" ry="52.506"/>
					</g>
				</g>
			</g>
		</g>
		<g style="opacity:0.35;">
			<g>
				<g>
					<g>
						<path style="fill:#371A45;" d="M1430.119,2451.298c28.924,1.562,54.003-27.162,56.006-64.138
							c0.441-8.493-0.32-16.706-2.203-24.277c-6.971,29.365-29.005,50.277-53.802,48.955c-22.314-1.202-40.422-20.031-46.632-45.51
							c-1.162,4.848-1.923,9.935-2.203,15.183C1379.281,2418.528,1401.155,2449.736,1430.119,2451.298z"/>
					</g>
				</g>
			</g>
		</g>
		<g style="opacity:0.7;">
			<g>
				<g>
					<g>
						<path style="fill:#FFFFFF;" d="M1382.126,2398.978c4.887-32.97,28.363-57.448,55.164-56.006
							c24.237,1.282,43.547,23.436,47.994,52.36c0.401-2.644,0.681-5.408,0.841-8.173c2.003-36.977-19.87-68.224-48.835-69.787
							c-28.964-1.563-54.043,27.161-56.006,64.138C1380.964,2387.52,1381.244,2393.369,1382.126,2398.978z"/>
					</g>
				</g>
			</g>
		</g>
		<g>
			<g>
				<g>
					<g>
						<path style="fill:#371A45;" d="M1432.391,2461.37c-0.941,0-1.883-0.025-2.829-0.076c-34.417-1.85-60.561-37.875-58.281-80.306
							c1.08-20.108,8.309-38.777,20.355-52.569c12.649-14.482,29.055-21.948,46.196-21.029
							c17.141,0.921,32.653,10.104,43.677,25.858c10.498,15.002,15.685,34.339,14.604,54.447
							c-1.081,20.108-8.309,38.777-20.355,52.569C1463.808,2453.948,1448.502,2461.37,1432.391,2461.37z M1435.064,2327.316
							c-10.278,0-20.291,5.017-28.364,14.26c-9.12,10.441-14.605,24.819-15.447,40.485l0,0
							c-1.688,31.419,15.979,58.003,39.383,59.261c10.865,0.58,21.543-4.464,30.06-14.214c9.119-10.441,14.605-24.819,15.447-40.485
							s-3.072-30.549-11.02-41.907c-7.422-10.607-17.495-16.77-28.363-17.354
							C1436.194,2327.332,1435.628,2327.316,1435.064,2327.316z M1381.267,2381.525h0.01H1381.267z"/>
					</g>
				</g>
			</g>
		</g>
		<g>
			<g>
				<g>
					<g>
						<path style="fill:#371A45;" d="M1317.366,2569.689c-0.154,0-0.308-0.002-0.462-0.008c-7.007-0.251-12.484-6.134-12.233-13.141
							l3.467-96.848c0.846-23.615-7.373-46.313-23.141-63.912l-4.899-5.469c-20.718-23.123-31.447-54.153-29.435-85.136
							l7.304-112.503c0.454-6.997,6.496-12.3,13.491-11.846c6.997,0.454,12.3,6.494,11.846,13.491L1276,2306.821
							c-1.572,24.218,6.814,48.474,23.008,66.548l4.9,5.469c20.173,22.515,30.687,51.552,29.605,81.763l-3.468,96.848
							C1329.799,2564.3,1324.167,2569.689,1317.366,2569.689z"/>
					</g>
				</g>
			</g>
		</g>
		<g>
			<g>
				<g>
					<g>
						<path style="fill:#FFFFFF;" d="M2133.751,2354.061c-3.531,34.622-34.03,52.031-34.03,52.031s-78.247,84.892-436.341,54.585
							c0,0-59.031-65.088,7.266-121.795c0,0,293.923,15.179,408.536-59.497C2105.577,2262.188,2137.827,2314.094,2133.751,2354.061z
							"/>
					</g>
				</g>
			</g>
		</g>
		<g style="opacity:0.25;">
			<g>
				<g>
					<g>
						<path style="fill:#371A45;" d="M2133.767,2354.075c-3.558,34.587-34.065,51.999-34.065,51.999s-78.235,84.925-436.342,54.608
							c0,0-47.871-52.805-8.919-104.708c0.023,0.315,0.048,0.629,0.074,0.943c2.637,31.058,28.349,55.181,59.449,57.264
							c327.813,21.95,400.825-57.305,400.825-57.305s9.821-5.598,18.978-16.843
							C2134.241,2344.776,2134.241,2349.521,2133.767,2354.075z"/>
					</g>
				</g>
			</g>
		</g>
		<g>
			<g>
				<g>
					<g>
						<path style="fill:#371A45;" d="M1808.431,2484.208c-45.092,0-93.951-2.219-146.478-6.664l-6.637-0.562l-4.474-4.934
							c-1.273-1.403-31.138-34.86-28.422-77.717c1.622-25.59,14.146-48.574,37.224-68.313l5.13-4.388l6.744,0.347
							c2.885,0.149,289.756,14.028,398.425-56.774c12.623-8.224,27.716-8.154,41.408,0.193
							c24.729,15.076,42.698,56.466,39.239,90.383c-3.816,37.42-32.247,58.429-40.368,63.71
							c-6.892,6.387-31.465,25.745-89.958,41.599C1963.453,2476.485,1892.52,2484.206,1808.431,2484.208z M1672.128,2444.417
							c178.067,14.431,282.676-0.663,339.279-16.005c57.051-15.463,75.705-33.616,75.867-33.792l1.861-2.019l2.144-1.182
							c1.229-0.75,23.121-14.466,25.631-39.075l16.84,1.717l-16.84-1.717c2.335-22.899-10.772-50.477-23.182-58.042
							c-3.323-2.025-4.331-1.369-5.305-0.734c-50.008,32.583-135.945,52.926-255.423,60.463
							c-73.089,4.611-135.538,2.869-156.136,2.066c-12.737,12.346-19.675,25.829-20.643,40.152
							C1654.808,2417.136,1665.995,2435.848,1672.128,2444.417z"/>
					</g>
				</g>
			</g>
		</g>
		<g style="opacity:0.3;">
			<g>
				<g>
					<g>
						<path style="fill:none;stroke:#FFFFFF;stroke-width:32.1483;stroke-linecap:round;stroke-miterlimit:10;" d="
							M2040.328,2340.822"/>
					</g>
				</g>
			</g>
		</g>
		<g>
			<g>
				<g>
					<g>
						<path style="fill:#FFFFFF;" d="M986.195,2197.722c26.265-28.476,73.203-83.789,153.747,9.405
							c64.172,74.25,47.324,257.097-15.881,301.88c-33.887,24.01-69.655-17.148-75.288,33.196c0,0-74.126-49.876-91.324-120.827
							C928.704,2302.788,968.333,2217.087,986.195,2197.722z"/>
					</g>
				</g>
			</g>
		</g>
		<g style="opacity:0.25;">
			<g>
				<g>
					<g>
						<path style="fill:#371A45;" d="M1124.064,2509.027c-33.875,24.007-69.648-17.175-75.294,33.164
							c0,0-74.107-49.864-91.33-120.792c-12.192-50.338-12.098-94.746-6.499-130.708c1.565,10.865,5.049,21.814,6.499,33.543
							c1.047,8.468,2.368,16.478,3.909,24.047c11.125,54.653,65.067,89.619,119.803,78.912c15.136-2.961,30.537-6.513,42.912-15.283
							c26.995-19.167,45.546-63.48,52.9-113.818C1189.585,2379.837,1168.045,2477.856,1124.064,2509.027z"/>
					</g>
				</g>
			</g>
		</g>
		<g>
			<g>
				<g>
					<g>
						<path style="fill:#371A45;" d="M1048.775,2559.129c-3.314,0-6.611-0.973-9.451-2.883
							c-3.249-2.187-79.792-54.424-98.325-130.883c-16.347-67.437-10.753-122.423-3.182-156.676
							c9.329-42.207,25.189-70.79,35.936-82.441c0,0,0,0,0,0l1.82-1.978c15.979-17.385,42.717-46.498,81.56-45.887
							c31.208,0.477,62.484,19.344,95.616,57.679c42.391,49.047,49.554,131.92,42.124,193.121
							c-3.489,28.738-10.415,55.75-20.03,78.119c-10.857,25.259-24.65,43.938-40.996,55.52
							c-19.556,13.855-39.794,11.753-53.186,10.363c-4.053-0.421-10.071-1.045-12.21-0.51c-0.495,0.769-1.987,3.651-2.855,11.413
							c-0.658,5.881-4.34,10.992-9.711,13.479C1053.619,2558.612,1051.192,2559.129,1048.775,2559.129z M998.637,2209.198
							c-6.873,7.452-19.939,31.39-27.765,66.795c-6.799,30.759-11.792,80.258,3.027,141.394
							c10.387,42.851,44.816,78.083,66.343,96.623c2.915-4.424,6.883-8.457,12.307-11.289c10.377-5.417,21.657-4.246,31.609-3.212
							c11.246,1.169,20.958,2.177,30.117-4.313c22.691-16.078,40.697-58.264,46.99-110.096c8.24-67.867-5.157-133.38-34.13-166.904
							c-26.087-30.184-49.813-45.649-70.52-45.965c-23.669-0.383-41.659,19.216-56.118,34.946L998.637,2209.198L998.637,2209.198z"
							/>
					</g>
				</g>
			</g>
		</g>
		<g style="opacity:0.25;">
			<g>
				<g>
					<g>
						<path style="fill:#371A45;" d="M1827.326,1858.76l51.904,70.312c-83.928,46.4-179.101,75.626-281.058,82.742
							c-102.099,7.069-200.451-8.729-290.072-43.126c-62.863-24.102-121.41-57.312-173.93-98.162
							c-15.182-11.814-29.889-24.291-44.028-37.338c28.135-35.298,51.192-62.104,64.144-76.812
							c7.686-38.145,16.415-73.87,27.138-104.756l1.234-1.661l55.415-75.958c180.666-105.041,686.941-42.415,692.445,37.955
							c3.558,52.283,12.905,103.712,24.623,154.667c2.182,9.299,4.412,18.598,6.737,27.85
							C1890.522,1840.684,1827.326,1858.76,1827.326,1858.76z"/>
					</g>
				</g>
			</g>
		</g>
		<g>
			<g>
				<g>
					<g>
						<path style="fill:#FFFFFF;" d="M892.673,1432.95L892.673,1432.95c7.646,0.012,13.854-6.176,13.866-13.821l0.64-398.761
							c0.012-7.646-6.176-13.854-13.821-13.866h0c-80.211-0.129-145.339,64.791-145.468,145.002l-0.218,135.979
							C747.543,1367.694,812.462,1432.822,892.673,1432.95z"/>
					</g>
				</g>
			</g>
			<g>
				<g>
					<g>
						<path style="fill:#371A45;" d="M892.697,1435.991c-0.01,0-0.019,0-0.028,0l0.005-3.041l-0.005,3.041
							c-39.606-0.063-76.816-15.547-104.777-43.597c-27.961-28.05-43.324-65.31-43.261-104.916l0.218-135.979
							c0.063-39.606,15.547-76.816,43.597-104.777c28.05-27.96,65.343-43.329,104.916-43.261c4.51,0.007,8.747,1.77,11.931,4.965
							c3.184,3.194,4.933,7.437,4.926,11.947l-0.639,398.761c-0.007,4.51-1.77,8.747-4.965,11.931
							C901.428,1434.242,897.196,1435.991,892.697,1435.991z M893.118,1009.544c-37.896,0-73.533,14.727-100.378,41.487
							c-26.9,26.814-41.748,62.498-41.809,100.479l-0.218,135.979c-0.061,37.981,14.673,73.713,41.486,100.613
							c26.814,26.9,62.498,41.748,100.479,41.809h0c0.006,0,0.012,0,0.018,0c2.879,0,5.586-1.119,7.626-3.152
							c2.044-2.037,3.172-4.748,3.176-7.634l0.64-398.76c0.005-2.885-1.115-5.6-3.152-7.644c-2.037-2.044-4.748-3.172-7.634-3.176
							C893.276,1009.544,893.194,1009.544,893.118,1009.544z"/>
					</g>
				</g>
			</g>
		</g>
		<g style="opacity:0.35;">
			<g>
				<g>
					<g>
						<path style="fill:#371A45;" d="M747.775,1223.72l-0.116,63.775c-0.118,80.183,64.796,145.325,145.023,145.483
							c7.643,0.021,13.848-6.208,13.868-13.851l0.205-106.005c-2.154,4.829-6.997,8.159-12.609,8.193l-9.456-0.042
							C821.303,1321.186,767.433,1280.466,747.775,1223.72z"/>
					</g>
				</g>
			</g>
		</g>
		<g>
			<g>
				<g>
					<g>
						<path style="fill:#371A45;" d="M892.697,1449.877c-0.018,0-0.034,0-0.052,0c-43.315-0.07-84.01-17.003-114.589-47.68
							c-30.579-30.677-47.382-71.427-47.312-114.741l0.218-135.979c0.069-43.315,17.003-84.01,47.68-114.589
							c30.614-30.516,71.26-47.313,114.474-47.313c0.09,0,0.178,0,0.268,0c8.219,0.013,15.941,3.226,21.744,9.047
							c5.803,5.821,8.991,13.554,8.977,21.773l-0.639,398.76c-0.013,8.219-3.226,15.941-9.047,21.744
							C908.61,1446.69,900.897,1449.877,892.697,1449.877z M892.7,1416.023L892.7,1416.023
							C892.701,1416.023,892.7,1416.023,892.7,1416.023L892.7,1416.023z M890.247,1023.461
							c-69.331,1.534-125.318,58.353-125.43,128.07l-0.218,135.979c-0.055,34.272,13.24,66.514,37.435,90.787
							c23.469,23.544,54.467,36.856,87.584,37.685L890.247,1023.461z"/>
					</g>
				</g>
			</g>
		</g>
		<g>
			<g>
				<g>
					<g>
						<path style="fill:#FFFFFF;" d="M2209.573,1008.614L2209.573,1008.614c-7.646-0.012-13.854,6.176-13.866,13.821l-0.64,398.76
							c-0.012,7.646,6.176,13.854,13.822,13.866h0c80.211,0.129,145.339-64.791,145.467-145.001l0.218-135.979
							C2354.703,1073.871,2289.783,1008.743,2209.573,1008.614z"/>
					</g>
				</g>
			</g>
			<g>
				<g>
					<g>
						<path style="fill:#371A45;" d="M2209.125,1438.103c-0.085,0-0.157,0-0.242,0c-4.51-0.007-8.748-1.77-11.932-4.965
							c-3.184-3.194-4.933-7.437-4.926-11.947l0.64-398.76c0.015-9.3,7.587-16.857,16.885-16.857c0.01,0,0.018,0,0.027,0
							c39.606,0.063,76.816,15.547,104.777,43.597c27.961,28.05,43.324,65.31,43.261,104.916l-0.218,135.979
							C2357.266,1371.74,2290.769,1438.103,2209.125,1438.103z M2209.55,1011.655c-5.949,0-10.793,4.834-10.802,10.785l-0.64,398.76
							c-0.005,2.885,1.115,5.6,3.152,7.644c2.037,2.044,4.748,3.172,7.634,3.176c0.076,0,0.155,0,0.232,0
							c78.301,0,142.064-63.636,142.19-141.966l0.218-135.979c0.061-37.981-14.672-73.713-41.486-100.613
							c-26.814-26.9-62.498-41.748-100.479-41.809C2209.562,1011.655,2209.556,1011.655,2209.55,1011.655z"/>
					</g>
				</g>
			</g>
		</g>
		<g style="opacity:0.35;">
			<g>
				<g>
					<g>
						<path style="fill:#371A45;" d="M2195.213,1310.572l-0.165,110.624c-0.021,7.643,6.208,13.847,13.851,13.869
							c42.099,0.049,80.086-17.797,106.667-46.408c24.005-25.837,38.708-60.489,38.775-98.572l0.095-57.298
							c-22.849,50.233-73.636,85.173-132.444,85.089l-14.552-0.026C2202.128,1317.831,2197.617,1314.887,2195.213,1310.572z"/>
					</g>
				</g>
			</g>
		</g>
		<g>
			<g>
				<g>
					<g>
						<path style="fill:#371A45;" d="M2209.129,1451.989c-0.09,0-0.178,0-0.268,0c-8.219-0.013-15.941-3.226-21.744-9.047
							s-8.991-13.553-8.978-21.773l0.64-398.76c0.027-16.949,13.827-30.721,30.77-30.721c0.018,0,0.032,0,0.05,0l0,0
							c43.315,0.07,84.01,17.003,114.59,47.68c30.579,30.677,47.381,71.427,47.312,114.741l-0.218,135.979
							c-0.07,43.315-17.002,84.01-47.68,114.589C2292.989,1435.192,2252.344,1451.989,2209.129,1451.989z M2212.628,1025.582
							l-0.63,392.521c69.331-1.534,125.318-58.353,125.43-128.07l0.218-135.979c0.055-34.272-13.24-66.514-37.435-90.787
							C2276.744,1039.723,2245.746,1026.41,2212.628,1025.582z"/>
					</g>
				</g>
			</g>
		</g>
		<g>
			<g>
				<g>
					<g>
						<circle style="fill:#FFFFFF;" cx="1551.04" cy="1220.782" r="679.521"/>
					</g>
				</g>
			</g>
			<g>
				<g>
					<g>
						<path style="fill:#371A45;" d="M1550.026,1903.386c-75.266,0.001-149.203-12.318-220.429-36.775
							c-83.467-28.66-159.699-72.696-226.579-130.884c-66.879-58.188-121.036-127.596-160.967-206.296
							c-41.342-81.481-65.543-169.405-71.931-261.327c-6.388-91.922,5.418-182.347,35.091-268.764
							c28.661-83.467,72.696-159.699,130.884-226.579c58.188-66.879,127.596-121.036,206.296-160.967
							c81.481-41.342,169.405-65.543,261.327-71.931c91.923-6.388,182.348,5.418,268.764,35.092
							c83.467,28.661,159.699,72.696,226.579,130.884c66.879,58.188,121.036,127.596,160.967,206.296
							c41.342,81.481,65.543,169.404,71.931,261.326c6.388,91.922-5.418,182.348-35.092,268.765
							c-28.661,83.467-72.696,159.699-130.884,226.579c-58.188,66.879-127.596,121.037-206.296,160.967
							c-81.481,41.342-169.405,65.543-261.327,71.931C1582.204,1902.825,1566.078,1903.385,1550.026,1903.386z M1551.508,544.282
							c-15.703,0-31.469,0.542-47.368,1.647c-180.26,12.527-344.852,94.502-463.456,230.823
							c-118.605,136.321-177.024,310.67-164.497,490.929c24.756,356.216,322.559,629.577,674.385,629.6
							c15.703,0.001,31.469-0.542,47.368-1.647c372.115-25.861,653.813-349.637,627.952-721.752
							C2201.137,817.666,1903.334,544.282,1551.508,544.282z"/>
					</g>
				</g>
			</g>
		</g>
		<g style="opacity:0.35;">
			<g>
				<g>
					<g>
						<path style="fill:#371A45;" d="M873.129,1173.604c-2.187,30.951-2.195,62.427,0.012,94.297
							c26.069,374.372,350.644,656.773,725.02,630.79c374.372-26.068,656.772-350.643,630.79-725.019
							c-0.741-10.767-1.74-21.525-2.993-32.099c-22.768,333.165-288.255,606.904-630.802,630.722
							C1231.547,1797.536,914.97,1531.897,873.129,1173.604z"/>
					</g>
				</g>
			</g>
		</g>
		<g>
			<g>
				<g>
					<g>
						<path style="fill:#371A45;" d="M1550.015,1917.272c-76.795,0.001-152.244-12.571-224.927-37.529
							c-85.167-29.244-162.948-74.174-231.183-133.541c-68.235-59.367-123.492-130.186-164.236-210.489
							c-42.187-83.148-66.883-172.861-73.4-266.647c-6.518-93.786,5.531-186.053,35.811-274.237
							c29.244-85.167,74.174-162.948,133.541-231.183c59.367-68.235,130.186-123.492,210.489-164.236
							c83.148-42.187,172.861-66.883,266.647-73.4c93.786-6.519,186.053,5.531,274.237,35.811
							c85.167,29.244,162.948,74.174,231.183,133.541c68.235,59.367,123.492,130.186,164.236,210.489
							c42.187,83.148,66.883,172.861,73.4,266.647c6.518,93.786-5.531,186.053-35.811,274.237
							c-29.244,85.167-74.174,162.948-133.541,231.184c-59.367,68.235-130.186,123.492-210.489,164.236
							c-83.148,42.187-172.861,66.883-266.647,73.4C1582.839,1916.7,1566.393,1917.272,1550.015,1917.272z M1551.498,558.169
							c-15.38,0-30.823,0.531-46.395,1.614c-176.56,12.27-337.773,92.562-453.943,226.085
							C934.99,919.39,877.77,1090.16,890.04,1266.72c24.248,348.904,315.938,616.654,660.542,616.676
							c15.38,0.001,30.823-0.531,46.395-1.614c364.476-25.33,640.392-342.461,615.063-706.937
							C2187.792,825.94,1896.103,558.169,1551.498,558.169z"/>
					</g>
				</g>
			</g>
		</g>
		<g>
			<g>
				<g>
					<g>
						<path style="fill:#371A45;" d="M876.532,1285.153c7.214,132.776,57.012,253.704,136.267,351.691
							c59.417,73.461,293.862,194.939,574.52,182.218c260.23-11.794,489.35-163.331,540.458-242.797
							c68.172-105.997,104.575-231.608,97.361-364.385c-19.091-351.365-328.884-480.624-701.307-460.39
							C1151.407,771.726,857.441,933.788,876.532,1285.153z"/>
					</g>
				</g>
			</g>
		</g>
		<g>
			<g>
				<g>
					<g>
						<path style="fill:#371A45;" d="M1546.044,1836.923c-141.608,0-258.877-32.264-334.901-60.805
							c-95.193-35.737-176.238-85.025-211.506-128.629c-84.418-104.371-132.832-229.347-140.008-361.418
							c-4.767-87.742,9.469-167.455,42.314-236.925c30.925-65.41,78.485-122.139,141.358-168.611
							c114.531-84.655,280.378-135.122,479.609-145.947c199.231-10.823,369.57,21.378,492.599,93.125
							c67.538,39.387,120.965,90.629,158.794,152.303c40.178,65.502,62.967,143.203,67.734,230.946
							c7.176,132.071-27.413,261.556-100.026,374.459c-29.755,46.265-107.603,106.197-198.326,152.684
							c-79.845,40.913-206.352,91.103-355.602,97.867C1573.859,1836.617,1559.825,1836.923,1546.044,1836.923z M893.434,1284.235
							c6.787,124.916,52.614,243.165,132.525,341.965c53.071,65.615,278.945,188.72,560.593,175.954
							c143.172-6.489,264.841-54.795,341.697-94.177c97.566-49.993,163.363-106.773,185.291-140.867
							c68.737-106.876,101.483-229.395,94.696-354.31c-8.694-160.011-79.274-279.733-209.78-355.841
							c-117.297-68.405-281.102-99.027-473.708-88.565c-192.605,10.465-352.129,58.657-461.323,139.368
							C941.933,997.56,884.74,1124.224,893.434,1284.235z"/>
					</g>
				</g>
			</g>
		</g>
		<g style="opacity:0.35;">
			<g>
				<g>
					<g>
						<path style="fill:#111A28;" d="M989.87,950.236c-78.158,83.138-120.98,193.776-113.331,334.897
							c7.214,132.804,57.038,253.722,136.241,351.714c59.434,73.459,293.9,194.93,574.553,182.238
							c99.098-4.464,193.651-29.226,275.624-62.592c-345.323,8.248-630.978-140.96-704.662-232.073
							c-100.596-124.362-163.793-277.863-172.923-446.346C982.898,1033.045,984.569,990.456,989.87,950.236z"/>
					</g>
				</g>
			</g>
		</g>
		<g>
			<g>
				<g>
					<g>
						<path style="fill:#371A45;" d="M917.795,990.781c-4.516,0-9.02-1.792-12.348-5.344c-5.649-6.029-6.047-15.084-1.354-21.519
							c28.421-44.613,64.685-85.524,107.794-121.608c41.94-35.105,90.61-65.861,144.658-91.412
							c52.842-24.981,111.008-45.08,172.883-59.739c61.326-14.529,126.406-23.743,193.433-27.386
							c68.152-3.701,134.57-1.468,197.41,6.639c63.404,8.179,123.492,22.381,178.593,42.211
							c56.263,20.248,107.692,46.5,152.856,78.025c46.388,32.38,86.553,70.597,119.391,113.601
							c5.675,6.86,5.073,17.042-1.533,23.179c-6.849,6.363-17.559,5.968-23.922-0.881l12.402-11.521l-12.42,11.501l-0.567-0.609
							l-0.561-0.722c-121.487-159.451-347.401-242.412-619.813-227.619c-270.903,14.725-486.873,118.708-592.533,285.288
							l-1.171,1.846l-1.602,1.489C926.121,989.263,921.953,990.781,917.795,990.781z"/>
					</g>
				</g>
			</g>
		</g>
		<g>
			<g>
				<g>
					<g>
						<path style="fill:#FFFFFF;" d="M2612.809,1562.33c-11.481,239.829-259.614,479.089-567.809,546.27
							c-9.631,2.088-19.262,4.033-28.988,5.788l-136.781-185.316l-51.904-70.312c0,0,63.196-18.076,134.551-64.286
							c24.149-15.656,49.247-34.539,73.111-57.028c62.341-58.735,113.723-118.23,156.755-176.634c0-0.047,0.048-0.047,0.048-0.047
							c71.735-97.402,120.317-191.911,157.988-275.365c42.794-94.888,177.678-64.477,105.374,116.665
							C2455.153,1402.064,2617.742,1458.807,2612.809,1562.33z"/>
					</g>
				</g>
			</g>
		</g>
		<g style="opacity:0.25;">
			<g>
				<g>
					<g>
						<path style="fill:#371A45;" d="M2612.809,1562.33c-11.481,239.829-259.614,479.089-567.809,546.27
							c-9.631,2.088-19.262,4.033-28.988,5.788c0,0-71.102-39.069-71.102-52.437c0-22.326,36.821-15.655,77.032-19.535
							c237.426-22.913,547.124-276.741,590.107-497.26C2612.809,1550.707,2613.093,1556.447,2612.809,1562.33z"/>
					</g>
				</g>
			</g>
		</g>
		<g>
			<g>
				<g>
					<g>
						<path style="fill:#371A45;" d="M1825.798,1853.321l29.595-16.257c9.825-5.42,19.581-10.854,29.237-16.392
							c9.669-5.51,19.252-11.092,28.76-16.75l7.113-4.265l7.079-4.305c4.678-2.933,9.348-5.871,13.967-8.879
							c18.491-12.01,36.361-24.834,53.494-38.502c2.174-1.671,4.246-3.459,6.375-5.182c2.115-1.739,4.245-3.462,6.306-5.259
							l6.237-5.337l6.115-5.466c1.019-0.921,2.04-1.799,3.059-2.755l3.054-2.892l6.108-5.785l12.229-11.563
							c8.277-7.589,16.027-15.703,23.93-23.669l11.799-12.006c3.877-4.055,7.607-8.247,11.403-12.378
							c15.289-16.432,29.815-33.543,44.208-50.752c28.611-34.575,55.204-70.799,79.956-108.245
							c24.737-37.462,47.606-76.175,68.632-115.932l7.772-14.974c2.578-4.999,5.226-9.958,7.686-15.022l7.504-15.124
							c1.242-2.526,2.522-5.03,3.733-7.573l3.632-7.629l7.265-15.258c2.396-5.101,4.716-10.244,7.078-15.364l3.529-7.688
							l1.777-3.866l2.095-4.403c2.912-5.828,6.27-11.498,10.121-16.901c7.691-10.792,17.401-20.564,29.149-28.01
							c5.885-3.695,12.271-6.787,19.065-9.054c6.778-2.295,14.026-3.629,21.424-3.927c7.398-0.315,14.983,0.654,22.277,2.755
							c7.264,2.21,14.25,5.589,20.342,10.066c6.097,4.464,11.403,9.839,15.688,15.708c4.286,5.875,7.642,12.177,10.226,18.584
							c2.586,6.413,4.411,12.935,5.688,19.424c1.288,6.494,2.007,12.962,2.292,19.345c0.29,6.384,0.26,12.717-0.179,18.935
							l-0.14,2.339l-0.212,2.318l-0.438,4.633l-0.581,4.587l-0.293,2.293l-0.36,2.27c-3.762,24.258-10.983,47.176-19.713,69.15
							l-10.145-22.255l2.358,0.857l2.179,0.822l4.266,1.671c2.822,1.128,5.61,2.285,8.382,3.471
							c5.543,2.37,11.015,4.853,16.438,7.448c10.841,5.194,21.486,10.814,31.896,16.957c20.785,12.296,40.803,26.548,58.588,44.231
							c8.865,8.845,17.134,18.603,24.196,29.519c7.056,10.89,12.896,22.99,16.538,36.007c1.823,6.498,3.092,13.202,3.742,19.975
							c0.129,1.696,0.273,3.392,0.375,5.089l0.136,5.098c-0.012,1.697-0.064,3.394-0.104,5.09c-0.01,0.891-0.075,1.583-0.119,2.351
							l-0.143,2.262c-0.618,12.077-2.009,24.083-3.759,36.013c-7.206,47.733-22.809,93.734-44.14,136.413
							c-5.374,10.655-10.957,21.203-17.011,31.46c-2.934,5.187-6.126,10.209-9.203,15.304l-4.809,7.515l-2.409,3.754l-2.485,3.701
							l-4.978,7.396l-5.132,7.284l-2.567,3.641l-2.641,3.584l-5.284,7.167l-5.428,7.052l-2.715,3.525l-2.783,3.469l-5.57,6.934
							l-5.701,6.821c-30.522,36.287-64.741,69.238-101.472,98.913c-18.346,14.872-37.424,28.802-56.975,42.001
							c-19.552,13.203-39.697,25.503-60.29,36.983c-20.599,11.469-41.63,22.163-63.106,31.884
							c-21.474,9.705-43.035,19.307-65.116,27.679c-22.064,8.401-44.828,14.967-67.974,19.651c-2.896,0.574-5.796,1.129-8.705,1.636
							c-2.918,0.475-5.842,0.913-8.769,1.329c-5.84,0.887-11.75,1.432-17.654,1.922c-11.824,0.893-23.737,1.127-35.776-0.05
							c-3.223-0.315-5.58-3.183-5.265-6.406c0.198-2.03,1.41-3.717,3.085-4.608l0.174-0.091c5.327-2.784,10.711-5.07,16.073-7.357
							c5.353-2.327,10.737-4.386,16.092-6.505c5.359-2.099,10.733-4.051,16.087-6.037c2.681-0.977,5.364-1.93,8.054-2.849
							c2.678-0.965,5.356-1.921,8.042-2.837l64.316-21.799c21.406-7.296,42.701-15.112,63.321-24.504
							c20.644-9.326,40.846-19.613,60.632-30.626c19.78-11.026,39.123-22.835,57.879-35.503
							c18.755-12.663,37.048-26.016,54.611-40.256c35.167-28.411,67.838-59.893,96.833-94.368l5.416-6.478l5.284-6.581l2.641-3.291
							l2.572-3.342l5.146-6.683l5.001-6.786l2.501-3.392l2.426-3.443l4.853-6.886l4.699-6.985l2.348-3.494l2.27-3.541l4.535-7.085
							c2.892-4.799,5.908-9.53,8.66-14.405c5.698-9.647,10.927-19.542,15.963-29.518c19.979-39.962,34.364-82.621,40.964-126.359
							c1.599-10.931,2.881-21.911,3.437-32.921l0.132-2.063c0.039-0.673,0.105-1.422,0.101-1.976l0.076-3.574l-0.095-3.566
							l-0.264-3.554c-0.457-4.73-1.343-9.424-2.64-14.051c-5.173-18.546-17.069-35.815-32.059-50.703
							c-15.013-14.954-32.891-27.823-51.86-39.022c-9.496-5.605-19.307-10.787-29.309-15.579
							c-5.001-2.393-10.055-4.686-15.137-6.859c-2.541-1.087-5.089-2.144-7.633-3.161l-3.804-1.49l-1.876-0.708l-1.714-0.625
							l-16.596-6.054l6.451-16.202c8.061-20.243,14.498-41.012,17.693-61.732l0.311-1.94l0.244-1.936l0.493-3.871l0.361-3.855
							l0.18-1.927l0.11-1.916c0.37-5.122,0.373-10.177,0.152-15.145c-0.083-1.234-0.101-2.489-0.229-3.705l-0.348-3.66l-0.499-3.594
							c-0.157-1.201-0.424-2.351-0.624-3.531c-0.917-4.66-2.19-9.126-3.856-13.256c-1.664-4.131-3.72-7.919-6.131-11.235
							c-2.416-3.314-5.229-6.081-8.291-8.346c-3.066-2.268-6.478-3.868-10.069-4.998c-3.63-1.009-7.46-1.564-11.423-1.38
							c-7.922,0.259-16.179,3.095-23.655,7.781c-7.478,4.74-14.162,11.323-19.645,19.028c-2.747,3.854-5.206,7.989-7.377,12.328
							l-1.569,3.295l-1.784,3.881l-3.584,7.81c-2.4,5.202-4.756,10.422-7.192,15.61l-7.396,15.533l-3.698,7.766
							c-1.233,2.589-2.539,5.147-3.805,7.722l-7.654,15.425c-2.509,5.161-5.214,10.232-7.847,15.337l-7.939,15.295
							c-21.489,40.634-44.925,80.317-70.3,118.744c-25.391,38.414-52.698,75.606-82.067,111.102
							c-14.761,17.677-29.71,35.209-45.352,52.115l-5.798,6.401c-1.947,2.12-3.815,4.315-5.815,6.385l-11.908,12.509
							c-7.941,8.338-15.756,16.808-24.003,24.844l-12.229,12.202l-6.121,6.097l-3.061,3.049c-1.028,1.016-2.135,2.023-3.198,3.035
							l-6.45,6.061l-6.61,5.875c-2.185,1.983-4.444,3.872-6.704,5.762c-2.267,1.879-4.484,3.826-6.795,5.647
							c-9.145,7.424-18.599,14.434-28.255,21.126l-7.29,4.944c-2.452,1.613-4.935,3.177-7.4,4.766
							c-2.459,1.6-4.964,3.123-7.467,4.65c-2.504,1.524-5.009,3.045-7.551,4.501c-10.109,5.924-20.405,11.504-30.916,16.621
							c-10.511,5.118-21.246,9.755-32.169,13.883c-10.936,4.097-22.035,7.742-33.347,10.699c-5.646,1.499-11.348,2.816-17.1,3.946
							c-2.877,0.558-5.768,1.074-8.677,1.518c-1.455,0.231-2.918,0.414-4.391,0.6c-1.479,0.193-2.913,0.354-4.493,0.493
							c-3.16,0.279-5.948-2.057-6.227-5.217c-0.207-2.339,1.019-4.474,2.951-5.539L1825.798,1853.321z"/>
					</g>
				</g>
			</g>
		</g>
		<g style="opacity:0.35;">
			<g>
				<g>
					<g>
						<path style="fill:#371A45;" d="M2411.188,1463.565c-68.654,25.682-87.632,93.778-81.492,115.546
							c23.419,83.032,208.195,207.637,263.337,49.76c0,0-41.754,2.69-50.398-27.573"/>
					</g>
				</g>
			</g>
		</g>
		<g>
			<g>
				<g>
					<g>
						<path style="fill:#FFFFFF;" d="M2411.188,1463.565c-14.512,35.722-42.979,39.63-49.677,83.725
							c-12.956,85.294,207.079,190.142,248.391,46.252c0,0-11.18-9.425-19.823-39.688"/>
					</g>
				</g>
			</g>
		</g>
		<g style="opacity:0.35;">
			<g>
				<g>
					<g>
						<path style="fill:#371A45;" d="M2411.219,1463.552c-0.048,0.047-0.095,0.095-0.095,0.143c0-0.048,0.047-0.095,0.047-0.143
							H2411.219z"/>
					</g>
				</g>
			</g>
		</g>
		<g style="opacity:0.35;">
			<g>
				<g>
					<g>
						<path style="fill:#371A45;" d="M2606.973,1602.515c-47.776,130.424-258.143,28.229-245.476-55.225
							c5.171-34.16,23.438-44.218,38.145-63.623c-1.993,5.219-3.606,11.197-4.65,18.124
							C2384.318,1572.009,2531.537,1655.463,2606.973,1602.515z"/>
					</g>
				</g>
			</g>
		</g>
		<g style="opacity:0.35;">
			<g>
				<g>
					<g>
						<path style="fill:#371A45;" d="M2411.125,1463.694c-3.274,7.97-7.212,14.375-11.482,19.974
							C2402.679,1475.65,2406.664,1469.34,2411.125,1463.694z"/>
					</g>
				</g>
			</g>
		</g>
		<g>
			<g>
				<g>
					<g>
						<path style="fill:#371A45;" d="M2416.416,1465.689c-1.793,11.209-6.983,22.196-13.164,31.626l-2.309,3.438l-1.172,1.701
							l-1.149,1.626l-4.485,6.331c-2.79,4.096-5.445,7.922-7.375,11.707c-1.137,1.853-1.803,3.811-2.741,5.648
							c-0.412,0.94-0.715,1.921-1.085,2.867c-0.333,0.965-0.776,1.862-0.993,2.883c-0.261,0.995-0.562,1.969-0.85,2.944
							c-0.135,0.494-0.318,0.957-0.418,1.472l-0.301,1.544c-0.387,2.06-0.91,4.037-1.112,6.227
							c-0.259,2.098-0.663,4.447-0.644,5.911c-0.094,0.82-0.005,1.676,0.01,2.514c-0.015,0.833,0.102,1.693,0.182,2.547
							c0.364,3.419,1.2,6.953,2.464,10.558c1.273,3.604,2.937,7.267,5,10.916c2.052,3.652,4.504,7.23,7.142,10.782
							c5.379,7.051,11.83,13.744,19.002,19.772c7.148,6.078,15.06,11.43,23.335,16.17c4.154,2.344,8.378,4.584,12.71,6.598
							c4.308,2.066,8.718,3.905,13.164,5.62c4.45,1.71,8.968,3.2,13.51,4.559c4.556,1.28,9.13,2.501,13.738,3.377
							c1.149,0.249,2.3,0.472,3.453,0.653l3.456,0.589c2.305,0.288,4.611,0.677,6.912,0.86c4.606,0.513,9.191,0.68,13.731,0.67
							c4.55,0.012,9.013-0.39,13.414-0.934c4.394-0.584,8.654-1.539,12.807-2.698c4.136-1.205,8.082-2.776,11.88-4.571
							c3.777-1.836,7.304-4.05,10.668-6.472c13.411-9.806,22.588-24.978,27.882-42.498l0.52-1.641
							c0.099-0.311,0.205-0.734,0.329-1.233c0.243-0.973,0.478-2.048,0.699-3.115c0.437-2.158,0.82-4.383,1.122-6.621
							c0.62-4.478,0.96-9.013,1.04-13.504c0.173-8.997-0.911-17.795-3.158-25.97l-0.078-0.283
							c-2.478-9.014,2.821-18.329,11.835-20.807c9.014-2.477,18.317,2.779,20.795,11.793c3.304,11.9,4.669,23.988,4.455,35.806
							c-0.104,5.917-0.55,11.781-1.357,17.616c-0.397,2.92-0.893,5.829-1.491,8.772c-0.307,1.481-0.627,2.95-1.014,4.502
							c-0.19,0.764-0.401,1.604-0.682,2.538l-0.652,2.083l-1.314,4.164c-0.42,1.387-1.002,2.776-1.499,4.162
							c-0.527,1.385-1.018,2.776-1.581,4.153l-1.793,4.11l-0.904,2.052c-0.319,0.679-0.673,1.349-1.009,2.024l-2.052,4.035
							c-0.705,1.337-1.511,2.639-2.267,3.958c-0.776,1.311-1.51,2.639-2.393,3.903l-2.562,3.825
							c-0.866,1.268-1.847,2.475-2.771,3.71c-1.813,2.498-3.952,4.781-5.974,7.136c-4.292,4.525-8.913,8.779-13.95,12.516
							c-5.063,3.684-10.402,6.99-15.993,9.709c-5.6,2.676-11.365,4.932-17.23,6.642c-5.866,1.66-11.794,2.953-17.724,3.747
							c-5.923,0.753-11.854,1.246-17.72,1.244c-5.866,0.021-11.703-0.214-17.446-0.844c-2.89-0.243-5.725-0.7-8.583-1.072
							l-4.242-0.719c-1.418-0.228-2.823-0.498-4.218-0.797c-5.621-1.08-11.12-2.532-16.582-4.077
							c-5.433-1.62-10.807-3.399-16.076-5.422c-5.266-2.029-10.47-4.207-15.553-6.639c-5.107-2.38-10.092-5.015-15.002-7.789
							c-4.904-2.785-9.704-5.774-14.431-8.895c-2.328-1.625-4.69-3.189-6.967-4.904c-1.149-0.841-2.314-1.656-3.45-2.521
							l-3.394-2.62c-8.968-7.112-17.537-15.007-25.179-24.215c-3.823-4.609-7.344-9.586-10.538-14.928l-2.308-4.093l-2.096-4.284
							c-1.329-2.92-2.552-5.913-3.568-9.058c-2.058-6.252-3.418-12.983-3.685-19.957c-0.063-1.745-0.136-3.483,0.003-5.253
							c0.099-1.762,0.157-3.516,0.439-5.276c0.402-3.738,1.187-6.47,1.875-9.489c0.383-1.491,0.633-2.963,1.165-4.462l1.485-4.455
							l0.755-2.215c0.255-0.737,0.609-1.466,0.911-2.197c0.634-1.458,1.255-2.919,1.916-4.358c0.605-1.456,1.468-2.827,2.222-4.226
							c0.791-1.382,1.531-2.793,2.378-4.129c0.872-1.319,1.777-2.613,2.677-3.903c0.458-0.635,0.884-1.308,1.371-1.905l1.454-1.797
							c0.98-1.177,1.918-2.422,2.938-3.52l3.06-3.233c1.018-1.109,2.044-2.035,3.07-3.031c1.032-0.955,2.083-1.98,3.091-2.845
							l3.046-2.689l2.986-2.523l5.783-4.871c0.897-0.8,1.8-1.602,2.726-2.391c0.456-0.398,0.933-0.793,1.375-1.196l1.288-1.223
							l2.633-2.445c0.806-0.854,1.631-1.704,2.476-2.556l1.266-1.287c0.403-0.442,0.778-0.9,1.176-1.349l2.393-2.734
							c1.561-1.869,2.998-3.857,4.622-5.819l0.291-0.352c2.036-2.46,5.68-2.805,8.14-0.769
							C2416.024,1461.671,2416.722,1463.738,2416.416,1465.689z"/>
					</g>
				</g>
			</g>
		</g>
		<g style="opacity:0.25;">
			<g>
				<g>
					<g>
						<path style="fill:#371A45;" d="M2191.743,1560.812c-41.893,118.135-115.716,221.943-211.79,300.178
							c-31.312,25.572-64.998,48.393-100.723,68.082l-51.904-70.312c0,0,63.196-18.076,134.551-64.286
							c24.149-15.656,49.247-34.539,73.111-57.028C2097.329,1678.71,2148.711,1619.216,2191.743,1560.812z"/>
					</g>
				</g>
			</g>
		</g>
		<g>
			<g style="opacity:0.5;">
				<g>
					<g>
						<g>
							
								<ellipse transform="matrix(0.1915 -0.9815 0.9815 0.1915 365.5957 3007.071)" style="fill:#FFFFFF;" cx="2008.111" cy="1281.616" rx="108.775" ry="78.821"/>
						</g>
					</g>
				</g>
			</g>
			<g style="opacity:0.5;">
				<g>
					<g>
						<g>
							
								<ellipse transform="matrix(0.3253 -0.9456 0.9456 0.3253 -126.6583 2814.0212)" style="fill:#FFFFFF;" cx="1908.661" cy="1495.769" rx="49.927" ry="42.845"/>
						</g>
					</g>
				</g>
			</g>
		</g>
		<g style="opacity:0.5;">
			<g>
				<g>
					<g>
						<path style="fill:#FFFFFF;" d="M1027.366,1486.84c0,0-110.547-331.202,66.579-467.154s435.394-140.05,429.652-123.378
							c0,0-284.67,74.346-392.484,302.384C1047.975,1374.536,1027.366,1486.84,1027.366,1486.84z"/>
					</g>
				</g>
			</g>
		</g>
		<g>
			<g>
				<g>
					<g>
						<path style="fill:#371A45;" d="M2472.508,1880c-0.151,0-0.302-0.003-0.454-0.008c-65.947-2.355-124.216-18.011-173.189-46.534
							c-39.35-22.918-72.716-54.085-99.172-92.635c-44.899-65.424-54.199-128.919-54.573-131.59
							c-0.957-6.837,3.809-13.155,10.646-14.113c6.839-0.954,13.152,3.808,14.112,10.642c0.161,1.104,9.275,61.378,51.006,121.754
							c55.719,80.614,140.525,123.508,252.062,127.492c6.899,0.246,12.292,6.039,12.046,12.938
							C2484.751,1874.693,2479.205,1880,2472.508,1880z"/>
					</g>
				</g>
			</g>
		</g>
	</g>
</g>
</svg>
