<?xml version="1.0" encoding="utf-8"?>
<!-- Generator: Adobe Illustrator 27.5.0, SVG Export Plug-In . SVG Version: 6.00 Build 0)  -->
<svg version="1.1" id="Layer_1" xmlns="http://www.w3.org/2000/svg" xmlns:xlink="http://www.w3.org/1999/xlink" x="0px" y="0px"
	 viewBox="0 0 4000 4000" style="enable-background:new 0 0 4000 4000;" xml:space="preserve">
<g>
	<g>
		<g>
			<rect style="fill:#A89FFF;" width="4000" height="4000"/>
		</g>
	</g>
	<g>
		<g>
			<g>
				<path style="fill:#31C418;" d="M2623.715,2219.482c47.844,111.763,137.448,236.355,67.122,368.727
					c-65.796,123.845-224.29,82.281-224.29,82.281l-24.393-349.626C2442.154,2320.864,2575.871,2107.719,2623.715,2219.482z"/>
			</g>
		</g>
		<g>
			<g>
				<path style="fill:#371A45;" d="M2526.036,2696.102c-36.807,0-63.701-6.782-64.38-6.958c-7.998-2.1-13.765-9.063-14.341-17.31
					l-24.395-349.629c-0.288-4.072,0.728-8.13,2.9-11.592c15.518-24.736,96.216-147.837,163.33-142.656
					c15.801,1.235,37.7,9.858,52.29,43.935l0,0c8.359,19.522,17.935,39.273,28.071,60.181
					c47.212,97.393,100.728,207.778,38.35,325.186C2664.014,2679.788,2583.111,2696.102,2526.036,2696.102z M2484.766,2654.578
					c37.114,6.353,141.069,14.873,189.043-75.415c53.188-100.113,6.323-196.782-38.999-290.264
					c-10.342-21.328-20.107-41.479-28.818-61.831l0,0c-8.467-19.775-17.026-20.444-19.839-20.664
					c-0.522-0.039-1.06-0.063-1.597-0.063c-31.489,0-89.98,68.921-122.725,119.521L2484.766,2654.578z"/>
			</g>
		</g>
		<g>
			<g>
				<path style="fill:#62ED2E;" d="M1998.783,3608.196c41.408,20.439,103.207,15.281,123.742-75.971
					c17.402,87.395,79.152,95.3,109.859,88.311c44.733-10.075,56.737-61.269,55.194-118.343
					c-2.025-76.067-27.959-162.691-32.393-176.863c-0.386-1.35-0.627-2.025-0.627-2.025s149.386-105.424,149.386-471.442
					c0,0-403.232-642.665-440.204-350.4c-37.889,299.448,37.888,410.848,27.718,559.753
					c-9.304,135.841-24.199,147.313-41.65,239.626C1938.383,3361.58,1921.126,3569.921,1998.783,3608.196z"/>
			</g>
		</g>
		<g>
			<g>
				<path style="fill:#31C418;" d="M1998.783,3608.196c41.408,20.439,103.207,15.281,123.742-75.971
					c17.402,87.395,79.152,95.3,109.859,88.311c44.733-10.075,56.737-61.269,55.194-118.343
					c-21.499,49.844-48.108,74.477-85.708,64.787c-57.894-14.896-72.355-171.995-72.355-171.995
					c-18.27,185.444-117.234,201.881-134.828,110.003c-17.547-91.878-7.906-192.24,81.418-175.223
					c55.098,10.508,122.825,9.978,179.081-4.435c-0.386-1.35-0.627-2.025-0.627-2.025s149.386-105.424,149.386-471.442
					c0,0-403.232-642.665-440.204-350.4c-37.889,299.448,37.888,410.848,27.718,559.753
					c-9.304,135.841-24.199,147.313-41.65,239.626C1938.383,3361.58,1921.126,3569.921,1998.783,3608.196z"/>
			</g>
		</g>
		<g>
			<g>
				<path style="fill:#371A45;" d="M2214.263,3641.717c-15.581,0-36.44-3.262-56.855-16.519
					c-14.37-9.331-26.177-21.997-35.352-37.881c-13.384,22.656-29.624,34.756-43.13,41.211
					c-26.641,12.729-58.96,11.626-88.662-3.027c-92.163-45.444-70.288-270.469-59.385-328.237
					c5.781-30.649,11.401-52.998,16.362-72.715c10.098-40.127,18.818-74.785,24.971-164.658
					c3.794-55.41-4.932-106.094-15.039-164.78c-16.099-93.486-36.133-209.829-12.558-396.094
					c6.792-53.667,26.558-84.478,58.74-91.582c20.518-4.526,82.939-18.33,260.229,210.415
					c84.507,109.033,155.972,222.642,156.685,223.774c1.929,3.071,2.949,6.626,2.949,10.249
					c0,317.676-110.361,444.893-146.47,478.008c13.936,46.958,53.413,197.358,11.841,270.22
					c-11.968,20.972-29.443,34.185-51.938,39.268C2232.657,3640.272,2224.63,3641.717,2214.263,3641.717z M2122.506,3512.938
					c0.083,0,0.161,0,0.239,0c9.106,0.112,16.895,6.582,18.677,15.513c6.133,30.781,18.574,52.451,36.987,64.404
					c21.348,13.867,43.477,10.317,49.741,8.896c11.821-2.671,20.376-9.263,26.938-20.752
					c32.568-57.046-2.588-201.079-18.882-251.768c-2.578-8.022,0.347-16.797,7.236-21.655
					c1.309-0.952,139.712-105.205,141.201-450.122c-14.243-22.344-77.974-121.089-151.699-216.182
					c-150.493-194.121-207.407-199.248-221.279-196.177c-18.154,4.004-25.679,34.165-28.789,58.765
					c-22.852,180.552-4.175,289.014,12.3,384.702c10.527,61.138,19.619,113.936,15.513,173.965
					c-6.392,93.306-15.498,129.512-26.045,171.431c-5.068,20.132-10.303,40.942-15.874,70.454
					c-13.589,72.021-21.797,256.743,38.555,286.504c8.999,4.443,32.393,13.618,54.971,2.817
					c19.521-9.326,33.838-32.061,41.401-65.737C2105.675,3519.183,2113.502,3512.938,2122.506,3512.938z M1963.746,2501.439h0.049
					H1963.746z"/>
			</g>
		</g>
		<g>
			<g>
				<g>
					<path style="fill:#62ED2E;" d="M2128.661,3383.069c0,0,8.507,100.946-6.151,149.151"/>
				</g>
			</g>
			<g>
				<g>
					<path style="fill:#371A45;" d="M2138.269,3382.258c6.149,51.959,12.969,103.303,2.689,155.571
						c-2.361,10.485-12.858,17.044-23.317,14.559c-11.324-2.585-17.833-14.986-13.579-25.779
						c11.355-32.799,12.952-70.745,14.561-105.733c0.393-12.359,0.585-24.889,0.429-37.141
						C2119.107,3371.778,2136.401,3370.452,2138.269,3382.258L2138.269,3382.258z"/>
				</g>
			</g>
		</g>
		<g>
			<g>
				<path style="fill:#62ED2E;" d="M1423.991,3608.196c41.408,20.439,103.255,15.281,123.742-75.971
					c17.402,87.395,79.152,95.3,109.907,88.311c32.297-7.279,47.529-36.009,52.88-72.934
					c12.967-88.552-30.755-224.296-30.755-224.296s6.942-4.917,17.788-16.245c39.672-41.311,131.599-168.042,131.599-455.197
					c0,0-403.183-642.665-440.205-350.4c-37.889,299.448,37.937,410.848,27.718,559.753
					c-9.304,135.841-24.198,147.313-41.601,239.626C1363.591,3361.58,1346.381,3569.921,1423.991,3608.196z"/>
			</g>
		</g>
		<g>
			<g>
				<path style="fill:#31C418;" d="M1423.991,3608.196c41.408,20.439,103.255,15.281,123.742-75.971
					c17.402,87.395,79.152,95.3,109.907,88.311c32.297-7.279,47.529-36.009,52.88-72.934c-16.823,10.171-45.072,19.378-84.166,5.591
					c-59.533-20.968-46.469-111.69-72.066-165.004c0,0-15.426,162.113-100.893,134.973c-60.69-19.282-45.939-187.709-31.767-221.742
					c14.172-34.032,31.188-76.019,65.8-69.848c22.366,4.001,125.429,70.138,210.124,75.489
					c39.672-41.311,131.599-168.042,131.599-455.197c0,0-403.183-642.665-440.205-350.4
					c-37.889,299.448,37.937,410.848,27.718,559.753c-9.304,135.841-24.198,147.313-41.601,239.626
					C1363.591,3361.58,1346.381,3569.921,1423.991,3608.196z"/>
			</g>
		</g>
		<g>
			<g>
				<path style="fill:#371A45;" d="M1639.483,3641.717c-15.576,0-36.436-3.262-56.851-16.514
					c-14.37-9.336-26.182-22.002-35.356-37.891c-13.384,22.666-29.619,34.761-43.13,41.216
					c-26.636,12.725-58.945,11.626-88.662-3.022c-92.144-45.444-70.283-270.469-59.39-328.242
					c5.786-30.649,11.406-52.998,16.367-72.715c10.098-40.127,18.818-74.785,24.971-164.658
					c3.799-55.41-4.932-106.099-15.039-164.79c-16.099-93.481-36.133-209.824-12.559-396.084
					c6.792-53.662,26.558-84.478,58.74-91.582c20.518-4.526,82.935-18.33,260.234,210.415
					c84.507,109.033,155.972,222.642,156.685,223.774c1.929,3.071,2.949,6.626,2.949,10.249
					c0,317.676-110.361,444.893-146.47,478.008c13.931,46.958,53.413,197.358,11.836,270.22
					c-11.968,20.972-29.443,34.185-51.938,39.268C1657.882,3640.272,1649.849,3641.717,1639.483,3641.717z M1547.725,3512.938
					c0.083,0,0.161,0,0.239,0c9.106,0.112,16.895,6.582,18.677,15.513c6.133,30.781,18.579,52.451,36.992,64.409
					c21.352,13.857,43.467,10.308,49.736,8.892c11.821-2.671,20.376-9.263,26.939-20.752
					c32.568-57.046-2.583-201.079-18.877-251.768c-2.578-8.022,0.347-16.797,7.236-21.655
					c1.309-0.952,139.712-105.205,141.201-450.122c-14.243-22.344-77.974-121.089-151.699-216.182
					c-150.498-194.121-207.397-199.248-221.284-196.177c-18.154,4.004-25.679,34.165-28.789,58.765
					c-22.852,180.547-4.175,289.004,12.3,384.697c10.532,61.138,19.624,113.936,15.513,173.97
					c-6.392,93.306-15.498,129.512-26.045,171.431c-5.068,20.132-10.303,40.942-15.874,70.454
					c-13.584,72.021-21.787,256.748,38.555,286.504c9.004,4.443,32.393,13.613,54.976,2.817
					c19.517-9.326,33.833-32.061,41.397-65.737C1530.894,3519.183,1538.717,3512.938,1547.725,3512.938z M1388.965,2501.439h0.049
					H1388.965z"/>
			</g>
		</g>
		<g>
			<g>
				<path style="fill:#31C418;" d="M1347.441,2187.07c-45.302,94.004-122.378,191.204-123.157,283.025
					c-0.659,77.614,46.885,164.834,196.221,133.359c167.9-35.387,186.385-272.21,186.385-272.21S1406.307,2064.922,1347.441,2187.07
					z"/>
			</g>
		</g>
		<g>
			<g>
				<path style="fill:#371A45;" d="M1361.851,2629.398c-41.987,0-76.714-11.084-103.706-33.169
					c-34.219-27.998-53.589-74.033-53.144-126.299c0.601-70.225,41.416-141.289,80.889-210.015
					c15.405-26.821,31.338-54.561,44.184-81.216l0,0c15.523-32.212,38.916-40.957,55.811-42.622c2.188-0.22,4.414-0.322,6.655-0.322
					c88.638,0,215.273,164.663,229.751,183.887c2.832,3.755,4.19,8.413,3.823,13.101c-0.801,10.259-21.68,251.655-201.636,289.58
					C1402.1,2627.039,1381.202,2629.398,1361.851,2629.398z M1364.81,2195.438c-13.447,27.915-29.731,56.265-45.483,83.687
					c-36.997,64.414-75.249,131.021-75.762,191.138c-0.347,40.522,13.872,75.557,38.999,96.118
					c29.946,24.502,75.02,30.62,133.965,18.208c136.152-28.696,165.635-209.512,170.366-247.773
					c-52.28-67.813-147.983-167.271-197.236-162.358C1383.018,2175.111,1373.219,2177.996,1364.81,2195.438L1364.81,2195.438z"/>
			</g>
		</g>
		<g>
			<g>
				<g>
					
						<ellipse transform="matrix(0.0706 -0.9975 0.9975 0.0706 -1384.0414 4841.4038)" style="fill:#E2E2E2;" cx="1906.038" cy="3163.425" rx="64.721" ry="158.007"/>
				</g>
				<g>
					<path style="fill:#371A45;" d="M1928.189,3230.848c-8.76,0-17.725-0.308-26.855-0.957
						c-87.954-6.226-157.407-41.108-154.814-77.759l0,0c2.593-36.65,76.225-61.421,164.224-55.171
						c87.954,6.226,157.407,41.104,154.814,77.754C2063.233,3207.557,2003.814,3230.848,1928.189,3230.848z M1750.328,3152.406
						c-2.441,34.546,65.425,67.598,151.279,73.677c85.796,6.05,157.695-17.09,160.142-51.641
						c2.441-34.541-65.425-67.593-151.279-73.672C1824.625,3094.725,1752.769,3117.855,1750.328,3152.406L1750.328,3152.406z"/>
				</g>
			</g>
			<g>
				<g>
					
						<ellipse transform="matrix(0.0706 -0.9975 0.9975 0.0706 -1384.0414 4841.4038)" style="fill:#FFFFFF;" cx="1906.038" cy="3163.425" rx="64.721" ry="158.007"/>
				</g>
				<g>
					<path style="fill:#371A45;" d="M1928.189,3230.848c-8.76,0-17.725-0.308-26.855-0.957
						c-87.954-6.226-157.407-41.108-154.814-77.759l0,0c2.593-36.65,76.225-61.421,164.224-55.171
						c87.954,6.226,157.407,41.104,154.814,77.754C2063.233,3207.557,2003.814,3230.848,1928.189,3230.848z M1750.328,3152.406
						c-2.441,34.546,65.425,67.598,151.279,73.677c85.796,6.05,157.695-17.09,160.142-51.641
						c2.441-34.541-65.425-67.593-151.279-73.672C1824.625,3094.725,1752.769,3117.855,1750.328,3152.406L1750.328,3152.406z"/>
				</g>
			</g>
			<g style="opacity:0.3;">
				<g>
					
						<ellipse transform="matrix(0.0706 -0.9975 0.9975 0.0706 -1384.0414 4841.4038)" style="fill:#371A45;" cx="1906.038" cy="3163.425" rx="64.721" ry="158.007"/>
				</g>
			</g>
			<g>
				<g>
					<path style="fill:#371A45;" d="M1929.41,3240.819c-9.336,0-18.941-0.337-28.774-1.03
						c-96.577-6.841-167.085-44.824-164.014-88.354l0,0c3.081-43.53,78.232-71.172,174.819-64.37
						c96.577,6.841,167.09,44.819,164.014,88.35C2072.686,3214.51,2011.768,3240.819,1929.41,3240.819z M1760.225,3153.104
						L1760.225,3153.104c-1.763,24.907,58.628,57.178,142.08,63.081c83.476,5.952,147.788-17.539,149.546-42.441
						c1.763-24.902-58.628-57.173-142.08-63.076C1826.334,3104.71,1761.993,3128.197,1760.225,3153.104z"/>
				</g>
			</g>
			<g>
				<g>
					
						<ellipse transform="matrix(0.2247 -0.9744 0.9744 0.2247 -1843.2178 3870.9387)" style="fill:#FFFFFF;" cx="1510.94" cy="3093.771" rx="64.721" ry="158.007"/>
				</g>
				<g>
					<path style="fill:#371A45;" d="M1573.038,3167.967c-23.496,0-49.814-2.983-77.07-9.268
						c-41.362-9.536-78.755-25.122-105.283-43.877c-27.012-19.097-39.644-39.331-35.571-56.982
						c8.247-35.806,84.868-48.818,170.801-28.994c85.918,19.81,149.106,65.054,140.854,100.859
						C1661.134,3154.149,1623.619,3167.967,1573.038,3167.967z M1447.803,3023.245c-48.232,0-83.73,12.734-88.97,35.454
						c-3.696,16.04,8.398,34.863,34.053,53.003c26.138,18.477,63.052,33.848,103.941,43.276
						c83.882,19.336,158.438,7.617,166.221-26.133c7.778-33.75-54.126-76.943-137.993-96.279
						C1497.642,3026.248,1471.221,3023.245,1447.803,3023.245z"/>
				</g>
			</g>
			<g>
				<g>
					<path style="fill:#371A45;" d="M1573.844,3178.128c-24.258,0-51.45-3.154-80.103-9.761
						c-42.593-9.824-81.226-25.962-108.784-45.444c-30.513-21.572-44.546-45.479-39.512-67.31
						c9.815-42.529,88.359-58.178,182.695-36.435c94.341,21.753,158.096,70.225,148.296,112.754
						C1669.605,3161.541,1629.449,3178.128,1573.844,3178.128z M1448.624,3033.319c-44.907,0-76.362,11.294-80.122,27.607
						c-2.656,11.514,8.599,27.471,30.112,42.676c25.107,17.754,60.776,32.563,100.439,41.709
						c81.528,18.809,148.721,5.635,154.326-18.691c5.61-24.331-49.033-65.591-130.552-84.385
						C1495.977,3036.043,1470.675,3033.319,1448.624,3033.319z"/>
				</g>
			</g>
			<g>
				<g>
					
						<ellipse transform="matrix(0.9964 -0.0852 0.0852 0.9964 -260.0766 208.0778)" style="fill:#FFFFFF;" cx="2307.009" cy="3150.106" rx="158.007" ry="64.721"/>
				</g>
				<g>
					<path style="fill:#371A45;" d="M2280.484,3217.889c-73.062,0-130.073-22.124-132.813-54.155
						c-3.13-36.602,65.801-72.5,153.662-80.02c87.827-7.5,161.88,16.152,165.01,52.764c1.543,18.047-13.813,36.304-43.242,51.406
						c-28.906,14.834-68.12,24.995-110.415,28.613C2301.7,3217.435,2290.928,3217.889,2280.484,3217.889z M2334.151,3086.116
						c-10.527,0-21.392,0.454-32.495,1.406c-85.757,7.339-153.13,41.382-150.176,75.889s75.132,56.641,160.884,49.277
						c41.807-3.574,80.518-13.594,108.994-28.203c27.959-14.351,42.583-31.284,41.177-47.686
						C2459.967,3106.761,2404.927,3086.116,2334.151,3086.116z"/>
				</g>
			</g>
			<g style="opacity:0.3;">
				<g>
					
						<ellipse transform="matrix(0.2247 -0.9744 0.9744 0.2247 -1843.2178 3870.9387)" style="fill:#371A45;" cx="1510.94" cy="3093.771" rx="64.721" ry="158.007"/>
				</g>
			</g>
			<g style="opacity:0.3;">
				<g>
					
						<ellipse transform="matrix(0.9964 -0.0852 0.0852 0.9964 -260.0766 208.0778)" style="fill:#371A45;" cx="2307.009" cy="3150.106" rx="158.007" ry="64.721"/>
				</g>
			</g>
			<g>
				<g>
					<path style="fill:#371A45;" d="M2279.161,3227.874c-79.512,0-138.105-25.132-141.372-63.296
						c-3.721-43.477,66.226-82.49,162.695-90.747c96.489-8.223,172.021,18.32,175.742,61.802
						c1.909,22.324-15.347,44.014-48.594,61.074c-30.029,15.41-70.552,25.947-114.102,29.673
						C2301.734,3227.386,2290.24,3227.874,2279.161,3227.874z M2333.468,3096.068c-9.956,0-20.308,0.425-30.967,1.338
						c-83.359,7.134-143.267,40.283-141.138,65.161c2.129,24.873,66.787,47.373,150.156,40.239
						c40.552-3.467,77.954-13.11,105.313-27.148c23.438-12.026,36.831-26.235,35.82-38.013
						C2450.797,3115.95,2401.368,3096.068,2333.468,3096.068z"/>
				</g>
			</g>
			<g>
				<g>
					
						<ellipse transform="matrix(0.0706 -0.9975 0.9975 0.0706 -1194.723 4688.4902)" style="fill:#999999;" cx="1918.638" cy="2985.373" rx="178.497" ry="707.93"/>
				</g>
				<g>
					<path style="fill:#371A45;" d="M2098.424,3172.298c-62.036,0-126.665-2.305-192.525-6.968
						c-188.774-13.359-364.961-44.463-496.099-87.578c-131.909-43.364-202.666-93.97-199.229-142.485
						c3.433-48.516,80.605-88.652,217.31-113.013c135.913-24.209,314.727-30.2,503.491-16.836
						c188.774,13.354,364.961,44.458,496.104,87.573c131.909,43.369,202.661,93.97,199.229,142.49
						c-3.433,48.516-80.605,88.647-217.31,113.008C2320.904,3164.261,2214.2,3172.298,2098.424,3172.298z M1738.824,2802.269
						c-115.557,0-221.987,8.018-310.273,23.75c-134.81,24.023-210.869,62.915-214.17,109.521l0,0
						c-3.296,46.602,66.523,95.815,196.611,138.584c130.85,43.018,306.709,74.058,495.181,87.397
						c188.467,13.34,366.943,7.368,502.554-16.792c134.81-24.023,210.869-62.92,214.17-109.521
						c6.87-97.124-303.467-198.501-691.797-225.981C1865.338,2804.573,1800.757,2802.269,1738.824,2802.269z"/>
				</g>
			</g>
			<g>
				<g>
					<path style="fill:#FFFFFF;" d="M1213.367,2948.275c2.976,14.5,12.621,29.028,28.154,43.29
						c85.406,78.411,348.94,149.534,664.516,171.866s586.5-10.97,682.097-76.572c17.387-11.933,28.981-24.957,33.97-38.894
						c-21.957-58.801-324.205-125.371-697.156-151.763C1551.997,2869.811,1243.387,2893.153,1213.367,2948.275z"/>
				</g>
				<g>
					<path style="fill:#371A45;" d="M2098.804,3172.865c-61.797,0-126.543-2.271-192.944-6.973
						c-309.849-21.929-577.5-91.255-666.011-172.51c-16.142-14.819-25.869-29.834-28.901-44.609l-0.181-0.884l0.43-0.796
						c31.06-57.017,337.979-79.946,713.926-53.35c375.947,26.602,676.582,92.534,699.297,153.359l0.313,0.845l-0.303,0.85
						c-5.088,14.204-16.826,27.695-34.897,40.098C2511.69,3142.308,2325.362,3172.865,2098.804,3172.865z M1215.977,2948.68
						c3.032,13.457,12.183,27.266,27.212,41.069c87.749,80.557,354.199,149.365,663.022,171.221
						c308.823,21.851,582.315-8.745,680.527-76.147c16.821-11.543,27.827-23.931,32.725-36.826
						c-24.297-57.954-328.433-123.413-694.692-149.331C1558.526,2872.752,1248.189,2894.725,1215.977,2948.68z"/>
				</g>
			</g>
			<g style="opacity:0.3;">
				<g>
					<path style="fill:#371A45;" d="M1213.367,2948.275c2.976,14.5,12.621,29.028,28.154,43.29
						c87.358,50.829,352.309,101.923,667.885,124.255s585.083,9.06,678.728-28.961c17.387-11.933,28.981-24.957,33.97-38.894
						c-21.957-58.801-324.205-125.371-697.156-151.763C1551.997,2869.811,1243.387,2893.153,1213.367,2948.275z"/>
				</g>
			</g>
			<g>
				<g>
					<path style="fill:#371A45;" d="M2098.375,3182.215c-62.266,0-127.109-2.314-193.174-6.987
						c-189.57-13.418-366.607-44.688-498.501-88.052c-96.66-31.777-210.864-84.057-206.025-152.607l0,0
						c4.853-68.555,125.288-104.229,225.464-122.08c136.685-24.355,316.362-30.381,505.933-16.968
						c189.565,13.418,366.606,44.688,498.501,88.052c96.665,31.777,210.879,84.053,206.03,152.607
						c-4.854,68.555-125.288,104.224-225.469,122.075C2322.086,3174.124,2214.766,3182.215,2098.375,3182.215z M1738.78,2812.186
						c-114.951,0-220.762,7.964-308.491,23.594c-126.138,22.48-203.154,60.034-206.011,100.459l0,0
						c-2.866,40.425,68.096,88.448,189.81,128.462c130.098,42.773,305.103,73.643,492.783,86.924
						c187.681,13.296,365.288,7.368,500.112-16.66c126.143-22.476,203.159-60.029,206.016-100.454
						c5.684-80.288-267.246-185.996-682.598-215.386C1864.844,2814.481,1800.484,2812.186,1738.78,2812.186z M1212.476,2935.404
						h0.049H1212.476z"/>
				</g>
			</g>
			<g>
				<g>
					<g>
						<path style="fill:#945CC6;" d="M771.466,2692.778c0,0-3.309,46.759-4.801,67.847
							c-8.935,126.266,504.093,265.441,1145.88,310.858c641.787,45.417,1169.303-20.124,1178.238-146.39
							c1.583-22.37,4.801-67.847,4.801-67.847"/>
					</g>
				</g>
				<g>
					<g>
						<path style="fill:#371A45;" d="M2307.735,3087.865c-125.449,0-258.735-4.81-395.327-14.478
							c-310.518-21.973-600.781-66.426-817.324-125.171c-217.407-58.979-334.717-125.649-330.322-187.729l4.8-67.847l3.809,0.273
							l-4.8,67.847c-4.248,60.059,112.065,125.322,327.515,183.77c216.309,58.682,506.318,103.091,816.597,125.049
							c310.273,21.953,603.647,18.833,826.064-8.804c221.533-27.524,345.879-75.757,350.132-135.815l4.8-67.852l3.809,0.273
							l-4.8,67.852c-4.39,62.075-129.922,111.563-353.467,139.336C2614.503,3080.062,2467.481,3087.86,2307.735,3087.865z"/>
					</g>
				</g>
			</g>
			<g style="opacity:0.3;">
				<g>
					<path style="fill:#371A45;" d="M768.88,2729.159l-2.227,31.475c-8.935,126.254,504.09,265.432,1145.892,310.849
						c641.802,45.418,1169.314-20.125,1178.248-146.38l2.228-31.475c-8.935,126.254-536.446,191.797-1178.248,146.38
						C1272.97,2994.591,759.945,2855.414,768.88,2729.159z"/>
				</g>
			</g>
			<g>
				<g>
					<path style="fill:#371A45;" d="M2307.711,3097.777c-125.679,0-259.214-4.814-396.001-14.492
						c-311.138-22.021-602.08-66.587-819.224-125.493c-157.392-42.7-343.725-111.709-337.622-198.003l4.8-67.847l23.603,1.67
						l-4.8,67.847c-3.77,53.223,115.938,118.081,320.215,173.501c215.708,58.516,505.039,102.813,814.697,124.722
						c309.658,21.929,602.339,18.809,824.146-8.75c210.044-26.094,337.69-73.447,341.455-126.67l4.8-67.852l23.604,1.67l-4.8,67.852
						c-6.108,86.289-200.308,128.374-362.144,148.477C2615.323,3089.954,2467.901,3097.777,2307.711,3097.777z"/>
				</g>
			</g>
			<g>
				<g>
					
						<ellipse transform="matrix(0.0706 -0.9975 0.9975 0.0706 -969.8895 4509.2661)" style="fill:#B8C5D3;" cx="1934.877" cy="2775.108" rx="229.196" ry="1164.965"/>
				</g>
			</g>
			<g style="opacity:0.5;">
				<g>
					<g>
						<path style="fill:#FFFFFF;" d="M1836.19,2893.753c2.118-29.923,35.948-51.087,77.019-48.181
							c41.071,2.906,71.584,28.624,69.467,58.547c-2.118,29.923-35.948,51.087-77.019,48.181
							C1864.585,2949.394,1834.073,2923.677,1836.19,2893.753z M1859.79,2895.423c-1.142,16.134,20.629,31.374,47.537,33.278
							c26.908,1.904,50.608-10.118,51.75-26.252c1.142-16.134-20.629-31.374-47.537-33.278
							C1884.631,2867.267,1860.931,2879.289,1859.79,2895.423z"/>
					</g>
				</g>
			</g>
			<g style="opacity:0.5;">
				<g>
					<g>
						<path style="fill:#FFFFFF;" d="M1446.115,2905.077c-40.894-4.785-70.194-31.874-66.713-61.667l0-0.002
							c3.492-29.794,38.308-49.387,79.149-44.598c18.666,2.183,35.776,9.275,48.187,19.971
							c13.511,11.642,20.262,26.84,18.522,41.696c-1.74,14.857-11.815,28.087-27.647,36.294
							c-13.308,6.899-29.749,9.955-46.745,8.753C1449.29,2905.412,1447.703,2905.264,1446.115,2905.077z M1402.902,2846.158
							c-1.881,16.065,19.169,32.286,45.96,35.422c13.836,1.609,27.617-0.501,37.861-5.813c5.138-2.665,13.926-8.55,15.036-18.041
							c1.113-9.489-6.078-17.246-10.464-21.024c-8.741-7.534-21.676-12.779-35.492-14.396c-1.221-0.143-2.432-0.256-3.638-0.342
							C1426.853,2820.174,1404.698,2830.824,1402.902,2846.158z"/>
					</g>
				</g>
			</g>
			<g style="opacity:0.5;">
				<g>
					<g>
						<path style="fill:#FFFFFF;" d="M1061.92,2811.517c-18.661-2.194-35.771-9.295-48.174-19.996
							c-13.503-11.649-20.246-26.85-18.503-41.707l0,0c1.747-14.857,11.833-28.08,27.669-36.28
							c14.55-7.535,32.852-10.46,51.503-8.278c18.661,2.194,35.771,9.295,48.178,19.997c13.503,11.649,20.242,26.85,18.499,41.707
							c-3.362,28.586-35.514,47.763-74.237,45.022C1065.221,2811.866,1063.575,2811.712,1061.92,2811.517z M1033.789,2734.543
							c-5.141,2.661-13.933,8.544-15.046,18.032l0,0c-1.117,9.487,6.07,17.249,10.453,21.03c8.74,7.537,21.671,12.79,35.487,14.415
							c26.707,3.167,51.025-7.76,52.91-23.824c1.117-9.488-6.07-17.249-10.453-21.03c-8.737-7.537-21.671-12.79-35.487-14.415
							c-1.209-0.142-2.417-0.255-3.623-0.34C1055.452,2727.521,1043.14,2729.702,1033.789,2734.543z"/>
					</g>
				</g>
			</g>
			<g style="opacity:0.5;">
				<g>
					<g>
						<path style="fill:#FFFFFF;" d="M2283.908,2914.165c0.37-14.954,9.194-29.052,24.209-38.674
							c13.794-8.842,31.736-13.453,50.523-12.986c41.124,0.999,72.817,25.309,72.075,55.3l0,0.002
							c-0.749,29.986-33.573,52.679-74.732,51.657c-1.651-0.04-3.28-0.118-4.899-0.233
							C2312.344,2966.491,2283.195,2942.951,2283.908,2914.165z M2407.063,2917.219c0.4-16.166-22.043-30.374-49.011-31.063
							c-13.907-0.344-27.452,3.027-37.17,9.254c-4.875,3.123-13.086,9.79-13.321,19.341c-0.4,16.17,22.016,30.382,49.011,31.065
							C2383.538,2946.483,2406.663,2933.388,2407.063,2917.219L2407.063,2917.219z"/>
					</g>
				</g>
			</g>
			<g style="opacity:0.5;">
				<g>
					<g>
						<path style="fill:#FFFFFF;" d="M2677.417,2875.678c0.366-14.954,9.183-29.055,24.192-38.686
							c13.787-8.848,31.726-13.469,50.51-13.013c18.781,0.456,36.48,5.941,49.824,15.448c14.523,10.348,22.646,24.86,22.284,39.814
							c-0.366,14.955-9.182,29.055-24.192,38.686c-13.787,8.848-31.726,13.469-50.51,13.013c-1.669-0.04-3.317-0.119-4.951-0.234
							C2705.855,2927.965,2676.72,2904.451,2677.417,2875.678z M2751.545,2847.63c-13.907-0.337-27.449,3.042-37.164,9.273
							c-4.871,3.127-13.079,9.798-13.31,19.349c-0.396,16.168,22.092,30.37,49.028,31.038c13.907,0.337,27.449-3.042,37.164-9.274
							c4.871-3.127,13.08-9.8,13.31-19.349l0,0c0.235-9.551-7.642-16.614-12.357-19.972c-8.576-6.11-20.455-10.003-33.036-10.893
							C2753.975,2847.718,2752.759,2847.66,2751.545,2847.63z M2812.363,2878.953l0.037,0.003L2812.363,2878.953z"/>
					</g>
				</g>
			</g>
			<g style="opacity:0.5;">
				<g>
					<path style="fill:#FFFFFF;" d="M1260.062,2624.702c-4.176,59.017,292.13,164.112,664.949,190.495
						c372.819,26.383,680.973-35.938,685.149-94.954c4.177-59.016-294.668-128.246-667.487-154.629
						S1264.238,2565.686,1260.062,2624.702z"/>
				</g>
			</g>
			<g style="opacity:0.3;">
				<g>
					<path style="fill:#371A45;" d="M1458.919,2672.798c0,0-187.735,78.456-224.423,122.992
						c-36.688,44.536-103.458,90.825-103.458,90.825s-576.467-156.162-267.375-268.434c0,0-79.189,43.424-61.013,80.883
						c26.302,54.205,152.843,110.155,237.216,134.6c45.048,13.052,93.73,3.547,130.251-25.878
						c48.431-39.021,131.344-95.273,247.993-137.875C1458.217,2655.262,1458.919,2672.798,1458.919,2672.798z"/>
				</g>
			</g>
			<g style="opacity:0.3;">
				<g>
					<path style="fill:#371A45;" d="M2406.527,2739.856c0,0,174.816,104.112,204.866,153.371
						c30.05,49.259,89.636,104.489,89.636,104.489s592.714-73.424,302.513-228.105c0,0,73.999,55.363,49.015,88.669
						c-41.998,55.985-161.389,86.339-248.255,99.053c-49.669,7.27-99.637-10.206-134.148-46.66
						c-42.946-45.364-116.104-110.809-222.818-167.929C2409.691,2722.594,2406.527,2739.856,2406.527,2739.856z"/>
				</g>
			</g>
			<g style="opacity:0.3;">
				<g>
					<path style="fill:#371A45;" d="M2412.67,2746.354c0,0,252.481,157.022,285.833,253.647c0,0-323.365,36.032-781.158,3.636
						c-457.793-32.396-776.637-121.158-776.637-121.158s207.549-205.305,336.059-205.729c128.51-0.423,36.323,11.861,36.323,11.861
						s-184.893,66.541-284.318,149.389c-15.175,12.645-9.26,37.164,10.063,41.263c102.13,21.664,374.483,74.76,684.454,96.696
						c306.052,21.658,571.968,8.693,675.488,1.821c19.768-1.313,29.216-24.958,15.754-39.493
						c-15.037-16.235-35.795-36.885-62.571-59.689c-44.681-38.052-165.532-120.027-165.532-120.027L2412.67,2746.354z"/>
				</g>
			</g>
			<g>
				<g>
					<path style="fill:#102770;" d="M1316.234,2605.428c-4.815,68.036,271.622,143.029,617.438,167.5s630.059-10.844,634.874-78.88
						c4.815-68.036-621.126-115.383-621.126-115.383S1321.048,2537.392,1316.234,2605.428z"/>
				</g>
				<g>
					<path style="fill:#371A45;" d="M2146.602,2783.192c-67.632,0-139.478-2.593-213.105-7.803
						c-352.495-24.946-624.707-99.678-619.722-170.137c4.849-68.506,569.443-33.296,633.804-29.048
						c64.346,4.863,628.276,49.512,623.428,118.022c-2.422,34.209-70.508,61.343-191.719,76.401
						C2312.027,2778.983,2232.745,2783.192,2146.602,2783.192z M1590.567,2568.836c-144.072,0-269.868,8.462-271.87,36.768
						c-2.202,31.143,61.733,66.689,175.415,97.529c116.47,31.597,272.637,55.508,439.736,67.334
						c167.095,11.816,325.068,10.137,444.834-4.736c116.89-14.526,185.195-40.713,187.402-71.855
						c3.804-53.804-445.435-99.629-618.853-112.749C1864.996,2575.706,1720.362,2568.836,1590.567,2568.836z"/>
				</g>
			</g>
			<g>
				<g>
					<path style="fill:#102770;" d="M2003.781,2778.76c-4.49-0.152-8.999-0.326-13.528-0.522l-0.33-0.023
						c-18.446-0.787-37.266-1.849-56.397-3.203c-32.855-2.325-64.727-5.368-95.167-8.995c-0.021-0.002-0.021-0.002-0.021-0.002
						c-175.052-20.85-303.197-61.217-300.568-98.365c2.229-31.493,212.187-26.446,328.713-21.207
						c1.53,0.067,3.059,0.154,4.548,0.218c9.614,0.431,18.522,0.875,26.56,1.299c27.445,1.403,44.745,2.544,44.745,2.544
						s13.245,1,34.888,2.905c1.361,0.117,2.783,0.239,4.226,0.361c12.16,1.089,26.667,2.427,42.755,4
						c117.163,11.485,318.46,35.748,316.271,66.684c-2.565,36.24-128.821,58.002-298.605,55.321
						c-0.662-0.026-1.304-0.03-1.968-0.036L2003.781,2778.76z"/>
				</g>
				<g>
					<path style="fill:#371A45;" d="M2068.433,2782.454c-8.857,0-17.729-0.073-26.602-0.215c-0.688-0.024-1.309-0.029-1.948-0.029
						l-36.187-0.986c-4.497-0.151-9.014-0.322-13.55-0.518c-18.887-0.815-37.881-1.895-56.797-3.232
						c-32.1-2.271-64.155-5.298-95.283-9.004c-152.974-18.223-305.903-56.514-302.759-100.996
						c2.236-31.626,181.387-30.239,331.289-23.496l4.541,0.22c9.624,0.43,18.535,0.874,26.587,1.299
						c27.139,1.387,44.604,2.534,44.775,2.549c0.024,0,13.276,0.996,34.941,2.905l4.224,0.361
						c12.173,1.089,26.69,2.427,42.778,4.004c213.115,20.889,320.273,44.209,318.496,69.316
						C2340.079,2765.086,2207.042,2782.454,2068.433,2782.454z M2003.848,2776.292l36.123,0.981c0.64,0.005,1.309,0.01,1.992,0.034
						c169.106,2.651,293.687-19.624,296.055-53.027c1.46-20.688-115.942-44.634-314.053-64.053
						c-16.079-1.577-30.576-2.915-42.734-3.994l-4.209-0.361c-21.631-1.909-34.858-2.905-34.868-2.905
						c-0.151-0.01-17.583-1.157-44.688-2.539c-8.037-0.425-16.939-0.869-26.548-1.299l-4.546-0.22
						c-202.734-9.121-324.653-2.041-326.143,18.916c-2.446,34.59,123.052,74.854,298.403,95.737
						c31.069,3.701,63.047,6.724,95.068,8.989c18.862,1.333,37.817,2.407,56.328,3.198
						C1994.874,2775.97,1999.376,2776.141,2003.848,2776.292z"/>
				</g>
			</g>
			<g>
				<g>
					<path style="fill:#7A7A7A;" d="M1316.228,2605.424c-0.559,7.901,2.677,15.903,9.35,23.915
						c87.35-47.764,619.151-12.699,619.151-12.699s531.439,40.177,611.193,99.765c7.734-6.992,12.066-14.459,12.625-22.359
						c4.813-68.017-621.131-115.381-621.131-115.381S1321.041,2537.407,1316.228,2605.424z"/>
				</g>
				<g>
					<path style="fill:#371A45;" d="M2556.075,2719.598l-1.631-1.216c-78.271-58.481-604.595-98.882-609.902-99.282
						c-5.288-0.342-532.056-34.478-617.778,12.407l-1.782,0.972l-1.304-1.563c-7.168-8.613-10.508-17.251-9.912-25.669l0,0
						c4.849-68.481,569.453-33.281,633.814-29.043c64.346,4.868,628.276,49.526,623.428,118.017
						c-0.591,8.413-5.107,16.494-13.428,24.014L2556.075,2719.598z M1586.075,2601.619c165.176,0,346.074,11.719,358.813,12.559
						c21.606,1.631,526.133,40.381,610.83,99.038c6.411-6.226,9.897-12.725,10.366-19.346
						c3.804-53.784-445.435-99.619-618.853-112.744c-173.521-11.431-624.741-29.321-628.545,24.473
						c-0.464,6.616,2.07,13.545,7.544,20.615C1364.005,2607.288,1471.256,2601.619,1586.075,2601.619z"/>
				</g>
			</g>
			<g>
				<g>
					<path style="fill:#371A45;" d="M2312.496,3029.93c-125.679,0-259.199-4.814-395.986-14.492
						c-311.138-22.021-602.08-66.587-819.224-125.493c-157.393-42.7-343.726-111.709-337.622-198.003
						c6.108-86.289,200.308-128.374,362.143-148.477c223.281-27.744,517.598-30.889,828.731-8.877
						c311.138,22.021,602.075,66.587,819.224,125.493c157.393,42.7,343.726,111.709,337.622,197.998
						c-6.108,86.294-200.308,128.374-362.144,148.481C2620.128,3022.108,2472.686,3029.93,2312.496,3029.93z M771.466,2692.777
						l11.802,0.835c-3.769,53.223,115.938,118.081,320.215,173.501c215.708,58.516,505.039,102.813,814.697,124.722
						c688.042,48.691,1158.188-30.713,1165.601-135.425c3.77-53.222-115.938-118.081-320.215-173.496
						c-215.708-58.516-505.044-102.813-814.697-124.722c-309.663-21.924-602.339-18.804-824.146,8.75
						c-210.044,26.094-337.69,73.447-341.455,126.67L771.466,2692.777z"/>
				</g>
			</g>
			<g>
				<g>
					<path style="fill:#00C9FF;" d="M1323.816,2617.029c-4.75,67.128,267.995,141.119,609.194,165.264
						c341.199,24.145,621.646-10.699,626.396-77.826c16.646-235.229-70.431-726.307-567.005-761.448
						S1340.462,2381.8,1323.816,2617.029z"/>
				</g>
			</g>
			<g style="opacity:0.5;">
				<g>
					<path style="fill:#FFFFFF;" d="M2534.918,2725.718c16.646-235.229-70.432-726.307-567.004-761.447
						c-174.635-12.358-307.021,38.289-406.061,119.326c101.366-93.258,241.102-153.983,430.549-140.577
						c496.572,35.14,583.65,526.218,567.004,761.447c-0.858,12.127-10.758,23.194-28.342,33.056
						C2533.315,2733.708,2534.631,2729.773,2534.918,2725.718z"/>
				</g>
			</g>
			<g>
				<g>
					<path style="fill:#371A45;" d="M2140.509,2805.531c-72.251,0-144.463-2.778-208.628-7.314
						c-166.021-11.753-321.348-35.557-437.378-67.031c-126.802-34.399-189.59-73.188-186.611-115.283
						c4.189-59.194,27.91-266.343,157.275-446.572c124.956-174.087,307.671-257.813,528.364-242.232
						c220.698,15.62,389.785,124.273,488.979,314.224c102.69,196.65,97.002,405.073,92.817,464.272
						C2569.986,2781.043,2355.084,2805.531,2140.509,2805.531z M1940.25,1957.108c-188.174,0-339.082,77.49-449.151,230.835
						c-98.906,137.798-143.042,312.583-151.362,430.215l0,0c-0.981,13.833,32.275,46.724,163.125,82.217
						c114.092,30.952,267.256,54.39,431.274,65.996c164.004,11.601,318.95,9.971,436.27-4.6
						c134.546-16.719,172.1-44.595,173.076-58.433c8.325-117.627-10.757-296.89-89.268-447.241
						c-95.132-182.173-250.889-282.153-462.939-297.153C1973.985,1957.718,1956.959,1957.108,1940.25,1957.108z M1323.814,2617.03
						h0.049H1323.814z"/>
				</g>
			</g>
			<g>
				<g>
					<g>
						
							<ellipse transform="matrix(0.0706 -0.9975 0.9975 0.0706 -1099.9109 4611.9102)" style="fill:#FFCE00;" cx="1924.948" cy="2896.204" rx="41.668" ry="61.596"/>
					</g>
				</g>
				<g>
					<g>
						<path style="fill:#371A45;" d="M1928.428,2940.462c-2.173,0-4.375-0.078-6.597-0.234c-16.9-1.196-32.5-6.797-43.936-15.767
							c-11.714-9.194-17.7-20.835-16.851-32.783l0,0c1.719-24.272,31.758-41.973,67.021-39.497
							c35.234,2.49,62.5,24.263,60.786,48.545C1987.242,2923.47,1960.748,2940.462,1928.428,2940.462z M1865.968,2892.03
							c-0.728,10.259,4.595,20.4,14.976,28.55c10.669,8.369,25.313,13.599,41.24,14.727c32.544,2.31,60.215-13.369,61.748-34.932
							c1.523-21.563-23.696-40.972-56.216-43.271C1895.201,2854.803,1867.496,2870.477,1865.968,2892.03L1865.968,2892.03z"/>
					</g>
				</g>
			</g>
			<g style="opacity:0.3;">
				<g>
					<path style="fill:#102770;" d="M1863.503,2891.854c-0.315,4.454,0.415,8.805,2.048,12.952
						c9.148-16.162,33.19-26.616,60.535-24.681c27.345,1.935,49.675,15.67,56.456,32.96c2.201-3.876,3.536-8.08,3.852-12.535
						c1.624-22.95-24.581-43.511-58.505-45.912C1893.966,2852.239,1865.127,2868.905,1863.503,2891.854z"/>
				</g>
				<g>
					<path style="fill:#371A45;" d="M1982.139,2918.807l-1.895-4.819c-6.65-16.953-28.486-29.57-54.336-31.401
						c-25.781-1.836-49.243,7.588-58.208,23.438l-2.549,4.502l-1.895-4.814c-1.807-4.575-2.549-9.297-2.217-14.028v-0.005
						c1.724-24.272,31.768-41.963,67.026-39.502c16.89,1.197,32.495,6.797,43.931,15.772c11.714,9.194,17.705,20.835,16.855,32.778
						c-0.332,4.717-1.728,9.287-4.16,13.574L1982.139,2918.807z M1919.62,2877.43c2.193,0,4.404,0.073,6.641,0.234
						c25.229,1.782,47.002,13.442,56.23,29.619c0.791-2.246,1.274-4.556,1.441-6.904c0.728-10.259-4.595-20.396-14.985-28.55
						c-10.664-8.369-25.308-13.604-41.231-14.731c-32.441-2.222-60.225,13.374-61.753,34.927l0,0
						c-0.166,2.358-0.01,4.717,0.454,7.051C1876.822,2885.662,1897.017,2877.43,1919.62,2877.43z"/>
				</g>
			</g>
			<g>
				<g>
					<path style="fill:#371A45;" d="M1928.673,2949.832c-2.471,0-4.971-0.088-7.5-0.264c-18.745-1.328-36.167-7.632-49.053-17.744
						c-14.028-11.011-21.47-25.884-20.415-40.806l0,0c2.124-29.922,35.986-51.04,77.021-48.179
						c41.064,2.905,71.577,28.618,69.468,58.545C1996.202,2929.466,1966.285,2949.832,1928.673,2949.832z M1875.308,2892.689
						L1875.308,2892.689c-0.679,9.531,6.86,16.953,11.416,20.522c9.077,7.124,22.241,11.772,36.118,12.754
						c26.938,1.973,50.61-10.117,51.748-26.25c1.143-16.133-20.625-31.372-47.534-33.271
						C1900.157,2864.505,1876.456,2876.561,1875.308,2892.689z"/>
				</g>
			</g>
			<g>
				<g>
					<g>
						
							<ellipse transform="matrix(0.1162 -0.9932 0.9932 0.1162 -1532.6621 3975.9395)" style="fill:#FFCE00;" cx="1467.848" cy="2849.211" rx="41.668" ry="61.596"/>
					</g>
				</g>
				<g>
					<g>
						<path style="fill:#371A45;" d="M1473.482,2893.68c-3.525,0-7.119-0.21-10.767-0.635c-16.826-1.968-32.153-8.276-43.164-17.764
							c-11.279-9.722-16.724-21.626-15.332-33.521c2.827-24.175,33.687-40.464,68.76-36.387
							c35.083,4.106,61.328,27.109,58.501,51.284C1528.946,2878.319,1503.907,2893.68,1473.482,2893.68z M1462.095,2809.671
							c-27.896,0-50.732,13.511-52.974,32.666c-1.196,10.215,3.652,20.586,13.652,29.204c10.269,8.853,24.658,14.746,40.518,16.601
							c32.402,3.819,60.776-10.591,63.286-32.06c2.51-21.465-21.792-42.017-54.175-45.806
							C1468.912,2809.866,1465.465,2809.671,1462.095,2809.671z"/>
					</g>
				</g>
			</g>
			<g style="opacity:0.3;">
				<g>
					<path style="fill:#102770;" d="M1406.469,2845.015c-1.043,8.88,2.135,17.583,8.387,25.171c0.029-0.413,0.058-0.826,0.117-1.237
						c2.654-22.847,32.228-38.157,66.013-34.224c20.641,2.409,38.114,11.472,47.944,23.374
						c1.673-22.383-23.251-43.447-56.447-47.337C1438.698,2806.829,1409.125,2822.138,1406.469,2845.015z"/>
				</g>
				<g>
					<path style="fill:#371A45;" d="M1416.876,2876.507l-3.926-4.756c-6.934-8.413-10.02-17.759-8.931-27.021l0,0
						c1.382-11.9,9.424-22.231,22.646-29.087c12.9-6.689,29.297-9.292,46.104-7.334c34.663,4.063,60.41,26.016,58.623,49.975
						l-0.454,6.118l-3.911-4.731c-9.775-11.841-27.095-20.254-46.328-22.495c-15.859-1.85-31.225,0.572-43.257,6.807
						c-11.724,6.079-18.833,15.044-20.02,25.249c-0.059,0.415-0.078,0.767-0.107,1.113L1416.876,2876.507z M1461.885,2812.611
						c-12.114,0-23.545,2.539-32.944,7.417c-11.724,6.074-18.833,15.049-20.019,25.269v0.005c-0.737,6.26,0.815,12.627,4.507,18.657
						c2.71-9.868,10.278-18.418,21.743-24.355c12.896-6.689,29.277-9.292,46.099-7.329c17.725,2.065,33.989,9.141,44.898,19.312
						c-3.145-18.525-25.674-35.054-53.97-38.374C1468.726,2812.806,1465.279,2812.611,1461.885,2812.611z"/>
				</g>
			</g>
			<g>
				<g>
					<path style="fill:#371A45;" d="M1473.824,2903.06c-3.984,0-8.057-0.234-12.197-0.718c-18.662-2.183-35.776-9.272-48.188-19.971
						c-13.506-11.641-20.254-26.841-18.516-41.699c3.491-29.79,38.276-49.365,79.146-44.595
						c40.889,4.785,70.19,31.875,66.709,61.665C1537.642,2884.525,1509.234,2903.06,1473.824,2903.06z M1462.144,2819.036
						c-22.93,0-42.061,10.185-43.726,24.389c-1.108,9.488,6.079,17.246,10.469,21.026c8.74,7.534,21.675,12.778,35.488,14.395
						c26.821,3.11,51.021-7.788,52.905-23.853c1.875-16.06-19.175-32.285-45.967-35.42
						C1468.214,2819.212,1465.147,2819.036,1462.144,2819.036z"/>
				</g>
			</g>
			<g>
				<g>
					<g>
						
							<ellipse transform="matrix(0.1168 -0.9932 0.9932 0.1168 -1779.6549 3510.1626)" style="fill:#FFCE00;" cx="1083.684" cy="2755.653" rx="41.668" ry="61.596"/>
					</g>
				</g>
				<g>
					<g>
						<path style="fill:#371A45;" d="M1089.493,2800.135c-3.613,0-7.275-0.215-10.962-0.649
							c-16.826-1.978-32.153-8.291-43.154-17.788c-11.279-9.727-16.719-21.631-15.317-33.525
							c1.396-11.895,9.448-22.217,22.671-29.063c12.905-6.68,29.292-9.272,46.108-7.29c35.083,4.121,61.313,27.139,58.472,51.313
							c-1.396,11.895-9.448,22.212-22.676,29.063C1114.556,2797.41,1102.364,2800.135,1089.493,2800.135z M1077.857,2716.107
							c-12.08,0-23.476,2.534-32.856,7.388c-11.724,6.069-18.838,15.039-20.039,25.254l0,0
							c-1.201,10.215,3.643,20.591,13.638,29.214c10.269,8.853,24.653,14.756,40.508,16.621c15.854,1.86,31.221-0.542,43.257-6.772
							c11.724-6.069,18.843-15.039,20.044-25.254c2.524-21.47-21.768-42.031-54.146-45.835
							C1084.761,2716.312,1081.28,2716.107,1077.857,2716.107z"/>
					</g>
				</g>
			</g>
			<g style="opacity:0.3;">
				<g>
					<path style="fill:#102770;" d="M1022.502,2748.471c-1.869,15.936,9.847,31.351,28.584,40.563
						c-4.42-6.657-6.539-14.011-5.654-21.479c2.684-22.845,32.257-38.155,66.041-34.193c10.232,1.198,19.667,4.03,27.773,8.043
						c-9.05-13.714-27.946-24.449-50.703-27.127C1054.761,2710.286,1025.188,2725.596,1022.502,2748.471z"/>
				</g>
				<g>
					<path style="fill:#371A45;" d="M1058.189,2795.281l-8.193-4.028c-20.405-10.039-31.88-26.538-29.946-43.071l0,0
						c1.396-11.904,9.448-22.227,22.676-29.077c12.91-6.685,29.292-9.263,46.104-7.28c22.646,2.666,42.754,13.481,52.476,28.223
						l5.029,7.622l-8.184-4.053c-8.042-3.984-17.368-6.68-26.968-7.803c-32.358-3.799-60.781,10.571-63.301,32.031
						c-0.781,6.606,1.035,13.462,5.259,19.824L1058.189,2795.281z M1024.952,2748.758c-1.455,12.427,6.123,24.995,20.112,34.048
						c-1.982-5.107-2.695-10.371-2.085-15.537c2.837-24.16,33.701-40.493,68.779-36.357c6.67,0.781,13.052,2.222,19.077,4.307
						c-10.059-9.644-25.518-16.48-42.583-18.491c-15.869-1.865-31.211,0.527-43.257,6.763
						C1033.272,2729.559,1026.153,2738.533,1024.952,2748.758L1024.952,2748.758z"/>
				</g>
			</g>
			<g>
				<g>
					<path style="fill:#371A45;" d="M1089.459,2809.49c-3.97,0-7.983-0.234-12.021-0.708c-18.662-2.192-35.772-9.292-48.179-19.995
						c-13.501-11.65-20.244-26.851-18.496-41.709l0,0c1.748-14.858,11.831-28.081,27.666-36.279
						c14.546-7.529,32.827-10.469,51.504-8.276c40.889,4.805,70.176,31.909,66.675,61.704
						c-1.748,14.858-11.831,28.081-27.666,36.279C1117.535,2806.409,1103.834,2809.49,1089.459,2809.49z M1078.048,2725.482
						c-10.625,0-20.762,2.192-28.74,6.328c-5.142,2.661-13.935,8.54-15.049,18.032l0,0c-1.118,9.487,6.069,17.251,10.454,21.03
						c8.735,7.539,21.67,12.793,35.488,14.414c13.813,1.636,27.612-0.488,37.861-5.791c5.142-2.661,13.936-8.545,15.049-18.032
						c1.89-16.064-19.15-32.295-45.942-35.444C1084.117,2725.657,1081.06,2725.482,1078.048,2725.482z M1022.51,2748.46h0.049
						H1022.51z"/>
				</g>
			</g>
			<g>
				<g>
					<g>
						
							<ellipse transform="matrix(0.0248 -0.9997 0.9997 0.0248 -598.3707 5213.1064)" style="fill:#FFCE00;" cx="2372.828" cy="2913.252" rx="41.668" ry="61.596"/>
					</g>
				</g>
				<g>
					<g>
						<path style="fill:#371A45;" d="M2374.107,2957.401c-0.791,0-1.582-0.01-2.378-0.029c-16.929-0.415-32.773-5.293-44.604-13.735
							c-12.124-8.648-18.638-20-18.34-31.973c0.601-24.321,29.8-43.545,65.137-42.534c35.317,0.874,63.555,21.382,62.949,45.713
							c-0.293,11.968-7.363,22.988-19.902,31.025C2405.308,2953.338,2390.162,2957.401,2374.107,2957.401z M2371.573,2874.036
							c-31.587,0-57.329,16.641-57.856,37.754c-0.254,10.278,5.527,20.161,16.274,27.827c11.035,7.871,25.903,12.427,41.86,12.822
							c15.947,0.308,31.04-3.413,42.456-10.732c11.113-7.124,17.373-16.709,17.632-26.992c0.537-21.606-25.547-39.844-58.14-40.654
							C2373.057,2874.046,2372.31,2874.036,2371.573,2874.036z"/>
					</g>
				</g>
			</g>
			<g style="opacity:0.3;">
				<g>
					<path style="fill:#102770;" d="M2311.24,2911.71c-0.256,10.743,5.504,20.667,15.166,28.259
						c-0.495-2.229-0.717-4.527-0.672-6.836c0.589-22.994,28.602-40.963,62.607-40.128c18.141,0.454,34.339,6.166,45.373,14.891
						c-4.315-19.872-29.295-35.544-59.836-36.312C2339.843,2870.747,2311.83,2888.717,2311.24,2911.71z"/>
				</g>
				<g>
					<path style="fill:#371A45;" d="M2330.328,2946.19l-5.444-4.277c-10.659-8.374-16.377-19.121-16.108-30.259v-0.005
						c0.625-24.326,29.961-43.403,65.161-42.529c31.392,0.786,57.544,16.875,62.188,38.252l1.465,6.738l-5.41-4.282
						c-10.996-8.696-26.997-13.931-43.901-14.356c-32.622-0.708-59.526,16.128-60.078,37.725c-0.039,2.124,0.166,4.229,0.615,6.235
						L2330.328,2946.19z M2313.707,2911.776c-0.186,7.813,3.169,15.483,9.551,22.061c0-0.249,0.005-0.498,0.01-0.752
						c0.61-23.799,28.579-42.573,62.822-42.573c0.771,0,1.538,0.01,2.31,0.029c14.917,0.371,29.233,4.316,40.425,11.006
						c-7.871-15.479-29.927-26.865-55.01-27.495C2341.304,2873.411,2314.263,2890.169,2313.707,2911.776z"/>
				</g>
			</g>
			<g>
				<g>
					<path style="fill:#371A45;" d="M2374.093,2966.761c-0.864,0-1.729-0.01-2.593-0.029c-18.784-0.464-36.475-5.962-49.814-15.474
						c-14.517-10.356-22.632-24.873-22.261-39.824c0.742-29.995,33.584-52.637,74.731-51.665
						c41.162,1.025,72.817,25.317,72.075,55.303c-0.371,14.956-9.194,29.053-24.209,38.677
						C2408.863,2962.176,2391.929,2966.761,2374.093,2966.761z M2371.602,2883.397c-26.118,0-48.135,12.852-48.525,28.623
						c-0.239,9.551,7.632,16.616,12.349,19.976c9.395,6.704,22.754,10.742,36.66,11.084c13.936,0.332,27.461-3.027,37.168-9.253
						c4.878-3.125,13.091-9.79,13.325-19.341l0,0c0.4-16.172-22.041-30.396-49.009-31.064
						C2372.911,2883.402,2372.252,2883.397,2371.602,2883.397z"/>
				</g>
			</g>
			<g>
				<g>
					<g>
						
							<ellipse transform="matrix(0.0243 -0.9997 0.9997 0.0243 -174.6576 5570.5073)" style="fill:#FFF5A4;" cx="2766.339" cy="2874.728" rx="41.668" ry="61.596"/>
					</g>
					<g>
						<path style="fill:#371A45;" d="M2767.589,2918.323c-0.767,0-1.538-0.01-2.305-0.029c-16.826-0.405-32.563-5.244-44.312-13.613
							c-11.973-8.53-18.408-19.717-18.12-31.499c0.283-11.777,7.256-22.637,19.629-30.576c12.139-7.788,28.047-11.855,44.917-11.44
							c16.826,0.405,32.559,5.239,44.307,13.608c11.973,8.53,18.408,19.717,18.12,31.499c-0.283,11.777-7.256,22.636-19.629,30.576
							C2798.614,2914.281,2783.56,2918.323,2767.589,2918.323z M2765.069,2834.959c-15.239,0-29.556,3.823-40.527,10.864
							c-11.27,7.231-17.617,16.982-17.871,27.451c-0.254,10.479,5.61,20.522,16.519,28.296c11.133,7.93,26.113,12.515,42.183,12.905
							c16.113,0.41,31.255-3.462,42.764-10.845c11.27-7.231,17.617-16.982,17.871-27.451v-0.005
							c0.254-10.469-5.61-20.518-16.519-28.286c-11.133-7.935-26.113-12.515-42.183-12.905
							C2766.558,2834.964,2765.811,2834.959,2765.069,2834.959z"/>
					</g>
				</g>
				<g>
					<g>
						<path style="fill:#371A45;" d="M2767.574,2928.24c-0.845,0-1.685-0.01-2.534-0.029c-18.784-0.454-36.479-5.942-49.824-15.449
							c-14.521-10.352-22.646-24.863-22.28-39.819c0.361-14.951,9.18-29.053,24.189-38.682
							c13.789-8.848,31.841-13.442,50.513-13.013c18.784,0.454,36.479,5.942,49.824,15.449
							c14.521,10.347,22.646,24.858,22.28,39.814c-0.361,14.951-9.18,29.053-24.189,38.682
							C2802.388,2923.646,2785.43,2928.24,2767.574,2928.24z M2765.152,2844.876c-13.232,0-25.986,3.35-35.254,9.297
							c-4.873,3.125-13.081,9.795-13.311,19.346c-0.234,9.551,7.642,16.616,12.358,19.976c9.395,6.694,22.764,10.727,36.67,11.064
							c13.965,0.332,27.451-3.042,37.163-9.272c4.873-3.13,13.081-9.8,13.311-19.351l0,0c0.234-9.551-7.642-16.611-12.358-19.971
							c-9.395-6.694-22.764-10.728-36.67-11.064C2766.427,2844.886,2765.787,2844.876,2765.152,2844.876z"/>
					</g>
				</g>
			</g>
			<g>
				<g>
					<g>
						
							<ellipse transform="matrix(0.0243 -0.9997 0.9997 0.0243 -174.6576 5570.5073)" style="fill:#FFCE00;" cx="2766.339" cy="2874.728" rx="41.668" ry="61.596"/>
					</g>
				</g>
				<g>
					<g>
						<path style="fill:#371A45;" d="M2767.589,2918.88c-0.771,0-1.543-0.01-2.319-0.029c-16.938-0.41-32.783-5.278-44.619-13.716
							c-12.129-8.638-18.647-19.99-18.354-31.963c0.288-11.973,7.349-22.993,19.883-31.035
							c12.231-7.847,28.232-11.924,45.229-11.528c16.938,0.41,32.783,5.278,44.619,13.711c12.129,8.643,18.647,19.995,18.354,31.963
							l0,0c-0.288,11.973-7.349,22.993-19.883,31.035C2798.829,2914.808,2783.668,2918.88,2767.589,2918.88z M2765.069,2835.516
							c-15.132,0-29.346,3.794-40.225,10.776c-11.108,7.129-17.368,16.719-17.617,26.997c-0.249,10.283,5.532,20.166,16.284,27.827
							c11.045,7.866,25.918,12.412,41.875,12.803c15.962,0.322,31.04-3.433,42.446-10.757c11.108-7.129,17.368-16.719,17.617-26.997
							l0,0c0.249-10.283-5.532-20.166-16.284-27.822c-11.045-7.866-25.913-12.412-41.875-12.803
							C2766.549,2835.526,2765.806,2835.516,2765.069,2835.516z"/>
					</g>
				</g>
			</g>
			<g style="opacity:0.3;">
				<g>
					<path style="fill:#102770;" d="M2704.761,2873.239c-0.417,16.78,13.922,31.58,34.915,38.669
						c-5.822-6.549-9.073-14.22-8.885-22.33c0.56-22.995,28.575-40.995,62.579-40.159c9.233,0.238,17.927,1.802,25.712,4.488
						c-10.593-12.015-29.721-20.306-51.741-20.827C2733.336,2832.244,2705.323,2850.214,2704.761,2873.239z"/>
				</g>
				<g>
					<path style="fill:#371A45;" d="M2747.701,2917.225l-8.818-2.979c-22.651-7.651-37.017-23.775-36.587-41.064l0,0
						c0.288-11.982,7.354-23.008,19.883-31.05c12.227-7.847,28.384-11.997,45.22-11.519c22.021,0.523,42.031,8.618,53.535,21.66
						l6.191,7.017l-8.848-3.052c-7.705-2.661-16.108-4.126-24.971-4.355c-16.045-0.288-31.03,3.428-42.437,10.757
						c-11.108,7.129-17.363,16.719-17.612,26.997c-0.166,7.226,2.69,14.36,8.262,20.63L2747.701,2917.225z M2765.05,2835.521
						c-15.132,0-29.336,3.794-40.205,10.767c-11.108,7.129-17.363,16.724-17.617,27.012v0.005
						c-0.322,13.091,9.463,25.542,25.488,33.145c-3.027-5.361-4.526-11.099-4.39-16.929c0.288-11.973,7.349-22.993,19.878-31.035
						c12.236-7.856,28.423-11.895,45.225-11.533c5.669,0.146,11.162,0.771,16.426,1.865c-10.869-8.042-26.084-12.876-42.573-13.271
						C2766.534,2835.531,2765.792,2835.521,2765.05,2835.521z"/>
				</g>
			</g>
			<g>
				<g>
					<path style="fill:#371A45;" d="M2767.574,2928.24c-0.845,0-1.685-0.01-2.534-0.029c-18.784-0.454-36.479-5.942-49.824-15.449
						c-14.521-10.352-22.646-24.863-22.28-39.819c0.361-14.951,9.18-29.053,24.189-38.682c13.789-8.848,31.841-13.442,50.513-13.013
						c18.784,0.454,36.479,5.942,49.824,15.449c14.521,10.347,22.646,24.858,22.28,39.814c-0.361,14.951-9.18,29.053-24.189,38.682
						C2802.388,2923.646,2785.43,2928.24,2767.574,2928.24z M2765.152,2844.876c-13.232,0-25.986,3.35-35.254,9.297
						c-4.873,3.125-13.081,9.795-13.311,19.346c-0.234,9.551,7.642,16.616,12.358,19.976c9.395,6.694,22.764,10.727,36.67,11.064
						c13.965,0.332,27.451-3.042,37.163-9.272c4.873-3.13,13.081-9.8,13.311-19.351l0,0c0.234-9.551-7.642-16.611-12.358-19.971
						c-9.395-6.694-22.764-10.728-36.67-11.064C2766.427,2844.886,2765.787,2844.876,2765.152,2844.876z"/>
				</g>
			</g>
			<g>
				<g>
					<path style="fill:#371A45;" d="M1136.353,2899.803c-2.534,0-5.083-0.811-7.241-2.485c-5.161-4.004-6.099-11.436-2.095-16.597
						c107.192-138.193,297.476-193.335,305.522-195.615c6.289-1.763,12.822,1.875,14.6,8.154c1.782,6.284-1.865,12.822-8.149,14.609
						c-1.9,0.537-190.933,55.405-293.281,187.354C1143.38,2898.226,1139.884,2899.803,1136.353,2899.803z"/>
				</g>
			</g>
			<g>
				<g>
					<path style="fill:#371A45;" d="M2696.5,3010.208c-4.106,0-8.101-2.144-10.283-5.972
						c-75.889-133.022-229.956-210.747-260.068-224.98c-5.908-2.788-8.433-9.839-5.64-15.747c2.783-5.898,9.839-8.433,15.747-5.64
						c31.24,14.761,191.104,95.454,270.508,234.648c3.237,5.674,1.265,12.896-4.414,16.133
						C2700.504,3009.705,2698.487,3010.208,2696.5,3010.208z"/>
				</g>
			</g>
			<g style="opacity:0.5;">
				<g>
					<path style="fill:#FFFFFF;" d="M2466.753,2560.799c0,0,24.058-102.373-55.813-227.087
						c-68.226-106.532-124.399-48.651-96.289,13.15c38.567,84.791,52.472,164.112,62.747,248.197
						C2383.278,2643.177,2454.623,2669.973,2466.753,2560.799z"/>
				</g>
			</g>
			<g style="opacity:0.5;">
				<g>
					<path style="fill:#FFFFFF;" d="M2269.694,2240.961c17.331,9.593,72.41,20.047,65.728-40.903
						c-6.683-60.95-70.591-82.751-95.518-63.609C2225.354,2147.622,2221.701,2214.395,2269.694,2240.961z"/>
				</g>
			</g>
			<g style="opacity:0.5;">
				<g>
					<path style="fill:#FFFFFF;" d="M2911.744,2764.599c-55.48-38.095-144.83-67.628-228.217-69.404
						c-75.479-1.608,59.808,34.741,107.236,49.494c34.166,10.627,97.041,39.918,127.168,47.789
						C2948.057,2800.349,2946.832,2788.692,2911.744,2764.599z"/>
				</g>
			</g>
			<g>
				<g style="opacity:0.3;">
					<g>
						<path style="fill:#371A45;" d="M1369.755,2630.906c14.425-203.836,134.617-589.351,495.957-656.135
							c0.15-0.101,0.255-0.171,0.396-0.266c-12.189,8.19-58.024,39.953-113.902,90.736
							c-223.6,203.206-116.374,574.621,181.127,627.376c180.804,32.061,396.892,46.567,609.983,3.632
							c5.731-1.155,11.275-2.193,16.84-3.244c-0.15,2.505-0.296,5.022-0.469,7.471c-4.683,66.174-281.144,100.523-617.494,76.72
							c-243.562-17.236-451.703-60.239-546.248-107.78C1378.097,2656.593,1368.855,2643.625,1369.755,2630.906z"/>
					</g>
				</g>
			</g>
		</g>
		<g>
			<g>
				<path style="fill:#62ED2E;" d="M2300.014,2234.314c19.812,55.628,89.564,40.395,118.728,37.31
					c-34.417,41.167-32.152,95.108,5.495,120.56c58.665,39.624,162.064-11.28,209.305-4.291
					c6.122,18.125,12.388,38.371,15.57,57.219c54.23-44.204,61.75-102.917,51.965-157.582c-0.916-5.013-1.977-10.026-3.133-14.943
					c-22.753-95.687-105.424-182.599-203.424-229.117c-66.907-31.767-128.32-35.671-135.166-4.194
					c-6.797,31.478,53.315,69.174,53.315,69.174s-92.842,26.899-112.992,81.611v0.048
					C2294.809,2203.222,2294.182,2217.972,2300.014,2234.314z"/>
			</g>
		</g>
		<g>
			<g>
				<path style="fill:#31C418;" d="M2300.014,2234.314c19.812,55.628,89.564,40.395,118.728,37.31
					c-34.417,41.167-32.152,95.108,5.495,120.56c58.665,39.624,162.064-11.28,209.305-4.291
					c6.122,18.125,12.388,38.371,15.57,57.219c54.23-44.204,61.75-102.917,51.965-157.582
					c-14.076,19.667-45.12,51.868-102.676,63.389c-85.081,17.017-153.098,33.985-177.634,0
					c-24.584-33.984,5.302-73.127,18.848-87.925c57.99-63.341,164.522-46.132,164.522-46.132s-15.087-44.059-72.5-43.24
					c-62.955,0.916-238.758,114.631-231.961,16.486C2294.809,2203.222,2294.182,2217.972,2300.014,2234.314z"/>
			</g>
		</g>
		<g>
			<g>
				<path style="fill:#371A45;" d="M2649.132,2464.403c-2.275,0-4.565-0.405-6.768-1.23c-6.421-2.407-11.079-8.047-12.236-14.81
					c-2.334-13.696-6.558-28.574-10.747-41.777c-13.633,0.674-31.738,4.429-50.645,8.35
					c-49.517,10.269-111.162,23.052-155.288-6.772c-20.596-13.921-33.882-35.356-37.402-60.356
					c-2.456-17.446-0.044-35.654,6.729-53.008c-36.45,1.885-83.154-4.126-100.933-53.994c-8.271-23.213-6.924-45.796,3.999-67.124
					c17.744-34.634,58.101-57.905,87.471-70.957c-18.892-17.114-38.359-41.763-32.778-67.515
					c2.822-13.042,11.372-23.667,24.067-29.912c29.063-14.297,80.723-6.538,138.203,20.757
					c108.721,51.636,190.674,144.39,213.882,242.07c19.111,80.439-0.029,146.812-55.361,191.938
					C2657.828,2462.913,2653.507,2464.403,2649.132,2464.403z M2623.468,2367.923c4.482,0,8.774,0.273,12.871,0.874
					c7.173,1.055,13.149,6.05,15.464,12.925c2.549,7.559,5.352,16.143,7.993,25.186c25.781-33.486,32.104-76.284,19.37-129.868
					c-20.259-85.273-95.977-170.117-192.905-216.152c-49.199-23.359-89.883-28.237-104.639-20.986
					c-2.964,1.46-3.218,2.622-3.403,3.472c-2.207,10.205,22.222,34.595,44.717,48.77c6.421,4.048,9.883,11.494,8.818,19.014
					c-1.06,7.52-6.426,13.721-13.721,15.83c-21.274,6.211-80.278,29.849-97.891,64.326c-5.947,11.631-6.592,23.589-1.973,36.543
					c11.694,32.817,50.161,30.752,88.545,25.82c3.687-0.474,7.061-0.903,10.034-1.216c7.842-0.83,15.342,3.183,19.033,10.107
					c3.696,6.934,2.813,15.415-2.227,21.44c-14.985,17.915-22.031,39.209-19.326,58.418c2.012,14.258,9.209,25.942,20.811,33.784
					c30.645,20.718,81.23,10.215,125.869,0.967C2584.493,2372.283,2605.504,2367.923,2623.468,2367.923z"/>
			</g>
		</g>
		<g>
			<g>
				<path style="fill:#371A45;" d="M2512.605,2110.638c-31.867,2.296-65.669,6.924-95.752,16.646
					c-27.139,7.504-36.17-32.923-8.361-37.645c27.074-3.336,52.592-2.767,79.113-0.858c8.638,0.665,17.075,1.482,25.835,2.594
					c5.3,0.673,9.05,5.514,8.379,10.813C2521.218,2106.951,2517.236,2110.461,2512.605,2110.638L2512.605,2110.638z"/>
			</g>
		</g>
		<g>
			<g>
				<path style="fill:#371A45;" d="M2602.805,2226.613c-42.209-11.183-88.628-2.698-125.52,20.032
					c-3.118,2.172-11.496,7.961-14.539,10.061c-10.626,8.345-20.965,18.519-30.144,28.354c-17.89,20.17-47.129-5.82-28.879-25.752
					c12.162-11.054,25.745-22.009,39.595-30.923c3.777-2.155,14.31-8.041,18.264-10.238c0,0,12.798-5.627,12.798-5.627
					c38.2-16.196,81.864-19.245,121.831-8.379c7.907,2.379,23.223,5.023,18.967,16.948
					C2613.244,2226.064,2607.687,2228.353,2602.805,2226.613L2602.805,2226.613z"/>
			</g>
		</g>
		<g>
			<g>
				<g>
					<path style="fill:#62ED2E;" d="M2664.606,2384.124c0,0-19.65-5.745-31.073,3.752"/>
				</g>
			</g>
			<g>
				<g>
					<path style="fill:#371A45;" d="M2661.899,2393.378c-5.177,0.853-12.72,2.175-15.92,6.633c-0.618,1.09-0.559,2.107-0.12,2.692
						c-8.188,6.808-20.344,5.69-27.153-2.499c-6.809-8.19-5.688-20.347,2.5-27.155c4.692-2.762,9.546-4.335,14.036-5.028
						c11.82-1.512,21.865,1.588,32.07,6.849c4.712,2.415,6.575,8.193,4.16,12.906
						C2669.639,2391.615,2665.694,2392.874,2661.899,2393.378L2661.899,2393.378z"/>
				</g>
			</g>
		</g>
		<g>
			<g>
				<path style="fill:#62ED2E;" d="M1319.579,2375.457c7.713-14.028,9.352-26.657,27.862-52.977
					c39.528,41.938,80.839,125.669,152.327,105.906c85.226-23.573,55.146-135.359,55.146-135.359
					c63.196,58.039,184.768,25.934,153.58-70.716c-6.17-19.138-15.233-35.576-25.259-49.458
					c-28.827-39.914-65.751-58.57-65.751-58.57s59.389-40.347,41.697-80.646c-22.56-22.511-70.716-31.622-139.359-3.712
					c-100.459,40.878-189.638,123.067-220.247,210.269c-0.193,0.626-0.434,1.253-0.627,1.831
					C1279.569,2298.137,1278.316,2345.04,1319.579,2375.457z"/>
			</g>
		</g>
		<g>
			<g>
				<path style="fill:#31C418;" d="M1319.579,2375.457c7.713-14.028,9.352-26.657,27.862-52.977
					c39.528,41.938,80.839,125.669,152.327,105.906c85.226-23.573,55.146-135.359,55.146-135.359
					c63.196,58.039,184.768,25.934,153.58-70.716c-6.17-19.138-15.233-35.576-25.259-49.458
					c8.966,28.537,10.653,67.872-36.443,86.768c-77.707,31.188-128.177-113.04-242.759-89.854c0,0,121.958,35.913,129.911,123.26
					c6.267,68.933-60.689,95.301-115.161,49.94c-41.553-34.611-83.443-105.279-119.837-100.941
					C1279.569,2298.137,1278.316,2345.04,1319.579,2375.457z"/>
			</g>
		</g>
		<g>
			<g>
				<path style="fill:#371A45;" d="M1478.59,2450.657c-53.95,0.005-91.548-48.091-120.039-84.531
					c-2.9-3.706-5.747-7.349-8.545-10.864c-2.495,4.951-4.331,9.316-6.143,13.613c-2.139,5.088-4.356,10.352-7.422,15.903
					c-2.681,4.863-7.334,8.335-12.759,9.521c-5.434,1.191-11.099-0.024-15.571-3.325c-58.262-43.003-43.154-110.278-26.719-157.144
					c31.714-90.469,122.461-177.515,231.177-221.758c67.729-27.554,127.627-24.609,160.225,7.896
					c1.704,1.699,3.076,3.701,4.043,5.908c14.287,32.573-4.956,64.668-26.855,86.411c24.053,17.837,59.932,51.753,76.851,104.111
					c14.443,44.707,1.933,84.941-33.457,107.627c-32.163,20.62-76.382,22.202-113.828,6.88
					c1.064,45.288-14.121,99.331-74.634,116.055C1495.733,2449.5,1486.959,2450.657,1478.59,2450.657z M1347.442,2303.197
					c5.298,0,10.381,2.183,14.038,6.064c9.189,9.761,18.062,21.104,27.451,33.11c36.372,46.533,65.229,78.613,105.708,67.422
					c66.021-18.247,42.7-107.964,41.68-111.772c-2.231-8.286,1.284-17.046,8.618-21.494c7.344-4.453,16.733-3.511,23.047,2.285
					c31.597,29.038,78.882,29.233,104.575,12.749c20.61-13.208,26.685-35.103,17.573-63.306
					c-21.084-65.254-80.786-96.479-81.387-96.787c-6.06-3.105-10.059-9.194-10.479-15.991c-0.42-6.792,2.749-13.311,8.374-17.139
					c11.348-7.783,40.742-33.398,35.967-53.716c-17.959-14.561-56.675-20.776-115.508,3.174
					c-97.407,39.639-181.528,119.531-209.316,198.794c-15.239,43.462-16.753,73.418-3.955,94.863
					c3.862-8.096,9.204-17.788,17.842-30.068c3.335-4.741,8.623-7.729,14.399-8.14
					C1346.529,2303.211,1346.988,2303.197,1347.442,2303.197z"/>
			</g>
		</g>
		<g>
			<g>
				<path style="fill:#371A45;" d="M1498.623,2076.703c43.173,0.168,86.048,5.317,126.907,20.052
					c10.059,3.616,15.278,14.7,11.663,24.756c-3.616,10.057-14.697,15.28-24.756,11.664c-9.521-4.576-18.644-9.864-28.836-13.796
					c-27.433-11.18-57.092-18.909-86.357-23.473C1485.629,2094.061,1486.901,2076.839,1498.623,2076.703L1498.623,2076.703z"/>
			</g>
		</g>
		<g>
			<g>
				<path style="fill:#371A45;" d="M1403.665,2160.153c69.426,1.821,130.737,69.414,167.668,122.71
					c14.33,21.08-15.623,42.924-31.289,22.677c-16.344-28.2-34.618-57.097-57.776-80.153c-18.901-19.317-41.64-36.504-67.88-44.057
					c-3.636-0.941-8.088-1.781-11.482-2.081C1391.317,2177.816,1392.018,2160.636,1403.665,2160.153L1403.665,2160.153z"/>
			</g>
		</g>
		<g>
			<g>
				<path style="fill:#371A45;" d="M1322.612,2284.567c17.218,7.48,32.104,15.684,44.224,31.69
					c16.326,21.586-14.255,46.25-31.89,25.693c-2.407-2.989-3.847-6.533-4.343-10.075c-0.591-4.333-3.203-10.005-6.577-15.398
					c-3.555-5.699-8.188-11.517-12.603-16.512C1304.603,2292.36,1313.434,2280.457,1322.612,2284.567L1322.612,2284.567z"/>
			</g>
		</g>
		<g>
			<g>
				<g>
					<path style="fill:#62ED2E;" d="M1553.883,3383.069c0,0,8.507,100.946-6.151,149.151"/>
				</g>
			</g>
			<g>
				<g>
					<path style="fill:#371A45;" d="M1563.489,3382.258c6.154,51.958,12.97,103.303,2.692,155.571
						c-2.361,10.485-12.858,17.044-23.317,14.559c-11.324-2.585-17.833-14.987-13.579-25.779
						c11.353-32.799,12.952-70.745,14.559-105.733c0.396-12.359,0.588-24.889,0.432-37.141
						C1544.329,3371.779,1561.625,3370.451,1563.489,3382.258L1563.489,3382.258z"/>
				</g>
			</g>
		</g>
		<g>
			<g>
				<g>
					<path style="fill:#62ED2E;" d="M1077.202,1457.87c45.054,280.432,262.173,507.92,580.2,620.203
						c314.553,111.057,485.737,74.515,588.566,33.103c262.216-105.602,622.222-467.43,533.318-960.261
						c-41.579-230.57-159.53-435.67-323.846-579.576c-5.208-4.544-10.409-9.035-15.697-13.406
						c-184.759-154.682-424.926-233.176-679.896-187.238c-242.891,43.831-433.819,188.864-554.267,383.668
						c-95.645,154.567-146.911,340.461-144.697,532.127C1061.512,1343.309,1067.986,1400.508,1077.202,1457.87z"/>
				</g>
			</g>
			<g>
				<g>
					<path style="fill:#31C418;" d="M1180.222,1723.445c101.59,156.407,267.442,280.554,477.193,354.638
						c314.565,111.057,485.71,74.5,588.564,33.097c154.881-62.356,343.881-214.138,454.306-429.489
						c-124.683,160.295-283.155,274.222-419.003,328.946c-119.376,48.068-318.146,90.513-683.298-38.402
						C1432.836,1913.895,1291.088,1828.854,1180.222,1723.445z"/>
				</g>
			</g>
			<g style="opacity:0.5;">
				<g>
					<path style="fill:#FFFFFF;" d="M1060.812,1256.581c19.269-142.744,67.367-278.488,140.416-396.605
						c124.807-201.869,322.659-352.203,574.359-397.586c264.219-47.605,513.099,33.716,704.576,194.004
						c5.504,4.55,10.866,9.175,16.245,13.901c100.286,87.825,183.842,197.582,244.44,321.812
						c-57.54-169.56-157.412-318.805-285.41-430.892c-5.197-4.549-10.384-9.049-15.707-13.423
						c-184.73-154.707-424.891-233.175-679.891-187.26c-242.866,43.856-433.829,188.875-554.285,383.68
						C1113.213,893.5,1062.245,1071.927,1060.812,1256.581z"/>
				</g>
			</g>
			<g>
				<g>
					<path style="fill:#371A45;" d="M2028.326,2171.356c-95.835,0.005-218.467-19.009-377.344-75.098
						c-159.702-56.387-298.052-143.535-400.088-252.022c-103.472-110.005-170.117-242.549-192.729-383.311
						c-10.723-66.738-15.986-122.1-16.563-174.224c-2.256-195.215,48.774-382.808,147.583-542.485
						c130.205-210.596,331.66-349.985,567.241-392.495c247.842-44.668,494.912,23.33,695.693,191.426
						c5.327,4.399,10.659,9.004,15.996,13.667c171.26,149.981,288.501,359.746,330.146,590.679
						c51.23,283.994-46.763,504.546-137.988,639.556c-103.501,153.179-255.688,281.035-407.104,342.012
						C2200.733,2150.179,2129.449,2171.351,2028.326,2171.356z M1904.786,376.937c-46.919,0-94.209,4.214-141.519,12.734
						c-224.668,40.542-416.904,173.657-541.284,374.834c-94.951,153.442-143.989,333.867-141.816,521.763
						c0.552,50.181,5.659,103.73,16.074,168.54v0.005c43.159,268.638,255.337,494.839,567.583,605.078
						c314.204,110.933,478.609,72.188,574.942,33.398c267.461-107.715,606.099-470.234,521.548-938.95
						c-40.103-222.373-152.886-424.263-317.578-568.491c-5.054-4.409-10.122-8.789-15.278-13.052
						C2273.922,444.251,2092.301,376.937,1904.786,376.937z"/>
				</g>
			</g>
			<g>
				<g>
					<g>
						<path style="fill:#371A45;" d="M2704.429,1224.824c62.987,57.028,114.779,215.228,4.579,394.863
							s-334.411,214.387-404.086,145.234c-53.494-53.094-94.529-203.876,15.67-383.512S2639.926,1166.423,2704.429,1224.824z"/>
					</g>
				</g>
				<g style="opacity:0.5;">
					<g>
						<path style="fill:#FFFFFF;" d="M2265.604,1682.528c-2.694-66.39,14.824-148.158,69.31-236.965
							c110.206-179.652,319.333-215.02,383.833-156.63c21.284,19.254,41.299,50.095,54.204,89.418
							c-3.678-77.465-34.475-137.933-68.511-168.753c-64.5-58.39-273.627-23.021-383.843,156.578
							C2241.625,1494.865,2240.351,1608.741,2265.604,1682.528z"/>
					</g>
				</g>
				<g style="opacity:0.35;">
					<g>
						<path style="fill:#111A28;" d="M2304.92,1764.943c69.691,69.133,293.91,34.35,404.073-145.24
							c80.618-131.386,74.565-251.299,40.854-328.521c-1.968,59.765-20.176,127.95-64.113,199.55
							c-110.154,179.642-334.373,214.426-404.073,145.24c-11.044-10.967-21.565-26.135-30.331-44.873
							C2247.854,1672.361,2274.385,1734.612,2304.92,1764.943z"/>
					</g>
				</g>
				<g>
					<g>
						<path style="fill:#371A45;" d="M1452.31,1451.02c-39.098,75.439-32.363,241.764,133.645,371.587s388.235,84.063,429.363-5.073
							c31.577-68.436,17.354-224.054-148.654-353.877S1492.349,1373.765,1452.31,1451.02z"/>
					</g>
				</g>
				<g style="opacity:0.5;">
					<g>
						<path style="fill:#FFFFFF;" d="M1446.911,1617.345c-1.724-41.5,6.279-77.555,19.531-103.142
							c40.039-77.244,248.338-117.209,414.358,12.627c82.32,64.349,127.345,135.105,147.928,198.375
							c-2.268-77.933-43.361-183.955-162.068-276.779c-166.01-129.784-374.319-89.871-414.358-12.628
							C1431.217,1476.505,1423.437,1543.663,1446.911,1617.345z"/>
					</g>
				</g>
				<g style="opacity:0.35;">
					<g>
						<path style="fill:#111A28;" d="M1585.98,1822.615c165.958,129.793,388.202,84.06,429.353-5.063
							c18.016-39.087,21.089-106.624-10.505-181.561c-1.668,20.62-6.218,38.559-12.735,52.693
							c-41.141,89.175-263.385,134.908-429.343,5.114c-66.191-51.792-107.071-109.322-129.843-164.625
							C1428.345,1613.298,1464.604,1727.711,1585.98,1822.615z"/>
					</g>
				</g>
				<g>
					<g>
						<path style="fill:#371A45;" d="M2407.462,1817.366c-49.463,0-90.703-13.53-116.123-38.76
							c-56.958-56.533-103.848-217.1,12.817-407.28c62.925-102.568,165.757-173.159,275.088-188.833
							c58.784-8.423,109.141,1.787,138.125,28.037l0,0c65.938,59.697,126.436,226.309,8.076,419.238
							c-73.975,120.586-194.438,174.844-282.515,185.41C2430.733,1816.644,2418.878,1817.366,2407.462,1817.366z M2618.458,1218.157
							c-10.684,0-21.997,0.825-33.745,2.51c-75.737,10.854-180.576,61.435-247.686,170.825
							c-105.034,171.221-67.104,311.523-18.521,359.741c22.529,22.363,67.324,31.963,119.829,25.659
							c79.121-9.497,187.456-58.428,254.238-167.29c100.513-163.843,59.873-315.278-1.084-370.488l0,0
							C2676.402,1225.457,2650.245,1218.157,2618.458,1218.157z"/>
					</g>
				</g>
				<g>
					<g>
						<path style="fill:#371A45;" d="M1820.191,1922.327c-76.391,0-166.46-22.236-246.118-84.531
							c-178.291-139.434-179.81-316.68-138.882-395.649l0,0c17.993-34.717,61.597-61.88,119.629-74.521
							c107.915-23.511,228.931,6.714,323.726,80.84c175.752,137.451,187.905,304.277,154.282,377.148
							c-18.467,40.02-65.586,71.812-129.267,87.222C1878.97,1918.782,1850.665,1922.327,1820.191,1922.327z M1469.429,1459.891
							c-37.842,73.018-23.023,229.106,128.403,347.524c100.601,78.677,219.194,86.675,296.655,67.94
							c51.396-12.437,90.019-37.07,103.32-65.899c28.682-62.153,15.21-206.87-143.022-330.61
							c-101.104-79.063-217.002-89.829-291.758-73.54C1516.929,1415.345,1481.939,1435.755,1469.429,1459.891L1469.429,1459.891z"/>
					</g>
				</g>
			</g>
			<g>
				<g>
					<path style="fill:#371A45;" d="M2183.336,1798.94c-4.673,12.996-2.608,25.636,4.612,28.233
						c7.22,2.596,16.861-5.835,21.534-18.831c4.673-12.996,2.608-25.636-4.612-28.232
						C2197.651,1777.512,2188.01,1785.943,2183.336,1798.94z"/>
				</g>
			</g>
			<g>
				<g>
					
						<ellipse transform="matrix(0.7635 -0.6458 0.6458 0.7635 -661.5515 1817.181)" style="fill:#371A45;" cx="2150.521" cy="1811.916" rx="13.893" ry="25.007"/>
				</g>
			</g>
			<g>
				<g>
					<path style="fill:#371A45;" d="M2274.431,1857.817c-17.363,69.774-97.329,108.036-161.411,73.346
						c-14.821-7.839-27.452-18.347-37.768-31.206c-5.223-6.96-16.961-19.873-5.459-26.924c3.88-2.177,8.33-1.274,11.487,1.408
						c13.651,10.151,29.672,19.911,45.781,25.3c51.284,18.796,99.046-7.698,129.511-49.195
						C2262.56,1841.248,2276.86,1847.035,2274.431,1857.817L2274.431,1857.817z"/>
				</g>
			</g>
		</g>
		<g>
			<g>
				<g>
					<path style="fill:#62ED2E;" d="M1798.224,979.086l-117.353,79.093c-16.72-44.459-33.771-80.468-50.808-109.237
						c-68.422-115.643-137.471-115.858-189.183-86.32c-70.495,40.287-72.123,166.713-72.123,166.713
						c65.664,63.259-7.655,133.399-69.66,124.563c-53.702-7.623-84.019-89.256-18.898-137.14
						c-0.893-25.322,1.184-245.822,147.903-283.503c144.685-37.061,249.787,58.701,310.248,141.401
						C1777.15,927.775,1797.51,975.456,1798.224,979.086z"/>
				</g>
			</g>
			<g style="opacity:0.5;">
				<g>
					<path style="fill:#FFFFFF;" d="M1778.812,938.427c-2.313-3.254-4.708-6.56-7.103-9.865
						c-63.883-87.381-174.229-185.531-327.823-149.433c-127.021,29.852-127.395,231.731-126.44,258.515
						c-42.145,25.712-58.062,68.835-63.791,84.25c-17.75-30.008-15.137-74.512,26.543-105.136
						c-0.893-25.322,1.184-245.822,147.903-283.503c144.685-37.061,249.787,58.701,310.248,141.401
						C1755.46,898.061,1768.948,920.419,1778.812,938.427z"/>
				</g>
			</g>
			<g>
				<g>
					<path style="fill:#31C418;" d="M1798.224,979.086c0,0-5.484,38.615-45.844,62.271c-40.36,23.656-71.509,16.822-71.509,16.822
						c-16.72-44.459-33.771-80.468-50.808-109.237c44.383,6.581,109.736,3.938,108.286-74.286
						C1777.15,927.775,1797.51,975.456,1798.224,979.086z"/>
				</g>
			</g>
			<g>
				<g>
					<path style="fill:#371A45;" d="M1788.748,980.897c-42.659-85.669-109.486-172.632-198.705-215.329
						c-57.34-26.927-126.354-29.739-183.942-3.027c-78.393,42.443-99.494,146.422-105.802,229.282
						c-0.51,8.232-0.901,16.826-0.819,24.417c0.061,6.501-3.079,12.372-7.856,16.061c-10.291,7.712-18.738,17.006-23.662,27.616
						c-12.694,25.431-2.157,60.976,24.363,72.278c26.956,10.303,62.659-5.635,76.75-29.271
						c12.945-21.403,3.915-42.965-13.721-59.706c-3.947-3.73-5.933-8.757-5.918-13.79c0.234-24.736,3.313-48.304,9.123-72.261
						c8.719-35.665,24.849-73.441,54.37-98.476c30.411-25.39,73.6-37.229,112.395-26.778
						c50.212,13.879,83.269,54.715,108.611,96.124c24.299,40.293,41.379,83.351,55.957,126.778
						c1.697,5.051-1.023,10.52-6.074,12.216c-4.834,1.627-10.056-0.807-11.975-5.436c-30.092-67.65-78.504-175.841-154.933-195.372
						c-23.332-5.379-47.428,1.499-67.506,13.949c-45.585,30.781-56.569,96.156-61.408,149.395c0.016,0.014-5.948-14.199-5.89-14.123
						c70.683,65.8,12.221,158.98-75.228,158.447c-40.463,0.159-75.513-34.654-81.422-73.606
						c-7.663-37.981,12.905-77.827,43.33-99.056c0.01-0.02-7.846,16.241-7.848,16.239c-1.228-36.515,2.332-71.937,9.243-107.681
						c14.226-71.246,48.673-148.902,118.111-182.65c67.855-31.619,150.964-26.266,216.784,7.329
						c64.503,32.288,114.978,87.497,153.819,146.912c18.372,28.932,35.115,59.032,47.344,91.1c0.358,1.308,1.221,3.272,1.452,4.835
						C1809.712,989.829,1791.406,993.329,1788.748,980.897L1788.748,980.897z"/>
				</g>
			</g>
			<g>
				<g>
					<path style="fill:#62ED2E;" d="M3000.096,746.622c-37.191,43.425-102.735,8.483-112.706-47.058
						c-15.064-16.502-319.671-227.807-437.56,72.056c-13.673,34.868-24.867,76.679-32.769,126.506l-128.138-16.982
						c-1.043-3.834,9.549-61.962,40.963-131.739c37.941-84.186,106.26-185.153,221.094-227.712
						c176.367-65.334,375.081,100.968,393.228,114.424C2996.98,638.896,3046.791,692.169,3000.096,746.622z"/>
				</g>
			</g>
			<g>
				<g>
					<path style="fill:#62ED2E;" d="M3000.096,746.622c-37.191,43.425-102.735,8.483-112.706-47.058
						c-15.064-16.502-319.671-227.807-437.56,72.056c-13.673,34.868-24.867,76.679-32.769,126.506l-128.138-16.982
						c-1.043-3.834,9.549-61.962,40.963-131.739c37.941-84.186,106.26-185.153,221.094-227.712
						c176.367-65.334,375.081,100.968,393.228,114.424C2996.98,638.896,3046.791,692.169,3000.096,746.622z"/>
				</g>
			</g>
			<g style="opacity:0.5;">
				<g>
					<path style="fill:#FFFFFF;" d="M3018.21,708.811c-14.666-11.814-60.408-43.275-88.198-29.497
						c-19.594-14.522-199.147-184.673-389.354-114.185c-110.177,40.831-180.627,131.538-223.658,215.021
						c3.858-9.911,8.12-20.198,12.884-30.743c37.941-84.186,106.26-185.153,221.094-227.712
						c176.367-65.334,375.081,100.968,393.228,114.424C2984.45,638.256,3023.021,669.767,3018.21,708.811z"/>
				</g>
			</g>
			<g>
				<g>
					<path style="fill:#31C418;" d="M2449.829,771.62c-13.673,34.868-24.867,76.679-32.769,126.506c0,0-34.118,23.46-74.406,17.523
						c-40.288-5.937-53.732-34.505-53.732-34.505c-1.043-3.834,9.549-61.962,40.963-131.739
						C2338.017,800.966,2372.111,838.013,2449.829,771.62z"/>
				</g>
			</g>
			<g>
				<g>
					<path style="fill:#371A45;" d="M2279.668,883.726c-0.737-3.533-0.374-3.873-0.447-4.918c0.593-9.28,2.321-18.52,4.099-27.565
						c35.912-173.245,164.185-365.365,359.036-364.798c112.873,2.213,215.654,58.405,302.702,125.668
						c0.009,0.009,10.639,8.474,10.649,8.48c0,0-10.452-3.761-10.452-3.761c87.604,6.326,128.405,100.312,53.232,156.774
						c-21.481,15.068-52.657,14.787-74.582,3.319c-29.378-14.473-49.653-42.382-55.464-73.968l4.758,9.62
						c0.01,0.056,0.034,0.103,0.071,0.134l-0.493-0.393c-0.771-0.597-4.096-3.139-5.003-3.761
						c-78.406-52.594-189.202-100.036-282.817-66.151c-102.012,40.58-137.898,157.519-158.378,257.297
						c-2.404,11.853-20.383,9.309-19.032-3.071c7.038-55.256,19.17-110.821,43.559-162.902
						c74.38-161.295,231.492-169.83,375.521-96.124c25.696,13.318,51.121,27.875,73.101,46.977c3.343,3.081,6.17,7.105,6.671,11.572
						c3.351,19.409,16.987,37.734,34.292,46.055c28.165,14.898,53.405-8.363,58.335-35.24c3.428-29.285-28.081-50.145-55.823-51.628
						c-7.562,0.344-16.135-8.471-21.88-12.327c-53.85-40.03-113.225-75.262-176.665-96.856
						c-49.981-16.666-102.503-25.196-154.048-15.149c-124.322,26.507-210.928,135.937-258.877,248.187
						c-13.747,32.077-25.98,65.26-32.95,99.514c0,0-0.183,1.243-0.183,1.243c-0.125,0.114,0.171,0.94-0.374-1.444
						C2301.524,890.646,2283.342,895.965,2279.668,883.726L2279.668,883.726z"/>
				</g>
			</g>
		</g>
	</g>
</g>
</svg>
