<?xml version="1.0" encoding="utf-8"?>
<!-- Generator: Adobe Illustrator 27.5.0, SVG Export Plug-In . SVG Version: 6.00 Build 0)  -->
<svg version="1.1" id="Layer_1" xmlns="http://www.w3.org/2000/svg" xmlns:xlink="http://www.w3.org/1999/xlink" x="0px" y="0px"
	 viewBox="0 0 4000 4000" style="enable-background:new 0 0 4000 4000;" xml:space="preserve">
<g>
	<g>
		<rect style="fill:#67E9FF;" width="4000" height="4000"/>
	</g>
	<g>
		<g>
			<g>
				<g>
					<path style="fill:#FE050A;" d="M1481.953,836.566c126.791-105.961,252.949-91.775,336.458-61.236
						c63.018,23.052,110.924,57.928,134.756,77.511c-1.258-40.375-10.309-127.11-63.389-157.188
						c-72.318-40.975-162.694-30.557-163.62-30.443c-4.158,0.473-8.202-1.699-10.022-5.487
						c-0.287-0.581-31.369-61.709-132.226-80.692c-98.149-18.485-132.054,59.18-133.453,62.495
						c-2.044,4.88-7.601,7.282-12.564,5.378c-0.888-0.339-64.89-24.355-144.573-24.355c-31.72,0-65.925,3.807-99.625,14.423
						c-101.977,32.129-93.847,141.239-90.36,167.327c6.073,2.212,11.545,4.712,17.2,7.425c7.611,3.734,14.947,7.852,22.035,12.281
						c7.031,4.53,13.931,9.163,20.437,14.294c6.584,5.007,12.807,10.428,18.878,15.923c-7.058-4.191-14.151-8.221-21.473-11.76
						c-7.245-3.665-14.745-6.752-22.22-9.678c-7.529-2.822-15.151-5.27-22.813-7.276c-6.982-1.809-14.484-3.381-21.02-4.064
						c-10.603,0.682-157.448,12.537-269.27,140.099c-57.481,65.573-78.38,140.517-57.353,205.611
						c20.663,63.964,78.757,109.934,163.576,129.448c168.424,38.721,380.563-77.486,418.14-99.197
						C1342.803,1158.601,1320.728,971.309,1481.953,836.566z"/>
				</g>
				<g>
					<path style="fill:#FFFFFF;" d="M2288.475,1318.782c-88.708-172.874-240.368-372.653-331.145-436.295
						c-0.288-0.23-0.575-0.46-0.862-0.747c-0.115-0.057-0.23-0.115-0.345-0.23c-0.575-0.575-59.043-56.685-145.048-87.96
						c-114.234-41.565-220.706-22.019-316.543,58.065c-170.287,142.346-125.099,346.438-124.582,348.507
						c0.92,4.14-0.862,8.394-4.427,10.578c-6.956,4.312-124.754,75.657-260.777,102.965c-1.265,19.777-2.702,75.428,17.535,115.959
						c27.135,54.329,25.181,115.728,22.709,193.455l-0.115,4.944c-0.345,9.428-1.035,19.029-1.84,29.205
						c-5.577,73.128-12.533,164.135,158.559,252.958c192.65,99.976,489.186,143.496,717.366,15.35
						c104.92-58.985,196.157-163.905,250.256-287.97C2321.82,1517.009,2329.006,1397.831,2288.475,1318.782z M1801.876,1623.424
						c-9.198,119.408-52.891,158.559-159.594,242.38c-8.451,7.359-15.867,10.981-22.363,10.981c-0.805,0-1.61-0.115-2.357-0.287
						c-141.542-34.667-216.854-103.023-228.755-155.339c-4.312-19.087,0.172-35.184,12.648-45.36
						c34.034-27.883,39.036-57.951,39.381-60.71c-1.84-28.515,10.176-84.971,69.104-99.459c33.689-8.221,57.605-0.69,76.75,5.346
						c21.674,6.899,37.369,11.843,62.09-4.024c33.287-21.444,76.692-23.226,108.025-4.542
						C1775.947,1523.85,1807.222,1553.458,1801.876,1623.424z"/>
				</g>
				<g>
					<path style="fill:#FFBC15;" d="M1746.757,1529.276c-24.707-14.749-60.63-13.037-87.367,4.152
						c-32.474,20.874-55.928,13.446-78.591,6.285c-12.679-4.011-25.658-8.112-41.614-8.112c-7.441,0-15.534,0.888-24.553,3.104
						c-58.043,14.231-54.344,76.975-54.159,79.638c0.013,0.23,0.026,0.479,0.026,0.709c0,7.984-7.914,44.271-46.641,75.959
						c-8.176,6.688-7.716,17.712-5.889,25.78c10.143,44.77,80.986,107.622,212.618,140.255c1.737-0.422,3.979-1.699,6.624-3.756
						c0.556-0.818,1.239-1.558,2.057-2.204c1.207-0.952,2.414-1.897,3.609-2.836c31.177-30.653,95.275-136.155,83.599-255.025
						c-0.53-5.391,3.417-10.194,8.808-10.724c5.429-0.568,10.194,3.417,10.724,8.808c7.844,79.919-17.904,157.687-47.133,211.309
						c62.182-53.993,86.741-93.997,93.416-180.719C1785.726,1577.233,1773.437,1545.2,1746.757,1529.276z"/>
				</g>
				<g style="opacity:0.4;">
					<path style="fill:#FFFFFF;" d="M1489.991,1710.762c0.948,2.495,4.642,23.209,40.088,34.603
						S1473.956,1668.564,1489.991,1710.762z"/>
				</g>
				<g>
					<g>
						<path style="fill:none;" d="M1602.661,1549.143c0.132,3.51-65.407-2.954-90.304,15.465
							c-24.898,18.419-17.302,46.145-25.32,77.372c-8.018,31.227-49.372,52.747-48.95,79.333
							c0.422,26.585,37.98,67.517,37.98,67.517c-4.125,0.497-8.326-0.031-12.532-1.308c35.613,26.844,87.843,52.368,157.051,69.526
							c1.737-0.422,3.979-1.699,6.624-3.756c0.556-0.818,1.239-1.558,2.057-2.204c1.207-0.952,2.414-1.897,3.609-2.836
							c21.816-21.449,59.719-79.567,76.533-153.247c0.291-11.844,0.415-21.213-0.123-21.799c-1.551-1.688,0.08-42.198,0.08-42.198
							s-19.354,110.138-90.246,200.02c0,0-101.698-16.88-151.914-70.893c0,0,95.789,48.95,135.878,36.713
							c20.314-6.201,20.256-80.177,3.376-131.659c-16.879-51.482-41.775-81.021-28.694-88.194
							c13.081-7.173,17.722,6.33,68.783-8.861c51.06-15.192,77.644-45.997,108.027-24.475c7.077,5.013,13.458,10.427,19.074,16.064
							c-6.055-13.115-15.047-23.376-26.893-30.446c-24.707-14.749-60.63-13.037-87.367,4.152
							c-24.039,15.452-43.13,15.383-60.621,11.406C1601.122,1546.664,1602.626,1548.218,1602.661,1549.143z"/>
					</g>
					<g>
						<path style="fill:none;" d="M1214.859,1791.783c0,0,195.546,87.841,348.067,68.605
							c-106.392-37.089-163.866-94.112-174.096-139.259c-4.312-19.041,0.16-35.131,12.596-45.306
							c34.077-27.881,39.053-57.979,39.43-60.732c-1.872-28.494,10.13-84.985,69.099-99.446c33.694-8.246,57.57-0.709,76.758,5.359
							c21.666,6.854,37.341,11.81,62.06-4.082c33.298-21.391,76.7-23.206,108.037-4.497c19.13,11.421,50.422,41.02,45.038,110.982
							c-1.242,16.159-3.143,30.808-5.718,44.337l6.332-4.455c0,0-14.761,115.834-24.256,160.775
							c-9.495,44.942,118.578,107.817,346.448-109.926c180.148-172.141,112.388-440.238,76.103-545.001
							c-82.011-125.471-178.343-241.038-243.412-286.626c-0.327-0.229-0.597-0.505-0.888-0.766
							c-0.099-0.089-0.224-0.137-0.319-0.231c-0.581-0.562-59.033-56.663-145.078-87.974
							c-114.194-41.563-220.686-22.011-316.523,58.087c-170.302,142.318-125.079,346.448-124.6,348.492
							c0.958,4.114-0.824,8.387-4.42,10.597c-6.969,4.281-124.739,75.643-260.748,102.954c-1.295,19.754-2.75,75.408,17.533,115.969
							c27.14,54.287,25.186,115.696,22.707,193.45l-0.16,4.938c-0.3,9.447-1.035,19.041-1.808,29.197
							c-5.595,73.13-12.551,164.144,158.568,252.955c100.254,52.027,228.648,88.693,360.887,93.906
							C1649.198,2001.798,1322.746,1944.312,1214.859,1791.783z"/>
					</g>
					<g>
						<path style="fill:none;" d="M1348.25,1189.642c0.002,0.024,0.003,0.048,0.005,0.072c0,0-227.076,110.037-372.237,83.03
							c-145.162-27.007-158.667-140.942-88.616-162.041c70.048-21.099,227.75,19.411,294.483-24.475
							c66.733-43.886,8.379-70.893,20.255-110.559c11.876-39.667,92.897-53.003,134.251-101.192
							c41.354-48.19-59.077-60.85-48.107-92.076c10.972-31.227,162.886-10.127,206.772-32.914
							c43.886-22.787,21.942-79.333,95.368-67.517c73.425,11.815,69.206,35.446,126.596,34.602
							c57.39-0.844,129.127-5.908,163.729,19.411c27.049,19.792,37.595,71.556,40.91,93.213
							c12.931,8.903,23.579,17.128,31.509,23.645c-1.258-40.375-10.309-127.11-63.389-157.188
							c-72.318-40.975-162.694-30.557-163.62-30.443c-2.512,0.286-4.917-0.485-6.879-1.902c-0.003,0.032,0.01,0.086,0.006,0.118
							c-1.108,9.308-46.152-56.57-140.677-57.415c-94.524-0.843-106.339,59.922-125.751,74.353
							c-19.411,14.43-179.765-45.657-248.125-11.899c-57.354,28.323-58.445,127.537-57.31,158.764
							c5.335,3.529,10.594,7.134,15.584,11.069c6.584,5.007,12.807,10.428,18.878,15.923c-7.058-4.191-14.151-8.221-21.473-11.76
							c-4.099-2.074-8.288-3.938-12.5-5.718c-106.586-12.305-263.892,111.08-315.368,188.719
							c-51.222,77.253-11.644,216.654-14.602,216.709c28.649,25.119,66.977,43.755,113.371,54.429
							c168.424,38.721,380.563-77.486,418.14-99.197C1349.088,1195.277,1348.673,1192.629,1348.25,1189.642z"/>
					</g>
					<g>
						<path style="fill:none;" d="M1730.521,1725.953c-6.095,4.876-10.202,8.349-13.07,10.945
							c-8.179,24.306-18.14,46.573-28.577,65.722c47.85-41.549,73.366-74.896,85.652-127.539
							C1764.499,1688.919,1744.46,1714.802,1730.521,1725.953z"/>
					</g>
					<g>
						<path style="fill:none;" d="M1663.915,2004.147c44.875,1.692,90.163-0.275,134.96-6.489
							C1738.277,2004.108,1688.438,2003.594,1663.915,2004.147z"/>
					</g>
					<g style="opacity:0.25;">
						<path style="fill:#110F70;" d="M1880.747,735.983c-34.602-25.32-106.339-20.255-163.729-19.411
							c-57.389,0.844-53.171-22.787-126.596-34.602c-73.425-11.816-51.481,44.73-95.368,67.517
							c-43.886,22.787-195.8,1.688-206.772,32.914c-10.97,31.227,89.461,43.886,48.107,92.076
							c-41.354,48.189-122.375,61.525-134.251,101.192c-11.876,39.667,46.478,66.673-20.255,110.559
							c-66.733,43.886-224.435,3.376-294.483,24.475c-70.051,21.099-56.546,135.034,88.616,162.041
							c145.161,27.007,372.237-83.03,372.237-83.03c-0.002-0.024-0.003-0.048-0.005-0.072
							c-7.318-51.492-18.685-225.72,133.703-353.076c126.791-105.961,252.949-91.775,336.458-61.236
							c42.05,15.382,77.317,36.012,103.246,53.867C1918.342,807.539,1907.797,755.774,1880.747,735.983z"/>
					</g>
					<g style="opacity:0.4;">
						<path style="fill:#FFFFFF;" d="M1204.732,668.465c68.36-33.758,228.713,26.329,248.125,11.899
							c19.411-14.431,31.227-75.196,125.751-74.353c94.524,0.845,139.569,66.723,140.677,57.415c0.003-0.032-0.01-0.086-0.006-0.118
							c-1.287-0.929-2.421-2.085-3.143-3.585c-0.287-0.581-31.369-61.709-132.226-80.692
							c-98.149-18.485-132.054,59.18-133.453,62.495c-2.044,4.88-7.601,7.282-12.564,5.378
							c-0.888-0.339-64.89-24.355-144.573-24.355c-31.72,0-65.925,3.807-99.625,14.423
							c-101.977,32.129-93.847,141.239-90.36,167.327c6.073,2.212,11.545,4.712,17.2,7.425c7.611,3.734,14.947,7.852,22.035,12.281
							c1.638,1.056,3.232,2.153,4.853,3.224C1146.287,796.002,1147.378,696.788,1204.732,668.465z"/>
					</g>
					<g style="opacity:0.25;">
						<path style="fill:#110F70;" d="M1646.547,1568.133c-51.061,15.191-55.702,1.688-68.783,8.861
							c-13.082,7.174,11.815,36.713,28.694,88.194c16.88,51.482,16.938,125.458-3.376,131.659
							c-40.089,12.237-135.878-36.713-135.878-36.713c50.216,54.014,151.914,70.893,151.914,70.893
							c70.892-89.882,90.246-200.02,90.246-200.02s-1.63,40.511-0.08,42.198c0.538,0.585,0.413,9.955,0.123,21.799
							c7.216-31.618,10.573-66.084,7.066-101.777c-0.53-5.391,3.417-10.194,8.808-10.724c5.429-0.568,10.194,3.417,10.724,8.808
							c5.043,51.38-3.833,101.831-18.556,145.587c2.868-2.596,6.975-6.069,13.07-10.945c13.939-11.151,33.978-37.034,44.005-50.873
							c3.681-15.768,6.224-33.191,7.764-53.18c1.91-24.837-1.057-45.752-8.641-62.178c-5.616-5.637-11.997-11.051-19.074-16.064
							C1724.192,1522.136,1697.607,1552.941,1646.547,1568.133z"/>
					</g>
					<g style="opacity:0.25;">
						<path style="fill:#110F70;" d="M2018.938,1925.521c104.933-58.95,196.152-163.908,250.266-287.952
							c52.6-120.576,59.793-239.746,19.245-318.777c-25.119-48.963-55.29-100.08-87.693-149.654
							c36.285,104.764,104.045,372.86-76.103,545.001c-227.87,217.743-355.943,154.868-346.448,109.926
							c9.495-44.94,24.256-160.775,24.256-160.775l-6.332,4.455c-16.468,86.471-61.599,125.571-153.827,198.053
							c-8.476,7.378-15.866,10.993-22.401,10.993c-0.786,0-1.571-0.096-2.338-0.281c-19.48-4.773-37.659-10.203-54.638-16.122
							c-152.521,19.236-301.067-32.591-301.067-32.591c107.887,152.529,387.339,174,400.638,176.287
							c0.473,0.018,0.945,0.044,1.418,0.062c24.523-0.552,74.362-0.039,134.96-6.489
							C1875.289,1987.057,1950.219,1964.124,2018.938,1925.521z"/>
					</g>
					<g style="opacity:0.4;">
						<path style="fill:#FFFFFF;" d="M1476.067,1788.829c0,0-37.558-40.932-37.98-67.517c-0.422-26.585,40.932-48.106,48.95-79.333
							c8.018-31.227,0.422-58.953,25.32-77.372c24.897-18.419,90.436-11.955,90.304-15.465c-0.035-0.925-1.539-2.478-3.893-4.308
							c-6.138-1.395-12.083-3.261-17.969-5.121c-12.679-4.011-25.658-8.112-41.614-8.112c-7.441,0-15.534,0.888-24.553,3.104
							c-58.043,14.231-54.344,76.975-54.159,79.638c0.013,0.23,0.026,0.479,0.026,0.709c0,7.984-7.914,44.271-46.641,75.959
							c-8.176,6.688-7.716,17.712-5.889,25.78c4.81,21.232,23.445,46.516,55.568,70.73
							C1467.741,1788.798,1471.942,1789.326,1476.067,1788.829z"/>
					</g>
				</g>
				<g style="opacity:0.4;">
					<path style="fill:#FFFFFF;" d="M1147.911,836.744c-3.231-1.365-6.475-2.69-9.72-3.96c-7.529-2.822-15.151-5.27-22.813-7.276
						c-6.982-1.809-14.484-3.381-21.02-4.064c-10.603,0.682-157.448,12.537-269.27,140.099
						c-57.481,65.573-78.38,140.517-57.353,205.611c9.361,28.977,26.474,54.213,50.205,75.019
						c2.957-0.056-36.621-139.457,14.602-216.709c3.561-5.371,7.674-10.977,12.197-16.725c0.487,0.56,0.923,1.157,1.453,1.686
						c18.167,18.169,54.739,11.055,81.682-15.889c26.203-26.203,33.579-61.458,17.259-80.092
						C1009.874,866.854,1087.128,829.727,1147.911,836.744z"/>
				</g>
				<g style="opacity:0.4;">
					
						<ellipse transform="matrix(0.7071 -0.7071 0.7071 0.7071 -358.1566 999.2466)" style="fill:#FFFFFF;" cx="1027.114" cy="931.955" rx="25.16" ry="18.797"/>
				</g>
				<g>
					<g>
						<path style="fill:#110F70;" d="M1005.512,1331.617c-27.105,0-54.067-2.615-80.264-8.643
							c-94.473-21.738-159.556-74.124-183.262-147.505c-24.023-74.377-1.152-158.853,62.759-231.763
							c100.127-114.229,223.838-141.226,270.386-147.493c-4.941-59.163,12.515-154.197,110.435-185.046
							c104.121-32.81,209.312-6.431,247.344,5.479c21.294-35.044,72.271-79.961,156.001-64.214
							c89.595,16.868,130.781,63.733,145.254,84.963c28.252-1.699,103.955-2.114,168.95,34.717
							c84.272,47.751,77.417,196.943,77.08,203.269c-0.356,6.758-4.629,12.683-10.928,15.154
							c-6.304,2.468-13.467,1.021-18.315-3.694c-0.562-0.542-58.228-55.796-142.896-86.482
							c-111.348-40.354-215.225-21.191-308.755,56.97c-166.607,139.233-124.014,332.93-122.119,341.108
							c1.675,7.224-1.455,14.736-7.773,18.616C1360.693,1222.405,1180.512,1331.617,1005.512,1331.617z M1293.359,629.974
							c-31.055,0-64.497,3.718-97.432,14.094c-106.938,33.691-85.4,159.089-84.429,164.412c0.894,4.905-0.376,9.973-3.486,13.867
							c-3.115,3.896-7.754,6.272-12.734,6.487c-1.475,0.068-151.367,8.438-264.595,137.612
							c-55.708,63.557-76.074,135.876-55.869,198.42c19.824,61.372,75.996,105.583,158.169,124.49
							c159.99,36.824,361.025-69.085,408.184-95.771c-8.037-49.346-24.058-228.948,136.016-362.725
							c129.507-108.232,258.438-93.733,343.779-62.512c54.053,19.773,97.222,48.149,123.965,68.513
							c-3.062-42.52-14.981-109.9-58.814-134.739c-69.897-39.607-158.198-29.636-159.077-29.531
							c-7.275,0.867-14.404-3.005-17.603-9.651c-1.133-2.266-30.19-58.401-126.899-76.609
							c-91.997-17.312-123.911,55.005-125.224,58.091c-3.638,8.545-13.438,12.742-22.085,9.424
							C1434.36,653.516,1371.469,629.974,1293.359,629.974z"/>
					</g>
					<g>
						<path style="fill:#110F70;" d="M1694.804,2031.707c-148.232,0-293.926-39.524-405.664-97.517
							c-186.982-97.041-178.945-202.219-173.081-279.019c0.752-9.849,1.465-19.153,1.748-28.003l0.151-4.861
							c2.456-76.858,4.229-132.388-19.858-180.569c-28.555-57.1-19.995-135.173-19.614-138.469
							c1.089-9.46,9.57-16.265,19.102-15.166c9.463,1.086,16.255,9.639,15.166,19.102c-0.151,1.372-7.602,71.511,16.196,119.109
							c27.993,55.986,26.006,118.257,23.486,197.092l-0.156,4.856c-0.303,9.617-1.04,19.294-1.826,29.539
							c-5.703,74.639-12.168,159.238,154.575,245.774c190.889,99.072,484.541,142.283,710.264,15.464
							c103.55-58.174,193.613-161.851,247.095-284.443c51.719-118.555,58.989-235.344,19.448-312.41
							c-88.242-172-238.794-370.557-328.76-433.584c-7.798-5.466-9.692-16.221-4.228-24.021c5.464-7.805,16.221-9.7,24.023-4.231
							c95.371,66.819,247.744,266.934,339.658,446.089c93.906,183.03-50.195,513.376-280.342,642.673
							C1928.207,2007.527,1810.727,2031.702,1694.804,2031.707z"/>
					</g>
					<g>
						<path style="fill:#110F70;" d="M1619.902,1884.226c-1.382,0-2.764-0.166-4.106-0.496
							c-144.639-35.442-221.851-106.379-234.214-160.962c-4.892-21.614,0.625-40.823,15.142-52.7
							c30.288-24.78,35.981-51.345,36.665-55.256c-1.743-30.925,11.568-90.881,74.8-106.389c35.698-8.765,60.689-0.864,80.767,5.488
							c21.211,6.709,34.014,10.759,55.801-3.245c35.596-22.893,82.168-24.736,115.869-4.624
							c20.606,12.3,54.331,43.979,48.643,117.932c-9.404,122.222-56.533,164.482-162.144,247.498
							C1637.177,1880.125,1628.344,1884.226,1619.902,1884.226z M1617.997,1849.974L1617.997,1849.974L1617.997,1849.974z
							 M1539.228,1539.019c-6.914,0-14.414,0.842-22.827,2.905c-51.797,12.705-48.667,69.509-48.511,71.921
							c0.029,0.378,0.044,0.833,0.044,1.211c0,10.72-9.068,48.738-49.365,81.709c-5.234,4.282-4.707,12.361-3.345,18.386
							c8.008,35.347,69.092,99.819,204.546,134.023c0.737-0.393,1.519-0.881,2.349-1.462c0.752-0.894,1.602-1.721,2.559-2.471
							c1.367-1.074,2.715-2.134,4.058-3.193c30.127-29.629,91.509-134.36,80.342-248.093c-0.933-9.48,5.996-17.92,15.479-18.853
							c9.517-0.942,17.92,6.001,18.848,15.479c6.406,65.208-8.374,127.998-29.736,178.486c38.999-40.54,55.933-79.18,61.206-147.739
							c3.208-41.663-7.837-71.287-31.929-85.667c-22.373-13.352-55.083-11.694-79.536,4.019
							c-35.41,22.764-61.68,14.451-84.854,7.119C1566.015,1542.835,1553.949,1539.019,1539.228,1539.019z"/>
					</g>
					<g>
						<path style="fill:#110F70;" d="M1097.542,794.619c32.622,12.465,60.554,34.624,84.344,59.602
							c-7.432-3.696-14.856-7.199-22.456-10.183c-18.475-7.396-37.802-12.736-57.444-14.937c-3.207-0.29-7.597-0.777-10.459-0.518
							c-9.851,1.638-19.165-5.022-20.801-14.873C1068.422,798.305,1083.874,788.315,1097.542,794.619L1097.542,794.619z"/>
					</g>
				</g>
				<g>
					<path style="fill:#110F70;" d="M1811.768,1241.472c-52.316,56.206-81.198,110.189-90.746,186.793
						c-0.001-0.001-30.389-11.063-30.389-11.063c33.687-38.428,81.865-63.156,131.447-73.343c16.355-3.29,33.13-4.145,49.637-2.848
						c4.053,0.317,7.083,3.862,6.763,7.917c-0.241,3.104-2.35,5.528-5.115,6.467c-7.446,3.02-14.893,5.144-22.17,7.737
						c-24.898,8.664-49.804,18.209-72.844,31.084c-19.139,10.988-37.695,23.714-54.077,38.437c-1.841,1.607-5.81,5.344-7.346,6.86
						c-4.849,7.647-14.978,9.917-22.625,5.069c-5.796-3.576-7.894-9.867-7.763-16.13c-0.328-6.013-0.308-10.786-0.027-16.013
						c4.307-74.237,47.054-153.77,120.336-178.758C1811.479,1232.046,1815.245,1238.001,1811.768,1241.472L1811.768,1241.472z"/>
				</g>
				<g>
					<path style="fill:#110F70;" d="M1174.988,1523.804c45.189-27.249,103.571-21.179,149.754,0.83
						c15.916,7.974,30.507,16.934,43.576,29.37c6.839,5.16,8.35,15.138,2.28,21.509c-3.175,3.387-7.714,4.859-11.997,4.365
						l-4.016,0.403c-4.51,0.476-9.249,1.233-13.728,1.951c-38.064,6.389-73.53,22.558-106.494,42.337
						c-5.86,3.361-11.544,7.129-17.793,10.319c-3.088,1.597-6.885,0.388-8.481-2.7c-1.13-2.185-0.85-4.734,0.505-6.597
						c8.335-11.436,18.215-21.851,29.448-30.637c34.181-26.52,77.02-44.049,120.696-44.549c0,0.001-9.714,25.877-9.714,25.877
						c-24.723-16.091-51.948-29.52-80.537-36.931c-30.146-8.24-59.459-8.571-91.174-8.02
						C1173.177,1531.682,1171.302,1525.836,1174.988,1523.804L1174.988,1523.804z"/>
				</g>
			</g>
			<g>
				<g>
					<path style="fill:#FFFFFF;" d="M1331.673,2150.618c-2.434-3.481-2.351-8.125,0.204-11.517
						c2.549-3.392,6.975-4.765,11.012-3.385c2.421,0.83,244.37,81.12,442.048-51.195c2.255-1.501,5.021-2.012,7.652-1.412
						c2.632,0.607,4.899,2.268,6.266,4.605c35.227,60.138,95.703,145.352,119.86,146.489c1.258,0.058,2.344-0.057,3.82-2.108
						c19.571-27.185-25.288-138.607-58.158-202.456c-2.05-3.986-1.137-8.853,2.21-11.829c3.353-2.97,8.297-3.29,12.008-0.792
						c102.55,69.316,224.365,139.572,245.98,134.57c9.964-28.577-45.287-133.133-174.971-200.438
						c-4.324-2.242-6.343-7.307-4.759-11.906c1.59-4.593,6.356-7.275,11.089-6.445c106.945,20.12,266.643,38.657,286.898,16.869
						c0.664-0.709,1.041-1.239,0.569-3.028c-13.74-51.911-130.834-115.945-255.644-117.605c-4.842-0.064-8.91-3.647-9.588-8.438
						c-0.677-4.791,2.236-9.358,6.866-10.763c102.486-31.081,263.328-97.447,258.627-143.213c-0.096-0.907-0.338-3.315-4.593-6.272
						c-3.906-2.711-9.348-4.891-16.074-6.616c-1.287-0.053-2.539-0.353-3.703-0.889c-98.013-21.204-437.707,43.845-620.537,91.474
						c-198.093,51.604-415.483,132.239-417.655,133.05c-5.084,1.871-10.724-0.703-12.622-5.774
						c-1.884-5.078,0.696-10.731,5.774-12.621c1.258-0.466,10.527-7.679,10.527-7.679l-34.688-62.282
						c-19.213,26.335-106.948,158.094-89.286,290.544c15.202,114.035,42.189,124.638,47.446,125.609
						c7.032,1.31,15.304-5.263,21.973-17.584c21.053-38.867,36.063-101.611,36.21-102.237c0.996-4.184,4.592-7.23,8.878-7.524
						c0.224-0.019,0.453-0.025,0.677-0.025c4.024,0,7.671,2.472,9.14,6.266c20.836,53.808,86.511,197.691,139.482,217.083
						c8.189,3.002,15.451,2.651,22.216-1.028c12.673-6.911,20.357-16.76,23.493-30.117
						C1381.457,2222.605,1332.171,2151.334,1331.673,2150.618z"/>
				</g>
				<g>
					<path style="fill:#FFFFFF;" d="M2472.845,2384.922c-0.185,7.461-0.307,16.582-0.447,27.095
						c-0.495,36.795-1.21,89.677-5.335,148.104c26.449-7.58,65.501-6.417,88.135,35.069
						c27.728,50.831,45.983,140.012,49.816,195.206c29.107-26.629,89.916-102.595,62.309-255.861
						c-0.766-4.248,1.341-8.495,5.18-10.469c3.833-1.961,8.514-1.201,11.523,1.91c3.239,3.341,78.246,83.714,68.952,325.178
						c6.081-1.68,17.303-6.975,31.611-19.603c23.934-21.136,100.647-104.16,82.647-285.122c-0.447-4.478,2.21-8.687,6.451-10.207
						c4.235-1.527,8.962,0.045,11.466,3.788c2.038,3.047,48.621,75.461,50.94,303.76c26.687-20.963,83.599-85.387,81.74-252.629
						c-2.587-233.052-90.158-454.696-203.702-515.562c-119.306-63.973-316.982,13.137-371.967,76.56
						C2454.836,2209.685,2474.617,2312.247,2472.845,2384.922z"/>
				</g>
				<g>
					<path style="fill:#FFFFFF;" d="M3267.914,1156.408c-8.457-3.136-51.777,22.746-90.05,45.613
						c-51.502,30.755-122.032,72.887-204.602,108.037c-4.401,1.852-9.428,0.326-12.034-3.622c-2.612-3.954-2.018-9.211,1.399-12.488
						c56.95-54.568,196.969-210.683,161.449-276.921c-0.92-1.475-2.153-2.044-3.628-2.299
						c-21.392-3.666-85.183,48.123-173.687,119.777c-48.717,39.442-109.347,88.523-180.273,142.676
						c-245.534,187.446-415.881,307.197-519.423,365.094c1.112,0.633,2.204,1.275,3.191,1.96
						c9.638,6.688,12.353,14.774,12.928,20.382c6.17,60.093-141.852,119.886-225.329,148.68
						c107.271,15.004,209.316,70.894,224.518,128.323c2.108,7.959,0.268,15.56-5.167,21.411
						c-27.204,29.235-169.388,11.485-252.342-1.827c101.899,68.812,153.713,162.765,137.132,199.626
						c-2.063,4.573-6.055,7.907-11.255,9.383c-1.795,0.511-3.884,0.754-6.228,0.754c-41.537,0.013-164.7-77.032-226.715-117.625
						c25.677,55.117,66.072,154.921,40.662,190.218c-5.04,6.994-12.423,10.654-20.663,10.239
						c-39.704-1.872-107.66-109.142-130.617-147.32c-166.156,105.667-358.635,71.584-425.927,54.76
						c15.362,27.319,37.156,75.02,28.169,113.249c-1.939,8.261-5.255,15.619-9.766,22.147
						c4.517,26.74,26.086,170.778-18.243,252.244c-6.081,11.178-12.788,22.624-19.884,34.741
						c-48.34,82.519-103.131,176.044-26.412,280.089c40.469,54.876,104.74,65.358,167.266,58.215
						c1.239-0.469,2.59-0.714,4.006-0.658c0.211,0.011,0.404,0.07,0.61,0.095c91.161-11.675,177.259-59.544,178.724-60.367
						c47.947-27.099,62.629-45.919,65.344-49.841c-2.744-0.792-5.509-1.51-8.233-2.371c-22.717-6.91-44.733-15.95-65.802-26.663
						c-20.877-11.01-41.201-23.396-58.638-39.178c19.95,12.253,41.055,22.066,62.59,30.448
						c21.514,8.438,43.567,15.237,65.881,20.682c27.335,6.541,55.117,10.785,83.051,12.953c27.405,0.396,59.622,0.51,90.481-0.219
						c33.362-2.673,66.57-8.013,99.342-15.727c44.966-10.483,89.114-25.074,132.884-41.807
						c-39.086,23.417-81.255,41.96-125.173,55.413c8.01,12.55,101.846,152.724,273.043,126.048
						c38.261-5.944,67.926-29.659,90.97-64.242c0.369-1.188,0.961-2.327,1.801-3.344c0.308-0.372,0.661-0.682,1.009-0.997
						c45.236-71.304,63.997-185.452,72.047-286.847c-0.035-0.763,0.035-1.517,0.174-2.261c4.958-63.571,5.752-121.941,6.281-161.289
						c0.141-10.597,0.268-19.788,0.447-27.313c2.477-101.189-39.725-268.892-40.206-270.782
						c-5.37-20.212-11.826-40.663-18.729-60.721c-6.998-20.219-14.666-40.22-22.993-59.965
						c-8.478-19.673-17.716-39.025-27.867-57.942c-10.419-18.75-21.832-36.986-34.838-54.199
						c14.265,16.166,27.127,33.604,39.051,51.686c11.654,18.242,22.457,37.052,32.525,56.265
						c9.917,19.28,19.204,38.901,27.84,58.823c7.058,16.376,13.61,32.878,19.788,49.734
						c34.909-18.797,155.394-86.382,215.226-154.614c69.604-79.377,95.045-187.082,95.294-188.161
						c1.22-5.27,6.432-8.585,11.753-7.358c41.838,9.568,158.689,28.622,196.394,2.236c6.343-4.439,9.837-9.894,10.686-16.671
						c6.438-51.483-97.99-95.716-138.767-108.414c-4.535-1.418-7.403-5.877-6.815-10.59s4.471-8.323,9.217-8.578
						c2.363-0.128,237.83-13.197,328.282-69.425c52.818-32.838,66.11-64.558,61.441-81.74
						c-3.143-11.574-14.333-18.728-29.931-19.124c-47.708-1.514-244.287,31.19-246.267,31.516
						c-5.155,0.888-10.131-2.517-11.204-7.671c-1.08-5.155,2.102-10.233,7.205-11.517c3.296-0.837,329.745-85.508,338.195-287.128
						C3268.495,1157.392,3267.92,1156.415,3267.914,1156.408z"/>
				</g>
				<g>
					<path style="fill:#FFBC15;" d="M2283.509,2950.127c-15.911,2.472-31.203,3.609-45.855,3.609c-5.067,0-10.038-0.17-14.953-0.433
						c21.717,14.656,50.873,34.685,79.683,55.582c109.397,79.345,115.836,98.807,113.275,110.822
						c-7.709,36.242-81.548,83.292-149.07,94.975c-34.639,5.998-58.617,19.284-67.521,37.411
						c-6.937,14.123-5.078,31.452,5.525,51.508c21.11,39.928,97.156,38.16,123.803,36.225c-0.008-2.761,0.056-5.508,0.326-8.213
						c0.726-6.195,1.865-12.324,3.944-18.106c3.877-11.663,10.217-22.194,17.885-31.198c7.654-9.039,16.513-16.791,26.086-23.143
						c9.519-6.613,18.87-11.868,28.296-17.843c18.738-11.667,37.525-23.21,54.53-36.981c16.941-13.585,31.819-30.915,37.755-52.497
						c-4.264,21.948-18.223,41.062-34.505,56.173c-16.324,15.344-34.441,28.395-52.315,41.454
						c-17.931,13.232-36.502,24.912-48.276,41.928c-6.054,8.276-10.598,17.44-12.995,26.992c-1.344,4.742-1.822,9.633-2.049,14.424
						c-0.057,2.409,0.037,4.783,0.246,7.125c0.254,2.073,0.661,4.76,1.07,6.012c1.287,3.974,25.253,72.905,130.393,43.924
						c117.216-32.314,140.051-175.277,132.743-239.452c-5.653-49.688,14.768-86.313,34.518-121.738
						c12.622-22.637,25.678-46.047,31.471-72.619c8.521-39.034,1.016-77.377-17.846-91.187c-9.747-7.135-21.66-6.764-35.399,1.137
						c-27.389,15.745-49.221,49.713-65.158,74.516c-15.017,23.372-24.087,37.475-36.166,38.772
						c-17.032,1.729-83.945-49.432-140.169-95.592C2357.574,2919.194,2325.196,2943.649,2283.509,2950.127z"/>
				</g>
				<g>
					<path style="fill:#FFBC15;" d="M2263.241,3195.347c64.871-11.223,127.244-56.197,133.082-79.096
						c-1.073-4.676-8.288-12.98-19.951-23.771c-14.091,12.456-49.95,39.552-111.911,57.401
						c-47.746,13.752-75.768,31.279-83.286,52.109c-3.781,10.468-2.569,22.275,3.542,35.719
						C2198.091,3216.555,2225.032,3201.961,2263.241,3195.347z"/>
				</g>
				<g>
					<path style="fill:#FFBC15;" d="M1475.481,2941.927c-63.905,5.616-129.275-6.894-172.885-62.356
						c1.892,23.656,4.169,55.326,5.674,87.137c6.33,133.702-6.503,139.118-14.991,142.695c-11.006,4.644-37.628,3.628-83.714,1.424
						c-53.501-2.562-126.765-6.055-149.268,7.262c-26.72,15.814-32.972,50.354-34.423,67.083l241.537,2.118l-248.926,17.226
						c-6.921,3.971-33.995,20.939-39.18,45.978c-3.034,14.653,2.089,30.193,15.215,46.2c46.813,57.043,104.331,43.388,110.456,41.74
						c31.432-16.198,62.977-31.84,94.775-47.087c32.284-15.417,64.794-30.382,97.769-44.135
						c-31.576,16.71-62.488,34.534-93.137,52.783c-28.926,17.288-57.655,34.992-86.027,53.024
						c0.548,6.212,3.008,18.013,13.244,29.561c16.524,18.632,47.484,29.427,89.533,31.215c56.19,2.332,76.208-21.902,101.643-52.664
						c24.681-29.836,55.392-66.979,126.842-84.621c56.535-13.963,101.88-15.087,138.307-15.988
						c57.391-1.424,75.768-3.494,80.507-37.449c2.606-18.702-1.38-33.106-12.187-44.029
						c-22.931-23.161-77.039-30.564-152.385-20.849c-4.925,0.473-9.383-1.207-12.915-4.618
						C1468.814,3132.181,1472.784,2998.074,1475.481,2941.927z"/>
				</g>
				<g style="opacity:0.25;">
					<path style="fill:#110F70;" d="M2204.149,3286.035c0,0,51.215,22.365,83.524,2.532c32.31-19.833,49.677-50.216,88.466-67.939
						c38.79-17.723,102.465-34.733,102.465-34.733s-11.455,22.917-64.308,57.731c-52.853,34.813-63.614,47.156-68.994,73.741
						c-5.38,26.585-19.622,33.548-53.486,31.332C2257.951,3346.484,2191.806,3319.266,2204.149,3286.035z"/>
				</g>
				<g style="opacity:0.25;">
					<path style="fill:#110F70;" d="M1862.343,2219.475c0,0,43.042,83.552,94.313,69.627c51.271-13.926-6.963-150.648,14.558-136.09
						c21.521,14.559,112.701,59.5,152.246,43.675c39.545-15.824,20.308-89.41,18.024-85.451
						c-2.283,3.958,2.563,56.156-18.024,50.865s-224.413-120.834-225.038-114.795c-0.625,6.039,3.165,52.537,10.128,63.93
						c6.963,11.394,36.712,101.909,25.319,117.1C1922.475,2243.528,1884.497,2246.059,1862.343,2219.475z"/>
				</g>
				<g style="opacity:0.25;">
					<path style="fill:#110F70;" d="M2059.198,2011.859c0,0,97.478,8.862,149.382-4.431c51.904-13.292,54.7-61.351,54.64-59.926
						s-28.055,31.443-63.501,25.113s-182.296-25.319-191.791-18.989c-9.495,6.33-23.42,8.229-14.558,13.925
						C2002.23,1973.248,2059.198,2011.859,2059.198,2011.859z"/>
				</g>
				<g style="opacity:0.25;">
					<path style="fill:#110F70;" d="M2109.835,1833.994c8.547-1.603,82.287-42.409,112.036-74.691
						c29.75-32.282,33.745-66.655,33.745-66.655s-45.772,41.336-90.08,62.224c-44.308,20.888-143.052,51.904-138.621,59.5
						C2031.347,1821.967,2109.835,1833.994,2109.835,1833.994z"/>
				</g>
				<g>
					<g>
						<path style="fill:none;" d="M1099.61,3286.035c60.765-12.027,203.395-88.616,197.91-91.149
							c-3.749-1.729-1.118-6.56-31.065-7.529l-247.97,17.16c-6.921,3.971-33.995,20.939-39.18,45.978
							c-0.38,1.832-0.631,3.677-0.755,5.536C978.549,3256.031,1038.844,3298.061,1099.61,3286.035z"/>
					</g>
					<g>
						<path style="fill:none;" d="M1475.481,2941.927c-10.207,0.897-20.446,1.268-30.632,1.138c0.16,0.299,0.369,0.597,0.364,0.893
							c0,0-3.797,184.467,18.357,223.711c22.153,39.244,154.445,11.393,176.6,36.079c13.781,15.356,13.589,36.582,4.933,51.201
							c14.262-4.692,20.79-13.688,23.329-31.875c2.606-18.702-1.38-33.106-12.187-44.029
							c-22.931-23.161-77.039-30.564-152.385-20.849c-4.925,0.473-9.383-1.207-12.915-4.618
							C1468.814,3132.181,1472.784,2998.074,1475.481,2941.927z"/>
					</g>
					<g>
						<path style="fill:none;" d="M1362.927,3292.365c-44.942,25.318-73.425,86.084-115.835,97.478
							c-42.409,11.394-73.425-6.963-68.994-8.229c4.431-1.266,175.333-136.722,175.966-147.483
							c0.634-10.76-101.276,27.967-120.264,41.202c-0.053,0.037-0.126,0.084-0.181,0.121c21.152-9.776,42.421-19.282,63.9-28.241
							c-31.576,16.71-62.488,34.534-93.137,52.783c-28.926,17.288-57.655,34.992-86.027,53.024
							c0.548,6.212,3.008,18.013,13.244,29.561c16.524,18.632,47.484,29.427,89.533,31.215
							c56.19,2.332,76.208-21.902,101.643-52.664c24.681-29.836,55.392-66.979,126.842-84.621
							c21.029-5.194,40.498-8.602,58.547-10.892c-14.776-1.346-25.037-2.371-25.606-2.371
							C1480.66,3263.248,1407.867,3267.045,1362.927,3292.365z"/>
					</g>
					<g>
						<path style="fill:none;" d="M1255.762,3187.189l6.065,0.053C1259.928,3187.209,1257.893,3187.193,1255.762,3187.189z"/>
					</g>
					<g>
						<path style="fill:none;" d="M2218.534,3209.228c-4.778,0.314-8.056,0.533-8.056,0.533
							c1.583-2.215,27.535-24.686,57.602-38.611c30.066-13.926,69.942-23.157,98.427-42.753
							c16.909-11.633,23.745-16.337,26.538-18.258c-3.345-4.613-9.03-10.589-16.673-17.66
							c-14.091,12.456-49.95,39.552-111.911,57.401c-47.746,13.752-75.768,31.279-83.286,52.109
							c-3.781,10.468-2.569,22.275,3.542,35.719C2192.021,3226.155,2203.51,3216.637,2218.534,3209.228z"/>
					</g>
					<g>
						<path style="fill:none;" d="M1105.94,2069.038c26.163-11.816,43.886-86.085,72.58-60.766
							c28.695,25.319,87.998,157.821,98.435,132.502c10.437-25.319-8.131-85.24,10.437-88.617
							c18.567-3.376,177.232,83.553,326.615,43.886c149.381-39.666,202.55-140.098,240.528-126.594
							c37.98,13.503,156.677,79.101,195.8,87.772c21.676,4.804,5.065-23.698-22.656-54.808
							c-22.139-18.143-48.091-35.703-78.074-51.262c-4.324-2.242-6.343-7.307-4.759-11.906c0.613-1.771,1.79-3.142,3.165-4.252
							c-38.355-25.905,46.654-41.201,150.43-33.904c68.049,4.784,97.153,3.266,108.382-1.504
							c-46.775-37.123-130.973-69.376-219.067-70.548c-4.842-0.064-8.91-3.647-9.588-8.438c0,0-0.019-0.752,0.083-2.113
							c0.043-0.559,0.026-1.12,0.161-1.654c1.346-11.726,10.175-48.156,67.702-68.501c69.205-24.475,167.561-71.652,181.681-93.216
							c-1.517-0.489-3.119-0.948-4.8-1.38c-1.287-0.053-2.539-0.353-3.703-0.889c-98.013-21.204-437.707,43.845-620.537,91.474
							c-198.093,51.604-415.483,132.239-417.655,133.05c-5.084,1.871-10.724-0.703-12.622-5.774
							c-1.884-5.078,0.696-10.731,5.774-12.621c1.258-0.466,73.922-27.415,173.304-60.106l-187.305-19.935
							c-11.063,15.164-48.19,68.655-74.343,136.566C1085.859,1916.887,1079.887,2080.804,1105.94,2069.038z"/>
					</g>
					<g>
						<path style="fill:none;" d="M1304.332,3095.192c-0.588,1.93-1.201,3.582-1.836,4.99
							C1307.046,3098.746,1306.486,3096.871,1304.332,3095.192z"/>
					</g>
					<g>
						<path style="fill:none;" d="M1342.672,3139.185c83.393-30.927,54.518-168.317,48.321-202.855
							c-20.556-5.276-40.051-13.98-57.646-26.958c2.314,20.021,4.101,52.823,4.894,86.128c1.266,53.17,7.596,109.504-25.842,137.176
							c-33.437,27.673-262.806,0-262.806,0s0.014-3.129,0.703-6.937c-9.872,9.418-15.83,21.726-19.411,33.36l8.276-7.571
							C1039.161,3151.529,1247.092,3174.632,1342.672,3139.185z"/>
					</g>
					<g>
						<path style="fill:none;" d="M2400.686,3367.689c0,0,87.667-10.127,130.709-92.415c43.043-82.286,54.437-162.674-7.594-205.716
							c-62.032-43.042-189.49-138.464-189.49-138.464s0.048-0.057,0.051-0.061c-15.197,9.58-32.073,16.175-50.854,19.094
							c-3.516,0.546-6.99,1.002-10.444,1.42c0.007,0.001,0.077,0.014,0.077,0.014s140.838,81.109,160.724,127.615
							c19.885,46.507-37.542,76.045-37.542,76.045s15.403-10.429,15.921-26.01c-16.904,34.526-83.905,74.786-145.656,85.47
							c-34.639,5.998-58.617,19.284-67.521,37.411c-6.937,14.123-5.078,31.452,5.525,51.508
							c21.11,39.928,97.156,38.16,123.803,36.225c-0.008-2.761,0.056-5.508,0.326-8.213c0.726-6.195,1.865-12.324,3.944-18.106
							c3.877-11.663,10.217-22.194,17.885-31.198c7.654-9.039,16.513-16.791,26.086-23.143c9.519-6.613,18.87-11.868,28.296-17.843
							c18.738-11.667,37.525-23.21,54.53-36.981c16.941-13.585,31.819-30.915,37.755-52.497
							c-4.264,21.948-18.223,41.062-34.505,56.173c-16.324,15.344-34.441,28.395-52.315,41.454
							c-17.931,13.232-36.502,24.912-48.276,41.928c-6.054,8.276-10.598,17.44-12.995,26.992c-1.344,4.742-1.822,9.633-2.049,14.424
							c-0.057,2.409,0.037,4.783,0.246,7.125c0.254,2.073,0.661,4.76,1.07,6.012c1.287,3.974,25.253,72.905,130.393,43.924
							c22.856-6.301,42.08-16.848,58.234-30.158C2479.248,3388.313,2400.686,3367.689,2400.686,3367.689z"/>
					</g>
					<g>
						<path style="fill:none;" d="M1341.406,2856.246c0,0,122.375-24.264,156.133-101.908
							c33.759-77.646-49.793-173.857-90.304-173.857c-40.511,0-108.705,83.713-108.705,83.713
							c-26.743,61.428-36.158,127.987,16.587,199.518c40.469,54.876,104.74,65.358,167.266,58.215
							c1.239-0.469,2.59-0.714,4.006-0.658c0.211,0.011,0.404,0.07,0.61,0.095c91.161-11.675,177.259-59.544,178.724-60.367
							c47.947-27.099,62.629-45.919,65.344-49.841c-2.744-0.792-5.509-1.51-8.233-2.371c-8.342-2.537-16.552-5.453-24.692-8.542
							c-24.791,20.087-110.079,84.268-201.656,96.514C1387.613,2911.315,1341.406,2856.246,1341.406,2856.246z"/>
					</g>
					<g>
						<path style="fill:none;" d="M2472.845,2384.922c-0.185,7.461-0.307,16.582-0.447,27.095
							c-0.222,16.508-0.492,36.274-1.091,58.307c23.785-0.463,83.733,2.074,106.507,37.575
							c28.694,44.73,16.036-94.524,42.198-100.431c26.163-5.908,117.31,33.758,154.445,151.069
							c37.135,117.312,48.95,124.063,54.014,17.724c5.064-106.34-25.318-148.538,18.568-147.694
							c43.885,0.844,110.558,140.098,117.31,183.14c5.592,35.652,38.928-99.97,26.487-237.089
							c-34.709-142.543-99.718-257.769-176.705-299.039c-119.306-63.973-316.982,13.137-371.967,76.56
							C2454.836,2209.685,2474.617,2312.247,2472.845,2384.922z"/>
					</g>
					<g>
						<path style="fill:none;" d="M3126.6,1022.811c-0.725-1.987-1.531-3.932-2.525-5.782c-0.92-1.475-2.153-2.044-3.628-2.299
							c-1.626-0.279-3.575-0.134-5.682,0.212C3119.951,1015.886,3123.823,1018.641,3126.6,1022.811z"/>
					</g>
					<g>
						<path style="fill:none;" d="M2394.288,2052.939c-6.998-20.219-14.666-40.22-22.993-59.965
							c-8.478-19.673-17.716-39.025-27.867-57.942c-10.419-18.75-21.832-36.986-34.838-54.199
							c14.265,16.166,27.127,33.604,39.051,51.686c11.654,18.242,22.457,37.052,32.525,56.265c2.381,4.628,4.605,9.338,6.913,14.005
							c-0.487-3.764-0.3-6.216,0.845-6.753c0,0,211.834-95.79,243.906-197.066c32.071-101.276,48.95-107.991,113.091-106.321
							c64.141,1.67,119.843-0.018,98.745-13.522c-21.101-13.503-136.723-27.851-126.596-68.361s226.182-70.049,189.892-91.993
							c-36.29-21.942-119-6.751-102.119-43.886c16.879-37.134,225.339-114.779,198.331-124.906
							c-27.008-10.127-125.751,23.631-127.439,5.908c-1.688-17.723,1.688-42.198,78.489-118.156
							c72.649-71.849,134.052-210.105,156.861-221.982c-27.477,7.875-86.266,55.56-164.323,118.757
							c-48.717,39.442-109.347,88.523-180.273,142.676c-245.534,187.446-415.881,307.197-519.423,365.094
							c1.112,0.633,2.204,1.275,3.191,1.96c9.638,6.688,12.353,14.774,12.928,20.382c6.17,60.093-141.852,119.886-225.329,148.68
							c107.271,15.004,209.316,70.894,224.518,128.323c2.108,7.959,0.268,15.56-5.167,21.411
							c-27.204,29.235-169.388,11.485-252.342-1.827c101.899,68.812,153.713,162.765,137.132,199.626
							c-2.063,4.573-6.055,7.907-11.255,9.383c-1.795,0.511-3.884,0.754-6.228,0.754c-41.537,0.013-164.7-77.032-226.715-117.625
							c25.677,55.117,66.072,154.921,40.662,190.218c-5.04,6.994-12.423,10.654-20.663,10.239
							c-25.917-1.222-63.866-47.352-93.486-89.86c-30.42,17.042-138.026,68.822-332.257,75.156c0,0-15.191,374.72,232.934,451.943
							c248.126,77.222,551.954-84.819,553.22-69.627c1.265,15.192-93.681,124.062-74.692,177.233
							c18.99,53.17,137.988,55.069,162.675,32.281c0,0-20.256,88.617-140.521,81.021c-62.914-3.973-109.054-15.747-140.795-28.06
							c45.776,32.632,111.292,59.988,195.618,46.847c38.261-5.944,67.926-29.659,90.97-64.242c0.369-1.188,0.961-2.327,1.801-3.344
							c0.308-0.372,0.661-0.682,1.009-0.997c45.236-71.304,63.997-185.452,72.047-286.847c-0.035-0.763,0.035-1.517,0.174-2.261
							c4.958-63.571,5.752-121.941,6.281-161.289c0.141-10.597,0.268-19.788,0.447-27.313
							c2.477-101.189-39.725-268.892-40.206-270.782C2407.647,2093.448,2401.191,2072.998,2394.288,2052.939z"/>
					</g>
					<g>
						<path style="fill:none;" d="M2524.433,2984.106c17.559,9.841,104.441-93.046,128.494-71.697
							c14.119,12.534,12.963,54.469,6.66,91.197c7.595-14.977,14.239-30.613,17.929-47.538c8.521-39.034,1.016-77.377-17.846-91.187
							c-9.747-7.135-21.66-6.764-35.399,1.137c-27.389,15.745-49.221,49.713-65.158,74.516
							c-15.017,23.372-24.087,37.475-36.166,38.772c-1.829,0.185-4.335-0.35-7.239-1.312
							C2519.534,2980.906,2522.56,2983.057,2524.433,2984.106z"/>
					</g>
					<g style="opacity:0.25;">
						<path style="fill:#110F70;" d="M2098.442,1901.089c-103.776-7.297-188.785,7.999-150.43,33.904
							c2.188-1.77,5.016-2.703,7.924-2.193c106.945,20.12,266.643,38.657,286.898,16.869c0.664-0.709,1.041-1.239,0.569-3.028
							c-4.042-15.271-17.082-31.584-36.578-47.057C2195.595,1904.355,2166.491,1905.873,2098.442,1901.089z"/>
					</g>
					<g style="opacity:0.25;">
						<path style="fill:#110F70;" d="M2050.336,2057.222c-39.123-8.671-157.821-74.269-195.8-87.772
							c-37.978-13.504-91.147,86.928-240.528,126.594c-149.383,39.667-308.048-47.262-326.615-43.886
							c-18.568,3.377,0,63.298-10.437,88.617c-10.437,25.319-69.74-107.184-98.435-132.502
							c-28.694-25.319-46.417,48.95-72.58,60.766c-26.053,11.766-20.08-152.151-20.029-153.538
							c-19.269,50.03-32.595,107.873-25.103,164.058c15.202,114.035,42.189,124.638,47.446,125.609
							c7.032,1.31,15.304-5.263,21.973-17.584c21.053-38.867,36.063-101.611,36.21-102.237c0.996-4.184,4.592-7.23,8.878-7.524
							c0.224-0.019,0.453-0.025,0.677-0.025c4.024,0,7.671,2.472,9.14,6.266c20.836,53.808,86.511,197.691,139.482,217.083
							c8.189,3.002,15.451,2.651,22.216-1.028c12.673-6.911,20.357-16.76,23.493-30.117c11.133-47.395-38.152-118.666-38.65-119.381
							c-2.434-3.481-2.351-8.125,0.204-11.517c2.549-3.392,6.975-4.765,11.012-3.385c2.421,0.83,244.37,81.12,442.048-51.195
							c2.255-1.501,5.021-2.012,7.652-1.412c2.632,0.607,4.899,2.268,6.266,4.605c35.227,60.138,95.703,145.352,119.86,146.489
							c1.258,0.058,2.344-0.057,3.82-2.108c19.571-27.185-25.288-138.607-58.158-202.456c-2.05-3.986-1.137-8.853,2.21-11.829
							c3.353-2.97,8.297-3.29,12.008-0.792c102.55,69.316,224.365,139.572,245.98,134.57c7.66-21.97-23.276-88.841-96.897-149.175
							C2055.401,2033.524,2072.011,2062.026,2050.336,2057.222z"/>
					</g>
					<g style="opacity:0.25;">
						<path style="fill:#110F70;" d="M1978.17,1820.599c-0.102-0.722,0.027-1.412,0.083-2.113
							C1978.151,1819.847,1978.17,1820.599,1978.17,1820.599z"/>
					</g>
					<g style="opacity:0.25;">
						<path style="fill:#110F70;" d="M2046.117,1748.331c-57.527,20.345-66.356,56.776-67.702,68.501
							c0.824-3.248,3.245-5.971,6.622-6.996c102.486-31.081,263.328-97.447,258.627-143.213c-0.096-0.907-0.338-3.315-4.593-6.272
							c-2.929-2.033-6.723-3.768-11.274-5.236C2213.678,1676.679,2115.321,1723.856,2046.117,1748.331z"/>
					</g>
					<g style="opacity:0.25;">
						<path style="fill:#110F70;" d="M2366.191,2830.927c-24.688,22.787-143.685,20.888-162.675-32.281
							c-18.99-53.17,75.956-162.041,74.692-177.233c-1.266-15.192-305.094,146.849-553.22,69.627
							c-248.125-77.222-232.934-451.943-232.934-451.943c194.231-6.334,301.836-58.114,332.257-75.156
							c-15.756-22.613-29.159-44.203-37.13-57.46c-166.156,105.667-358.635,71.584-425.927,54.76
							c15.362,27.319,37.156,75.02,28.169,113.249c-1.939,8.261-5.255,15.619-9.766,22.147
							c4.517,26.74,26.086,170.778-18.243,252.244c-6.081,11.178-12.788,22.624-19.884,34.741
							c-15.106,25.788-30.842,52.649-42.999,80.571c0,0,68.194-83.713,108.705-83.713c40.511,0,124.063,96.211,90.304,173.857
							c-33.758,77.644-156.133,101.908-156.133,101.908s46.207,55.069,155.079,40.511c91.577-12.246,176.865-76.427,201.656-96.514
							c-14.028-5.324-27.777-11.342-41.109-18.12c-20.877-11.01-41.201-23.396-58.638-39.178
							c19.95,12.253,41.055,22.066,62.59,30.448c21.514,8.438,43.567,15.237,65.881,20.682
							c27.335,6.541,55.117,10.785,83.051,12.953c27.405,0.396,59.622,0.51,90.481-0.219c33.362-2.673,66.57-8.013,99.342-15.727
							c44.966-10.483,89.114-25.074,132.884-41.807c-39.086,23.417-81.255,41.96-125.173,55.413
							c4.064,6.368,30.27,45.584,77.425,79.201c31.741,12.313,77.881,24.087,140.795,28.06
							C2345.935,2919.544,2366.191,2830.927,2366.191,2830.927z"/>
					</g>
					<g style="opacity:0.25;">
						<path style="fill:#110F70;" d="M1640.17,3203.749c-22.155-24.686-154.447,3.165-176.6-36.079
							c-22.155-39.244-18.357-223.711-18.357-223.711c0.005-0.295-0.204-0.594-0.364-0.893c-18.324-0.231-36.453-2.268-53.856-6.736
							c6.198,34.539,35.072,171.928-48.321,202.855c-95.58,35.447-303.512,12.344-303.512,12.344l-8.276,7.571
							c-3.071,9.972-4.435,19.431-5.011,26.073l229.888,2.016c2.132,0.004,4.166,0.02,6.065,0.053l5.584,0.049l-0.957,0.066
							c29.948,0.969,27.316,5.8,31.065,7.529c5.485,2.532-137.145,79.122-197.91,91.149
							c-60.765,12.026-121.061-30.004-121.061-30.004c-0.874,13.01,4.486,26.659,15.97,40.665
							c46.813,57.043,104.331,43.388,110.456,41.74c31.432-16.198,62.977-31.84,94.775-47.087
							c11.255-5.374,22.551-10.661,33.869-15.894c0.054-0.037,0.128-0.085,0.181-0.121c18.988-13.235,120.898-51.963,120.264-41.202
							c-0.632,10.761-171.534,146.217-175.966,147.483c-4.431,1.265,26.584,19.622,68.994,8.229
							c42.409-11.394,70.893-72.16,115.835-97.478c44.94-25.32,117.733-29.117,119.632-29.117c0.568,0,10.83,1.025,25.606,2.371
							c30.474-3.866,56.882-4.53,79.76-5.095c26.651-0.661,44.813-1.506,57.179-5.575
							C1653.759,3240.33,1653.951,3219.104,1640.17,3203.749z"/>
					</g>
					<g style="opacity:0.25;">
						<path style="fill:#110F70;" d="M2652.927,2912.409c-24.054-21.349-110.935,81.538-128.494,71.697
							c-1.873-1.049-4.899-3.201-8.724-6.114c-24.14-7.996-82.741-53.075-132.93-94.28c-13.85,19.497-29.88,35.635-48.417,47.321
							c-0.003,0.004-0.051,0.061-0.051,0.061s127.458,95.422,189.49,138.464c62.031,43.042,50.638,123.43,7.594,205.716
							c-43.042,82.288-130.709,92.415-130.709,92.415s78.562,20.624,136.333-7.971c66.698-54.952,80.392-157.632,74.509-209.294
							c-5.653-49.688,14.768-86.313,34.518-121.738c4.583-8.218,9.212-16.544,13.542-25.08
							C2665.891,2966.878,2667.047,2924.943,2652.927,2912.409z"/>
					</g>
					<g style="opacity:0.25;">
						<path style="fill:#110F70;" d="M2268.08,3171.151c-30.067,13.925-56.019,36.396-57.602,38.611c0,0,3.278-0.219,8.056-0.533
							c12.483-6.155,27.368-10.879,44.707-13.881c64.871-11.223,127.244-56.197,133.082-79.096c-0.37-1.612-1.517-3.683-3.278-6.111
							c-2.793,1.921-9.629,6.625-26.538,18.258C2338.022,3147.993,2298.146,3157.225,2268.08,3171.151z"/>
					</g>
					<g style="opacity:0.25;">
						<path style="fill:#110F70;" d="M2964.35,2611.707c-6.751-43.042-73.425-182.296-117.31-183.14
							c-43.886-0.844-13.505,41.355-18.568,147.694c-5.063,106.339-16.879,99.588-54.014-17.724
							c-37.135-117.312-128.282-156.978-154.445-151.069c-26.163,5.907-13.505,145.162-42.198,100.431
							c-22.774-35.501-82.722-38.038-106.507-37.575c-0.736,27.075-1.97,57.583-4.244,89.797
							c26.449-7.58,65.501-6.417,88.135,35.069c27.728,50.831,45.983,140.012,49.816,195.206
							c29.107-26.629,89.916-102.595,62.309-255.861c-0.766-4.248,1.341-8.495,5.18-10.469c3.833-1.961,8.514-1.201,11.523,1.91
							c3.239,3.341,78.246,83.714,68.952,325.178c6.081-1.68,17.303-6.975,31.611-19.603
							c23.934-21.136,100.647-104.16,82.647-285.122c-0.447-4.478,2.21-8.687,6.451-10.207c4.235-1.527,8.962,0.045,11.466,3.788
							c2.038,3.047,48.621,75.461,50.94,303.76c26.687-20.963,83.599-85.387,81.74-252.629
							c-0.833-75.031-10.515-148.842-26.996-216.523C3003.278,2511.737,2969.942,2647.359,2964.35,2611.707z"/>
					</g>
					<g style="opacity:0.25;">
						<path style="fill:#110F70;" d="M2954.222,1237.732c-76.801,75.958-80.177,100.433-78.489,118.156
							c1.688,17.724,100.431-16.035,127.439-5.908c27.008,10.127-181.453,87.772-198.331,124.906
							c-16.881,37.135,65.829,21.944,102.119,43.886c36.29,21.943-179.765,51.483-189.892,91.993s105.495,54.858,126.596,68.361
							c21.098,13.504-34.604,15.192-98.745,13.522c-64.141-1.67-81.02,5.045-113.091,106.321
							c-32.071,101.276-243.906,197.066-243.906,197.066c-1.145,0.537-1.332,2.99-0.845,6.753
							c7.306,14.774,14.364,29.679,20.927,44.819c7.058,16.376,13.61,32.878,19.788,49.734
							c34.909-18.797,155.394-86.382,215.226-154.614c69.604-79.377,95.045-187.082,95.294-188.161
							c1.22-5.27,6.432-8.585,11.753-7.358c41.838,9.568,158.689,28.622,196.394,2.236c6.343-4.439,9.837-9.894,10.686-16.671
							c6.438-51.483-97.99-95.716-138.767-108.414c-4.535-1.418-7.403-5.877-6.815-10.59s4.471-8.323,9.217-8.578
							c2.363-0.128,237.83-13.197,328.282-69.425c52.818-32.838,66.11-64.558,61.441-81.74
							c-3.143-11.574-14.333-18.728-29.931-19.124c-47.708-1.514-244.287,31.19-246.267,31.516
							c-5.155,0.888-10.131-2.517-11.204-7.671c-1.08-5.155,2.102-10.233,7.205-11.517c3.296-0.837,329.745-85.508,338.195-287.128
							c-0.007-2.708-0.581-3.685-0.588-3.692c-8.457-3.136-51.777,22.746-90.05,45.613
							c-51.502,30.755-122.032,72.887-204.602,108.037c-4.401,1.852-9.428,0.326-12.034-3.622
							c-2.612-3.954-2.018-9.211,1.399-12.488c55.36-53.043,189.162-202.015,163.973-271.138c-2.777-4.169-6.649-6.925-11.834-7.869
							c-1.167,0.192-2.373,0.433-3.682,0.808C3088.274,1027.627,3026.872,1165.883,2954.222,1237.732z"/>
					</g>
					<g style="opacity:0.25;">
						<path style="fill:#110F70;" d="M3013.795,1270.103l1.008-1.681c-0.661,0.716-1.346,1.467-1.996,2.168
							C3013.142,1270.429,3013.459,1270.265,3013.795,1270.103z"/>
					</g>
					<g style="opacity:0.4;">
						<path style="fill:#FFFFFF;" d="M1312.399,3132.676c33.438-27.672,27.108-84.006,25.842-137.176
							c-0.794-33.306-2.581-66.107-4.894-86.128c-11.076-8.169-21.433-17.952-30.751-29.8c1.892,23.656,4.169,55.326,5.674,87.137
							c3.724,78.639,0.814,112.875-3.938,128.484c2.154,1.678,2.715,3.554-1.836,4.99c-2.961,6.568-6.338,8.008-9.217,9.222
							c-11.006,4.644-37.628,3.628-83.714,1.424c-53.501-2.562-126.765-6.055-149.268,7.262c-3.732,2.208-7.026,4.81-10.001,7.649
							c-0.688,3.808-0.703,6.937-0.703,6.937S1278.962,3160.349,1312.399,3132.676z"/>
					</g>
					<g style="opacity:0.4;">
						<path style="fill:#FFFFFF;" d="M2396.323,3155.221c0,0,57.428-29.539,37.542-76.045
							c-19.886-46.505-160.724-127.615-160.724-127.615s-0.07-0.013-0.077-0.014c-12.182,1.474-23.998,2.189-35.412,2.189
							c-5.067,0-10.038-0.17-14.953-0.433c21.717,14.656,50.873,34.685,79.683,55.582
							c109.397,79.345,115.836,98.807,113.275,110.822c-0.658,3.098-1.835,6.278-3.414,9.505
							C2411.727,3144.792,2396.323,3155.221,2396.323,3155.221z"/>
					</g>
				</g>
				<g>
					<g>
						<path style="fill:#110F70;" d="M1335.141,2330.213c-6.504,0-13.159-1.216-19.834-3.662
							c-54.243-19.863-108.14-124.473-136.221-187.114c-6.518,19.897-15.078,42.593-25.068,61.035
							c-12.529,23.135-31.45,34.824-50.659,31.304c-33.706-6.201-57.046-56.211-69.37-148.643
							c-20.977-157.302,94.023-306.218,98.926-312.483c3.579-4.563,9.272-7.031,14.99-6.553c5.781,0.476,10.938,3.826,13.721,8.914
							l37.671,68.877c49.683-18.02,223.257-79.626,392.642-123.75c119.458-31.123,582.021-135.921,662.559-80.01
							c11.958,8.303,15.347,18.577,16.084,25.732c3.979,38.76-40.586,77.19-140.264,120.94
							c-22.031,9.67-44.023,18.362-63.755,25.718c100.176,20.173,188.169,73.188,203.003,129.199
							c2.783,10.515,0.327,20.593-6.909,28.379c-12.383,13.311-43.447,26.682-174.922,11.77
							c-18.569-2.104-36.909-4.534-53.838-6.965c89.429,69.06,131.47,154.114,114.878,190.984
							c-2.974,6.612-8.657,11.396-16.001,13.487c-10.083,2.851-31.06,8.818-155.376-65.532
							c-22.31-13.345-44.038-26.948-62.441-38.711c25.845,59.341,53.769,141.118,29.536,174.781
							c-6.557,9.101-16.128,13.779-27.051,13.32c-40.498-1.909-100.962-92.075-132.734-144.424
							c-156.767,96.211-330.679,73.55-408.843,55.85c14.37,28.828,28.887,69.116,20.796,103.54
							c-4.858,20.684-17.608,37.163-36.87,47.671C1352.045,2328.089,1343.725,2330.213,1335.141,2330.213z M1175.995,2070.359
							c7.08,0,13.491,4.346,16.079,11.021c28.501,73.579,90.381,196.411,135.098,212.783c7.979,2.91,12.793,1.221,16.099-0.581
							c10.854-5.918,17.148-13.95,19.81-25.278c8.623-36.675-24.15-94.316-37.505-113.433c-4.272-6.118-4.126-14.292,0.361-20.254
							c4.497-5.962,12.319-8.34,19.365-5.942c2.383,0.805,241.016,79.848,435.498-50.337c3.955-2.652,8.814-3.535,13.452-2.48
							c4.634,1.064,8.623,3.994,11.025,8.095c42.49,72.53,93.594,137.31,112.007,142.5c12.251-22.998-20.332-117.3-59.512-193.408
							c-3.608-7.007-2.012-15.562,3.882-20.796c5.894-5.229,14.57-5.791,21.108-1.392
							c91.987,62.173,203.242,127.393,235.625,132.935c0.303-29.595-49.775-122.5-172.207-186.04
							c-7.593-3.94-11.147-12.849-8.359-20.935c2.793-8.083,11.035-12.905,19.492-11.323
							c131.279,24.695,255.508,33.674,278.135,20.522c-15.059-43.941-122.803-107.881-247.798-109.546
							c-8.506-0.115-15.654-6.409-16.846-14.829s3.931-16.453,12.07-18.921c124.819-37.861,256.104-101.04,253.418-135.034
							c-2.031-2.637-27.7-27.476-250.933,5.51c-134.238,19.841-289.956,53.633-384.731,78.32
							c-197.661,51.494-401.294,127.073-403.325,127.83c-8.047,2.983-17.041-0.369-21.152-7.886l-31.45-57.51
							c-29.775,45.554-91.138,155.022-76.524,264.622c15.088,113.154,41.162,119.229,41.426,119.278
							c2.92,0.556,8.838-4.116,14.082-13.804c20.571-37.983,35.376-99.8,35.522-100.42c1.743-7.349,8.071-12.71,15.606-13.222
							C1175.209,2070.374,1175.605,2070.359,1175.995,2070.359z"/>
					</g>
					<g>
						<path style="fill:#110F70;" d="M2237.641,2961.175c-139.922,0.01-223.735-100.825-247.202-133.482
							c-66.611,10.073-204.727,6.24-241.846,4.971c-9.072,10.586-28.731,28.813-69.556,51.89
							c-93.301,52.739-293.975,119.609-385.693-4.781c-87.305-118.394-22.49-229.038,24.839-309.824
							c6.987-11.929,13.584-23.194,19.463-33.999c43.345-79.663,14.961-237.012,14.673-238.594
							c-1.729-9.365,4.458-18.359,13.823-20.093c9.346-1.729,18.355,4.453,20.093,13.818c1.284,6.934,30.908,170.933-18.286,261.353
							c-6.143,11.284-12.876,22.779-20.005,34.951c-47.178,80.537-100.649,171.816-26.836,271.919
							c80.249,108.823,273.33,33.447,340.957-4.78c48.101-27.188,61.484-45.523,62.983-47.74c2.944-6.221,8.867-9.229,15.816-8.916
							c1.894,0.073,189.805,7.349,254.063-5.981c7.188-1.49,14.536,1.729,18.306,8.027c3.701,6.133,92.866,150.347,266.128,123.477
							c159.414-24.775,164.36-391.275,165.981-511.709c0.146-10.64,0.269-19.868,0.454-27.422
							c2.441-100.215-39.565-267.109-39.99-268.779c-1.978-7.798,1.699-15.927,8.853-19.594
							c1.528-0.781,153.652-79.243,222.769-158.064c68.296-77.883,93.398-183.867,93.643-184.929
							c2.144-9.265,11.411-15.046,20.654-12.937c56.924,13.01,158.979,25.437,190.479,3.394c5.957-4.172,7.173-8.34,7.568-11.504
							c5.757-46.082-97.114-88.994-133.608-100.396c-7.969-2.49-13.013-10.329-11.973-18.613c1.04-8.281,7.861-14.631,16.196-15.076
							c2.349-0.125,235.928-13.103,324.751-68.318c46.191-28.711,62.51-57.59,58.193-73.472
							c-2.231-8.23-10.811-13.328-22.939-13.638c-47.178-1.182-242.905,31.096-244.873,31.421
							c-9.087,1.514-17.813-4.438-19.697-13.491c-1.89-9.05,3.696-17.981,12.661-20.247c3.213-0.811,318.286-82.61,332.271-274.658
							c-15.601,5.132-49.043,25.107-79.072,43.04c-51.685,30.872-122.471,73.152-205.513,108.501
							c-7.656,3.267-16.558,0.579-21.147-6.37c-4.59-6.953-3.55-16.191,2.461-21.953c76.934-73.728,187.769-210.566,160.747-266.646
							c-0.22-0.017-0.444-0.024-0.674-0.024c-19.883,0-90.967,57.542-166.099,118.367c-48.76,39.473-109.438,88.599-180.459,142.815
							c-261.602,199.722-438.096,322.764-539.565,376.155c-8.442,4.436-18.867,1.191-23.296-7.234
							c-4.434-8.428-1.196-18.857,7.231-23.293c98.359-51.753,278.257-177.263,534.702-373.044
							c70.625-53.918,131.094-102.874,179.683-142.209c111.211-90.039,161.929-131.108,195.278-125.398
							c9.512,1.636,17.256,6.931,22.397,15.315c0.171,0.283,0.337,0.571,0.493,0.862c34.536,64.407-41.909,171.682-102.876,241.934
							c46.05-23.848,86.357-47.922,118.95-67.39c66.206-39.546,96.431-57.59,117.695-45.53c6.323,3.589,13.862,11.23,13.862,27.256
							c0,0.242-0.005,0.481-0.015,0.723c-5.225,124.595-113.335,206.631-209.57,255.225c40.083-5.2,76.919-9.109,95.308-8.606
							c27.783,0.71,48.989,15.684,55.347,39.077c9.644,35.496-17.749,77.295-73.271,111.812
							c-64.17,39.888-189.8,59.001-269.482,67.473c45.728,23.398,96.27,60.776,90.132,109.91
							c-1.802,14.392-9.414,26.663-22.021,35.488c-45.859,32.1-158.022,14.063-201.68,5.415
							c-10.117,34.646-38.701,117.134-96.934,183.54c-62.441,71.204-182.295,138.87-220.889,159.641
							c10.122,42.388,39.976,175.708,37.803,264.892c-0.181,7.451-0.303,16.558-0.444,27.046
							c-1.904,141.147-6.958,516.079-195.181,545.327C2268.349,2960.008,2252.66,2961.17,2237.641,2961.175z"/>
					</g>
					<g>
						<path style="fill:#110F70;" d="M2405.986,2116.125c-9.663-40.871-22.808-82.133-38.054-121.563
							c-15.807-39.814-34.336-78.645-59.343-113.73c44.468,47.889,76.78,105.898,104.615,164.753
							c9.248,19.917,17.89,39.71,25.862,60.759C2446.808,2129.595,2412.184,2139.925,2405.986,2116.125L2405.986,2116.125z"/>
					</g>
					<g>
						<path style="fill:#110F70;" d="M1598.394,2742.944c102.122,51.928,219.604,67.159,332.427,53.589
							c69.016-8.27,134.593-26.363,201.802-47.261c-38.86,26.887-82.056,47.495-127.432,62.312
							C1871.575,2855.625,1704.293,2842.521,1598.394,2742.944L1598.394,2742.944z"/>
					</g>
					<g>
						<path style="fill:#110F70;" d="M1228.481,3441.018c-2.764,0-5.591-0.063-8.496-0.185
							c-50.664-2.154-87.383-15.904-109.126-40.865c-9.8-11.25-14.79-22.783-17.295-32.305
							c-27.261,2.373-77.398-1.948-119.961-53.809c-18.603-22.676-25.591-45.879-20.771-68.97
							c6.333-30.308,31.958-50.815,45.894-59.966c1.504-20.85,9.253-67.305,47.793-90.117
							c27.358-16.186,85.376-14.771,164.321-11.001c25.293,1.206,56.03,2.676,68.281,1.294
							c7.725-26.245,2.749-142.749-6.826-241.856c-0.913-9.482,6.03-17.91,15.508-18.828c9.585-0.913,17.91,6.03,18.828,15.508
							c0.059,0.63,6.079,63.315,9.067,126.44c6.089,128.662-4.741,143.657-19.536,149.898c-12.539,5.278-37.065,4.38-86.968,1.997
							c-49.59-2.368-124.536-5.938-145.107,6.235c-31.948,18.911-31.221,69.458-31.211,69.966
							c0.147,6.616-3.506,12.783-9.404,15.791c-8.774,4.556-32.622,20.991-36.895,41.807c-2.568,12.5,1.909,25.556,13.696,39.917
							c45.562,55.532,100.84,39.863,103.164,39.18c5.493-1.636,11.499-0.454,15.933,3.188c4.429,3.643,6.816,9.233,6.27,14.941
							c-0.015,0.337-0.752,14.737,11.797,28.667c15.22,16.904,44.272,26.733,84.014,28.423
							c52.466,2.173,70.532-19.668,95.596-49.976c25.376-30.684,56.953-68.867,130.786-87.104
							c57.329-14.16,105.059-15.342,139.907-16.201c58.774-1.455,69.541-3.887,73.33-31.045c2.266-16.25-1.04-28.604-10.112-37.768
							c-20.957-21.167-74.233-27.983-146.147-18.701c-0.23,0.029-0.459,0.053-0.693,0.078c-6.714,0.571-13.237-1.797-18.34-6.729
							c-10-9.673-19.302-31.899-19.624-128.208c-0.171-51.06,2.466-100.098,2.49-100.586c0.513-9.507,8.398-16.748,18.159-16.284
							c9.512,0.517,16.802,8.647,16.284,18.159c-4.326,79.688-3.374,173.477,5.205,198.389
							c82.036-9.555,138.262,0.396,167.183,29.615c16.67,16.846,23.506,39.946,19.756,66.802
							c-8.135,58.32-53.784,59.453-106.636,60.762c-35.117,0.869-78.818,1.948-132.49,15.205
							c-62.778,15.508-88.042,46.055-112.476,75.601C1318.144,3409.192,1291.816,3441.013,1228.481,3441.018z"/>
					</g>
					<g>
						<path style="fill:#110F70;" d="M1015.115,3177.649l252.295,9.644l-251.255,24.834
							C991.822,3213.558,990.69,3177.702,1015.115,3177.649L1015.115,3177.649z"/>
					</g>
					<g>
						<path style="fill:#110F70;" d="M1099.824,3332.722c65.107-30.586,130.558-59.981,197.695-85.51
							c-61.841,35.739-121.644,75.168-180.476,115.405C1096.16,3375.758,1077.938,3344.245,1099.824,3332.722L1099.824,3332.722z"/>
					</g>
					<g>
						<path style="fill:#110F70;" d="M2431.127,3424.065c-62.441,0-91.353-36.636-102.603-57.026
							c-33.667,2.49-119.36,3.101-147.852-50.786c-18.535-35.059-13.438-60.723-5.894-76.084
							c13.008-26.494,43.159-44.526,87.192-52.148c62.686-10.85,118.071-51.934,126.362-71.304
							c-13.145-23.335-120.127-102.041-215.298-163.965c-7.988-5.195-10.249-15.879-5.054-23.862
							c5.2-7.993,15.898-10.244,23.862-5.054c0.581,0.376,58.511,38.12,114.907,79.023
							c113.105,82.036,119.502,102.813,116.187,118.394c-8.247,38.731-85.059,88.638-155.083,100.752
							c-32.227,5.581-54.287,17.432-62.114,33.369c-5.83,11.865-4.004,26.924,5.43,44.756
							c19.209,36.328,99.146,34.858,125.615,31.46c8.354-1.05,16.23,4.033,18.682,12.075c2.173,6.675,24.419,65.767,121.338,39.048
							c112.583-31.04,134.404-169.336,127.334-231.45c-5.923-52.061,15.093-89.751,35.42-126.206
							c12.925-23.179,25.137-45.078,30.698-70.576c8.877-40.679-1.094-73.433-14.98-83.599c-2.666-1.948-10.806-7.9-27.3,1.582
							c-25.82,14.849-47.085,47.935-62.612,72.095c-16.216,25.234-26.006,40.464-41.626,42.138
							c-6.846,0.723-24.976,2.656-153.906-104.004c-7.339-6.074-8.364-16.943-2.295-24.282c6.074-7.348,16.948-8.369,24.287-2.3
							c48.545,40.161,107.773,85.147,127.358,94.746c4.536-5.303,11.675-16.406,17.163-24.947
							c17.441-27.144,41.333-64.316,74.434-83.35c31.299-17.988,54.072-7.412,64.873,0.489
							c27.964,20.469,39.341,68.208,28.306,118.784c-6.65,30.483-20.693,55.669-34.272,80.025
							c-19.287,34.585-35.942,64.458-31.27,105.508c10.381,91.216-30.049,234.853-152.441,268.598
							C2465.317,3421.658,2447.123,3424.065,2431.127,3424.065z M2389.257,3118.65h0.049H2389.257z"/>
					</g>
					<g>
						<path style="fill:#110F70;" d="M2186.186,3277.283c-5.513,0-10.933-2.642-14.272-7.544
							c-19.063-28.003-24.507-53.887-16.191-76.934c10.781-29.863,43.896-52.407,101.25-68.926
							c72.769-20.957,106.177-56.059,106.504-56.416c6.484-6.938,17.373-7.363,24.346-0.918c6.968,6.45,7.446,17.285,1.03,24.282
							c-1.572,1.719-39.492,42.339-122.329,66.197c-44.692,12.871-71.787,29.297-78.354,47.49
							c-4.351,12.061-0.225,27.471,12.261,45.811c5.361,7.876,3.32,18.604-4.551,23.965
							C2192.905,3276.311,2189.531,3277.283,2186.186,3277.283z"/>
					</g>
					<g>
						<path style="fill:#110F70;" d="M2322.346,3353.284c-7.138-39.77,19.189-77.996,51.526-97.854
							c28.03-17.615,58.282-32.523,84.36-52.481c17.349-13.14,32.472-29.839,38.982-51.104
							c-8.369,45.651-51.086,73.732-84.745,100.713c-4.424,3.416-15.497,11.884-19.754,15.176
							c-23.246,17.68-44.775,46.439-37.117,76.379C2361.002,3366.229,2329.087,3375.104,2322.346,3353.284L2322.346,3353.284z"/>
					</g>
					<g>
						<path style="fill:#110F70;" d="M2926.371,2878.821c-3.369,0-6.719-0.986-9.6-2.92c-4.78-3.198-7.646-8.574-7.646-14.326
							c0-90.821-6.919-157.202-15.415-204.473c-16.484,136.445-89.912,201.319-123.423,216.436
							c-23.242,10.488-35.112,3.008-40.117-2.387c-3.149-3.394-4.805-7.91-4.59-12.534c5.259-113.979-8.521-190.781-24.307-239.868
							c-3.779,146.338-91.777,203.174-96.187,205.923c-5.317,3.32-12.012,3.491-17.495,0.449c-5.479-3.042-8.877-8.819-8.877-15.083
							c0-46.983-18.413-148.99-47.271-201.885c-21.479-39.389-62.925-20.229-67.583-17.92c-8.486,4.223-18.853,0.805-23.12-7.671
							s-0.923-18.789,7.534-23.101c25.962-13.227,83.076-23.525,113.452,32.173c26.523,48.618,43.56,126.807,49.312,182.085
							c29.575-32.881,72.744-105.85,48.97-237.866c-1.348-7.471,2.349-14.941,9.106-18.403c6.748-3.457,14.98-2.1,20.259,3.349
							c3.271,3.379,77.954,83.379,71.421,318.892c8.433-4.751,20.356-13.579,33.506-28.379
							c24.824-27.939,80.908-109.614,65.537-264.145c-0.781-7.881,3.896-15.278,11.348-17.945c7.471-2.666,15.767,0.083,20.161,6.66
							c2.031,3.042,47.544,73.784,51.934,291.445c27.363-27.973,68.701-93.887,67.119-236.108
							c-2.559-230.542-88.447-449.404-199.785-509.092c-116.851-62.637-310.977,13.657-363.594,75.708
							c-6.152,7.266-17.036,8.164-24.307,2.002c-7.266-6.157-8.164-17.041-2.002-24.307
							c60.166-70.976,273.071-155.176,406.201-83.804c123.574,66.245,215.244,292.974,217.979,539.112
							c2.632,236.841-107.28,284.766-111.963,286.689C2930.82,2878.396,2928.588,2878.821,2926.371,2878.821z"/>
					</g>
				</g>
			</g>
		</g>
	</g>
</g>
</svg>
